<svg xmlns="http://www.w3.org/2000/svg" xmlns:xlink="http://www.w3.org/1999/xlink" width="500" zoomAndPan="magnify" viewBox="0 0 375 374.999991" height="500" preserveAspectRatio="xMidYMid meet" version="1.0"><defs><clipPath id="e85f77fd4f"><path d="M 28.5 28.5 L 346.5 28.5 L 346.5 346.5 L 28.5 346.5 Z M 28.5 28.5 " clip-rule="nonzero"/></clipPath><clipPath id="518ec3111c"><path d="M 88 112 L 293 112 L 293 254.292969 L 88 254.292969 Z M 88 112 " clip-rule="nonzero"/></clipPath><clipPath id="717d07835d"><path d="M 159.75 0 L 221.851562 0 L 221.851562 83.699219 L 159.75 83.699219 Z M 159.75 0 " clip-rule="nonzero"/></clipPath><clipPath id="5829c21296"><path d="M 153.148438 291.40625 L 215.25 291.40625 L 215.25 375 L 153.148438 375 Z M 153.148438 291.40625 " clip-rule="nonzero"/></clipPath><clipPath id="0965cf41e7"><path d="M 19.351562 63.941406 L 104.851562 63.941406 L 104.851562 115.84375 L 19.351562 115.84375 Z M 19.351562 63.941406 " clip-rule="nonzero"/></clipPath><clipPath id="39d40f1025"><path d="M 285.449219 74.144531 L 370.949219 74.144531 L 370.949219 121.84375 L 285.449219 121.84375 Z M 285.449219 74.144531 " clip-rule="nonzero"/></clipPath><clipPath id="b078038f53"><path d="M 278.25 259.15625 L 363.75 259.15625 L 363.75 311.058594 L 278.25 311.058594 Z M 278.25 259.15625 " clip-rule="nonzero"/></clipPath><clipPath id="6ff861e99b"><path d="M 19.351562 254.355469 L 104.851562 254.355469 L 104.851562 306.257812 L 19.351562 306.257812 Z M 19.351562 254.355469 " clip-rule="nonzero"/></clipPath><clipPath id="46d6a4f0ae"><path d="M 162.394531 1.753906 L 222.394531 1.753906 L 222.394531 55.003906 L 162.394531 55.003906 Z M 162.394531 1.753906 " clip-rule="nonzero"/></clipPath><clipPath id="0eee76a801"><path d="M 290.664062 74.144531 L 342.414062 74.144531 L 342.414062 119.894531 L 290.664062 119.894531 Z M 290.664062 74.144531 " clip-rule="nonzero"/></clipPath><clipPath id="458be49594"><path d="M 290.664062 259.15625 L 327.414062 259.15625 L 327.414062 313.15625 L 290.664062 313.15625 Z M 290.664062 259.15625 " clip-rule="nonzero"/></clipPath><clipPath id="c98717fe73"><path d="M 157.269531 319.90625 L 211.269531 319.90625 L 211.269531 358.15625 L 157.269531 358.15625 Z M 157.269531 319.90625 " clip-rule="nonzero"/></clipPath><clipPath id="dfbc35c3b7"><path d="M 38 252 L 83 252 L 83 297.742188 L 38 297.742188 Z M 38 252 " clip-rule="nonzero"/></clipPath><clipPath id="ea67b757ae"><path d="M 59 256 L 61 256 L 61 297.742188 L 59 297.742188 Z M 59 256 " clip-rule="nonzero"/></clipPath><clipPath id="5e8df20590"><path d="M 61 257 L 63 257 L 63 297.742188 L 61 297.742188 Z M 61 257 " clip-rule="nonzero"/></clipPath><clipPath id="b8ece5c737"><path d="M 77 292 L 83.25 292 L 83.25 297.742188 L 77 297.742188 Z M 77 292 " clip-rule="nonzero"/></clipPath><clipPath id="1be38a8183"><path d="M 37.5 292 L 44 292 L 44 297.742188 L 37.5 297.742188 Z M 37.5 292 " clip-rule="nonzero"/></clipPath><clipPath id="6c5e35053c"><path d="M 45.34375 57.605469 L 91.09375 57.605469 L 91.09375 110.105469 L 45.34375 110.105469 Z M 45.34375 57.605469 " clip-rule="nonzero"/></clipPath></defs><g clip-path="url(#e85f77fd4f)"><path fill="#000000" d="M 187.5 346.5 C 184.085938 346.5 180.671875 346.359375 177.261719 346.214844 C 176.832031 346.214844 176.40625 345.789062 176.40625 345.363281 C 176.40625 344.9375 176.832031 344.507812 177.261719 344.507812 C 180.671875 344.792969 184.085938 344.792969 187.5 344.792969 L 187.640625 344.792969 C 188.070312 344.792969 188.496094 345.21875 188.496094 345.648438 C 188.496094 346.074219 188.070312 346.5 187.5 346.5 Z M 198.023438 346.214844 C 197.597656 346.214844 197.171875 345.929688 197.171875 345.363281 C 197.171875 344.9375 197.457031 344.507812 198.023438 344.507812 C 201.4375 344.222656 204.851562 343.941406 208.265625 343.511719 C 208.691406 343.511719 209.117188 343.796875 209.257812 344.222656 C 209.257812 344.652344 208.976562 345.078125 208.546875 345.21875 C 204.992188 345.648438 201.4375 345.929688 198.023438 346.214844 Z M 167.019531 345.21875 C 163.464844 344.792969 160.050781 344.222656 156.636719 343.511719 C 156.210938 343.371094 155.925781 342.945312 155.925781 342.519531 C 156.070312 342.089844 156.496094 341.808594 156.921875 341.808594 C 160.335938 342.519531 163.75 343.085938 167.019531 343.511719 C 167.445312 343.511719 167.875 343.941406 167.730469 344.507812 C 167.875 344.9375 167.445312 345.21875 167.019531 345.21875 Z M 218.503906 343.511719 C 218.078125 343.511719 217.792969 343.230469 217.648438 342.800781 C 217.507812 342.375 217.792969 341.949219 218.363281 341.808594 C 221.773438 341.09375 225.046875 340.382812 228.316406 339.53125 C 228.742188 339.390625 229.3125 339.671875 229.3125 340.101562 C 229.453125 340.527344 229.167969 341.09375 228.742188 341.09375 C 225.472656 341.949219 222.058594 342.800781 218.644531 343.511719 C 218.644531 343.511719 218.503906 343.511719 218.503906 343.511719 Z M 146.683594 341.238281 C 146.542969 341.238281 146.542969 341.238281 146.398438 341.238281 C 143.128906 340.382812 139.714844 339.390625 136.445312 338.25 C 136.015625 338.109375 135.734375 337.683594 135.875 337.113281 C 136.015625 336.6875 136.445312 336.402344 137.011719 336.542969 C 140.285156 337.683594 143.554688 338.679688 146.824219 339.53125 C 147.253906 339.671875 147.535156 340.101562 147.394531 340.527344 C 147.394531 340.953125 147.109375 341.238281 146.683594 341.238281 Z M 238.414062 338.109375 C 237.988281 338.109375 237.703125 337.824219 237.5625 337.539062 C 237.417969 337.113281 237.703125 336.542969 238.128906 336.402344 C 241.402344 335.265625 244.53125 334.128906 247.800781 332.847656 C 248.226562 332.703125 248.796875 332.847656 248.9375 333.273438 C 249.082031 333.699219 248.9375 334.269531 248.511719 334.410156 C 245.382812 335.691406 242.113281 336.972656 238.839844 338.109375 C 238.699219 338.109375 238.554688 338.109375 238.414062 338.109375 Z M 127.199219 334.554688 C 127.058594 334.554688 126.914062 334.554688 126.914062 334.554688 C 123.785156 333.273438 120.515625 331.851562 117.386719 330.285156 C 116.960938 330.144531 116.816406 329.574219 116.960938 329.148438 C 117.101562 328.722656 117.671875 328.582031 118.097656 328.722656 C 121.226562 330.285156 124.355469 331.710938 127.484375 332.988281 C 127.910156 333.132812 128.195312 333.699219 127.910156 334.128906 C 127.769531 334.410156 127.484375 334.554688 127.199219 334.554688 Z M 257.613281 330.144531 C 257.328125 330.144531 257.042969 330.003906 256.902344 329.71875 C 256.761719 329.292969 256.902344 328.722656 257.328125 328.582031 C 260.316406 327.015625 263.445312 325.453125 266.429688 323.746094 C 266.859375 323.460938 267.425781 323.601562 267.570312 324.03125 C 267.851562 324.457031 267.710938 325.023438 267.285156 325.167969 C 264.296875 326.875 261.167969 328.582031 258.183594 330.144531 C 257.753906 330.144531 257.613281 330.144531 257.613281 330.144531 Z M 108.570312 325.453125 C 108.425781 325.453125 108.285156 325.453125 108.140625 325.308594 C 105.15625 323.601562 102.167969 321.753906 99.324219 319.761719 C 98.898438 319.480469 98.753906 318.910156 99.039062 318.625 C 99.324219 318.199219 99.894531 318.054688 100.179688 318.339844 C 103.023438 320.191406 106.007812 322.039062 108.851562 323.746094 C 109.28125 324.03125 109.421875 324.457031 109.136719 324.882812 C 109.136719 325.308594 108.851562 325.453125 108.570312 325.453125 Z M 275.390625 319.90625 C 275.105469 319.90625 274.820312 319.761719 274.679688 319.476562 C 274.394531 319.050781 274.539062 318.484375 274.964844 318.339844 C 277.808594 316.492188 280.652344 314.359375 283.355469 312.367188 C 283.78125 312.082031 284.207031 312.082031 284.492188 312.511719 C 284.777344 312.9375 284.777344 313.363281 284.351562 313.648438 C 281.648438 315.78125 278.804688 317.773438 275.960938 319.761719 C 275.816406 319.761719 275.53125 319.90625 275.390625 319.90625 Z M 91.359375 313.933594 C 91.21875 313.933594 90.933594 313.933594 90.792969 313.789062 C 88.089844 311.65625 85.386719 309.523438 82.683594 307.246094 C 82.257812 306.964844 82.257812 306.394531 82.542969 305.96875 C 82.828125 305.542969 83.394531 305.542969 83.824219 305.824219 C 86.382812 308.101562 89.085938 310.234375 91.789062 312.367188 C 92.214844 312.652344 92.214844 313.222656 91.929688 313.503906 C 91.929688 313.789062 91.644531 313.933594 91.359375 313.933594 Z M 291.886719 307.246094 C 291.605469 307.246094 291.460938 307.105469 291.175781 306.964844 C 290.894531 306.535156 290.894531 306.109375 291.320312 305.683594 C 293.878906 303.40625 296.4375 301.132812 298.855469 298.714844 C 299.140625 298.429688 299.710938 298.429688 300.136719 298.714844 C 300.421875 299 300.421875 299.566406 300.136719 299.996094 C 297.71875 302.414062 295.160156 304.828125 292.597656 307.105469 C 292.171875 307.246094 292.03125 307.246094 291.886719 307.246094 Z M 75.859375 300.277344 C 75.574219 300.277344 75.433594 300.136719 75.289062 299.996094 C 72.871094 297.578125 70.453125 295.015625 68.179688 292.457031 C 67.894531 292.03125 67.894531 291.605469 68.320312 291.175781 C 68.746094 290.894531 69.175781 290.894531 69.601562 291.320312 C 71.875 293.878906 74.292969 296.4375 76.710938 298.855469 C 76.996094 299.140625 76.996094 299.710938 76.710938 300.136719 C 76.285156 300.136719 76 300.277344 75.859375 300.277344 Z M 306.394531 292.597656 C 306.253906 292.597656 305.96875 292.597656 305.824219 292.457031 C 305.398438 292.171875 305.398438 291.605469 305.683594 291.175781 C 307.957031 288.617188 310.09375 285.914062 312.226562 283.210938 C 312.511719 282.785156 313.078125 282.785156 313.363281 283.070312 C 313.789062 283.355469 313.789062 283.925781 313.503906 284.207031 C 311.371094 286.910156 309.238281 289.613281 306.964844 292.316406 C 306.964844 292.597656 306.679688 292.597656 306.394531 292.597656 Z M 62.207031 284.777344 C 61.921875 284.777344 61.636719 284.636719 61.496094 284.492188 C 59.363281 281.789062 57.371094 278.945312 55.378906 276.101562 C 55.09375 275.675781 55.238281 275.105469 55.664062 274.964844 C 56.089844 274.679688 56.660156 274.820312 56.800781 275.25 C 58.648438 278.09375 60.785156 280.9375 62.773438 283.640625 C 63.058594 284.066406 63.058594 284.492188 62.632812 284.777344 C 62.488281 284.636719 62.347656 284.777344 62.207031 284.777344 Z M 319.050781 276.246094 C 318.910156 276.246094 318.765625 276.246094 318.625 276.101562 C 318.199219 275.816406 318.054688 275.25 318.339844 274.964844 C 320.191406 272.121094 322.039062 269.132812 323.746094 266.289062 C 324.03125 265.863281 324.457031 265.71875 324.882812 266.003906 C 325.308594 266.289062 325.453125 266.714844 325.167969 267.140625 C 323.460938 270.128906 321.613281 273.117188 319.621094 275.960938 C 319.621094 276.101562 319.335938 276.246094 319.050781 276.246094 Z M 50.6875 267.570312 C 50.402344 267.570312 50.117188 267.425781 49.976562 267.140625 C 48.269531 264.15625 46.5625 261.027344 44.996094 258.039062 C 44.855469 257.613281 44.996094 257.042969 45.425781 256.902344 C 45.851562 256.761719 46.417969 256.902344 46.5625 257.328125 C 48.125 260.316406 49.691406 263.445312 51.398438 266.429688 C 51.679688 266.859375 51.539062 267.425781 51.113281 267.570312 C 50.96875 267.570312 50.828125 267.570312 50.6875 267.570312 Z M 329.433594 258.324219 C 329.292969 258.324219 329.148438 258.324219 329.007812 258.183594 C 328.582031 258.039062 328.4375 257.472656 328.582031 257.042969 C 330.144531 253.914062 331.566406 250.785156 332.847656 247.660156 C 332.988281 247.230469 333.558594 246.945312 333.984375 247.230469 C 334.410156 247.375 334.695312 247.941406 334.410156 248.371094 C 333.132812 251.5 331.710938 254.769531 330.144531 257.898438 C 330.003906 258.183594 329.71875 258.324219 329.433594 258.324219 Z M 41.441406 249.082031 C 41.15625 249.082031 40.730469 248.9375 40.589844 248.511719 C 39.308594 245.382812 38.027344 242.113281 36.890625 238.839844 C 36.75 238.414062 37.03125 237.84375 37.460938 237.703125 C 37.886719 237.5625 38.457031 237.84375 38.597656 238.273438 C 39.734375 241.542969 40.871094 244.671875 42.296875 247.941406 C 42.4375 248.371094 42.296875 248.9375 41.867188 249.082031 C 41.726562 249.082031 41.585938 249.082031 41.441406 249.082031 Z M 337.398438 239.125 C 337.253906 239.125 337.253906 239.125 337.113281 239.125 C 336.6875 238.984375 336.402344 238.554688 336.542969 237.988281 C 337.683594 234.714844 338.679688 231.445312 339.53125 228.175781 C 339.671875 227.746094 340.101562 227.464844 340.527344 227.605469 C 340.953125 227.746094 341.238281 228.175781 341.097656 228.601562 C 340.242188 231.871094 339.246094 235.285156 338.109375 238.554688 C 337.96875 238.984375 337.683594 239.125 337.398438 239.125 Z M 34.757812 229.453125 C 34.332031 229.453125 34.046875 229.171875 33.902344 228.886719 C 33.050781 225.613281 32.199219 222.203125 31.488281 218.789062 C 31.34375 218.363281 31.628906 217.933594 32.199219 217.792969 C 32.625 217.648438 33.050781 217.933594 33.191406 218.503906 C 33.902344 221.917969 34.617188 225.1875 35.46875 228.457031 C 35.609375 228.886719 35.328125 229.453125 34.898438 229.453125 C 34.898438 229.453125 34.898438 229.453125 34.757812 229.453125 Z M 342.660156 219.214844 C 342.660156 219.214844 342.519531 219.214844 342.519531 219.214844 C 342.089844 219.074219 341.808594 218.644531 341.808594 218.21875 C 342.519531 214.804688 343.085938 211.394531 343.511719 208.121094 C 343.511719 207.695312 343.941406 207.269531 344.507812 207.410156 C 344.9375 207.410156 345.363281 207.835938 345.21875 208.40625 C 344.792969 211.820312 344.222656 215.234375 343.511719 218.644531 C 343.371094 218.929688 343.085938 219.214844 342.660156 219.214844 Z M 30.777344 209.257812 C 30.347656 209.257812 29.921875 208.976562 29.921875 208.546875 C 29.496094 205.136719 29.070312 201.578125 28.925781 198.167969 C 28.925781 197.738281 29.210938 197.3125 29.78125 197.3125 C 30.207031 197.3125 30.632812 197.597656 30.632812 198.167969 C 30.917969 201.578125 31.203125 204.992188 31.628906 208.40625 C 31.628906 208.691406 31.34375 209.117188 30.777344 209.257812 C 30.917969 209.257812 30.777344 209.257812 30.777344 209.257812 Z M 345.363281 198.734375 C 344.792969 198.734375 344.507812 198.308594 344.507812 197.882812 C 344.792969 194.46875 344.792969 191.054688 344.792969 187.640625 L 344.792969 187.214844 C 344.792969 186.789062 345.21875 186.363281 345.648438 186.363281 C 346.074219 186.363281 346.5 186.789062 346.5 187.214844 L 346.5 187.640625 C 346.5 191.054688 346.359375 194.609375 346.214844 198.023438 C 346.214844 198.308594 345.789062 198.734375 345.363281 198.734375 Z M 29.351562 188.636719 C 28.925781 188.636719 28.5 188.210938 28.5 187.785156 L 28.5 187.640625 C 28.5 184.230469 28.640625 180.816406 28.785156 177.402344 C 28.785156 176.976562 29.210938 176.550781 29.636719 176.550781 C 30.0625 176.550781 30.492188 176.976562 30.492188 177.402344 C 30.347656 180.671875 30.207031 184.085938 30.207031 187.5 L 30.207031 187.640625 C 30.207031 188.210938 29.921875 188.636719 29.351562 188.636719 Z M 345.363281 177.6875 C 344.9375 177.6875 344.507812 177.402344 344.507812 176.832031 C 344.222656 173.421875 343.941406 170.007812 343.511719 166.59375 C 343.511719 166.167969 343.796875 165.742188 344.222656 165.597656 C 344.652344 165.597656 345.078125 165.882812 345.21875 166.308594 C 345.648438 169.722656 346.074219 173.277344 346.214844 176.691406 C 346.214844 177.117188 345.789062 177.542969 345.363281 177.6875 Z M 30.777344 168.015625 C 30.632812 168.015625 30.632812 168.015625 30.777344 168.015625 C 30.207031 168.015625 29.921875 167.589844 29.921875 167.019531 C 30.347656 163.605469 30.917969 160.195312 31.628906 156.78125 C 31.769531 156.355469 32.199219 156.070312 32.625 156.070312 C 33.050781 156.210938 33.335938 156.636719 33.335938 157.066406 C 32.625 160.480469 32.054688 163.890625 31.628906 167.164062 C 31.488281 167.589844 31.203125 168.015625 30.777344 168.015625 Z M 342.519531 157.066406 C 342.089844 157.066406 341.808594 156.78125 341.664062 156.355469 C 340.953125 152.941406 340.242188 149.671875 339.246094 146.398438 C 339.105469 145.972656 339.390625 145.402344 339.816406 145.402344 C 340.242188 145.261719 340.8125 145.546875 340.8125 145.972656 C 341.664062 149.242188 342.519531 152.65625 343.230469 156.070312 C 343.371094 156.496094 343.085938 156.921875 342.519531 157.066406 C 342.660156 157.066406 342.660156 157.066406 342.519531 157.066406 Z M 34.757812 147.679688 C 34.617188 147.679688 34.617188 147.679688 34.472656 147.679688 C 34.046875 147.535156 33.761719 147.109375 33.902344 146.542969 C 34.757812 143.269531 35.753906 139.855469 36.890625 136.585938 C 37.03125 136.160156 37.460938 135.875 38.027344 136.160156 C 38.457031 136.300781 38.738281 136.726562 38.597656 137.296875 C 37.460938 140.566406 36.464844 143.839844 35.609375 147.109375 C 35.46875 147.394531 35.042969 147.679688 34.757812 147.679688 Z M 337.253906 137.15625 C 336.828125 137.15625 336.542969 136.871094 336.402344 136.585938 C 335.265625 133.316406 334.128906 130.1875 332.703125 126.914062 C 332.5625 126.488281 332.703125 125.917969 333.132812 125.777344 C 333.558594 125.636719 334.128906 125.777344 334.269531 126.203125 C 335.550781 129.332031 336.828125 132.605469 337.96875 135.875 C 338.109375 136.300781 337.824219 136.871094 337.398438 137.011719 C 337.398438 137.15625 337.253906 137.15625 337.253906 137.15625 Z M 41.300781 128.054688 C 41.15625 128.054688 41.015625 128.054688 41.015625 128.054688 C 40.589844 127.910156 40.304688 127.339844 40.589844 126.914062 C 41.867188 123.785156 43.289062 120.515625 44.855469 117.386719 C 44.996094 116.960938 45.566406 116.816406 45.992188 116.960938 C 46.417969 117.101562 46.5625 117.671875 46.417969 118.097656 C 44.855469 121.226562 43.433594 124.355469 42.152344 127.484375 C 42.011719 127.910156 41.726562 128.054688 41.300781 128.054688 Z M 329.292969 118.097656 C 329.007812 118.097656 328.722656 117.957031 328.582031 117.671875 C 327.015625 114.683594 325.453125 111.554688 323.746094 108.570312 C 323.460938 108.140625 323.601562 107.574219 324.03125 107.429688 C 324.457031 107.148438 325.023438 107.289062 325.167969 107.714844 C 326.875 110.703125 328.582031 113.832031 330.144531 116.816406 C 330.289062 117.246094 330.144531 117.8125 329.71875 117.957031 C 329.433594 118.097656 329.433594 118.097656 329.292969 118.097656 Z M 50.402344 109.421875 C 50.257812 109.421875 50.117188 109.421875 49.976562 109.28125 C 49.546875 108.996094 49.40625 108.570312 49.691406 108.140625 C 51.398438 105.15625 53.246094 102.167969 55.238281 99.324219 C 55.519531 98.898438 56.089844 98.753906 56.375 99.039062 C 56.800781 99.324219 56.945312 99.894531 56.660156 100.179688 C 54.808594 103.023438 52.960938 106.007812 51.253906 108.996094 C 51.113281 109.28125 50.828125 109.421875 50.402344 109.421875 Z M 318.910156 100.179688 C 318.625 100.179688 318.339844 100.035156 318.199219 99.75 C 316.351562 96.90625 314.214844 94.0625 312.226562 91.359375 C 311.941406 90.933594 311.941406 90.507812 312.367188 90.222656 C 312.792969 89.9375 313.222656 89.9375 313.503906 90.363281 C 315.636719 93.066406 317.628906 95.910156 319.621094 98.753906 C 319.90625 99.183594 319.761719 99.75 319.335938 99.894531 C 319.195312 100.179688 319.050781 100.179688 318.910156 100.179688 Z M 61.921875 92.214844 C 61.777344 92.214844 61.496094 92.214844 61.351562 92.070312 C 60.925781 91.789062 60.925781 91.21875 61.210938 90.933594 C 63.34375 88.230469 65.476562 85.53125 67.753906 82.828125 C 68.035156 82.402344 68.605469 82.402344 69.03125 82.683594 C 69.457031 82.96875 69.457031 83.539062 69.175781 83.964844 C 66.898438 86.523438 64.765625 89.226562 62.632812 91.929688 C 62.488281 92.214844 62.207031 92.214844 61.921875 92.214844 Z M 306.253906 83.824219 C 305.96875 83.824219 305.824219 83.679688 305.542969 83.539062 C 303.265625 80.980469 300.847656 78.417969 298.429688 76 C 298.144531 75.714844 298.144531 75.148438 298.429688 74.722656 C 298.714844 74.4375 299.285156 74.4375 299.710938 74.722656 C 302.128906 77.136719 304.546875 79.699219 306.820312 82.257812 C 307.105469 82.542969 307.105469 83.113281 306.679688 83.539062 C 306.679688 83.824219 306.394531 83.824219 306.253906 83.824219 Z M 75.574219 76.710938 C 75.289062 76.710938 75.148438 76.570312 75.003906 76.425781 C 74.722656 76.144531 74.722656 75.574219 75.003906 75.148438 C 77.421875 72.730469 79.984375 70.3125 82.542969 68.035156 C 82.96875 67.753906 83.394531 67.753906 83.824219 68.179688 C 84.105469 68.464844 84.105469 69.03125 83.679688 69.457031 C 81.121094 71.734375 78.5625 74.152344 76.144531 76.570312 C 76 76.570312 75.859375 76.710938 75.574219 76.710938 Z M 291.605469 69.316406 C 291.460938 69.316406 291.175781 69.316406 291.035156 69.175781 C 288.476562 66.898438 285.773438 64.765625 283.070312 62.632812 C 282.644531 62.347656 282.644531 61.777344 282.929688 61.496094 C 283.210938 61.066406 283.78125 61.066406 284.066406 61.351562 C 286.769531 63.484375 289.46875 65.617188 292.171875 67.894531 C 292.597656 68.179688 292.597656 68.746094 292.316406 69.175781 C 292.03125 69.175781 291.746094 69.316406 291.605469 69.316406 Z M 91.074219 63.058594 C 90.792969 63.058594 90.507812 62.917969 90.363281 62.773438 C 90.082031 62.347656 90.082031 61.921875 90.507812 61.636719 C 93.210938 59.503906 96.054688 57.511719 98.898438 55.519531 C 99.324219 55.238281 99.894531 55.378906 100.035156 55.804688 C 100.320312 56.234375 100.179688 56.800781 99.75 56.945312 C 96.90625 58.792969 94.0625 60.925781 91.359375 62.917969 C 91.503906 63.058594 91.21875 63.058594 91.074219 63.058594 Z M 275.105469 56.660156 C 274.964844 56.660156 274.820312 56.660156 274.679688 56.515625 C 271.835938 54.667969 268.847656 52.820312 265.863281 51.113281 C 265.4375 50.828125 265.292969 50.402344 265.578125 49.976562 C 265.863281 49.546875 266.289062 49.40625 266.714844 49.691406 C 269.703125 51.398438 272.6875 53.246094 275.53125 55.238281 C 275.960938 55.519531 276.101562 56.089844 275.816406 56.375 C 275.675781 56.515625 275.390625 56.660156 275.105469 56.660156 Z M 108.285156 51.539062 C 108 51.539062 107.714844 51.398438 107.574219 51.113281 C 107.289062 50.6875 107.429688 50.117188 107.859375 49.976562 C 110.84375 48.269531 113.972656 46.5625 116.960938 44.996094 C 117.386719 44.855469 117.957031 44.996094 118.097656 45.425781 C 118.238281 45.851562 118.097656 46.417969 117.671875 46.5625 C 114.542969 48.125 111.554688 49.691406 108.570312 51.398438 C 108.570312 51.539062 108.425781 51.539062 108.285156 51.539062 Z M 257.1875 46.417969 C 257.042969 46.417969 256.902344 46.417969 256.761719 46.277344 C 253.632812 44.710938 250.503906 43.289062 247.375 42.011719 C 246.945312 41.867188 246.664062 41.300781 246.945312 40.871094 C 247.089844 40.445312 247.660156 40.160156 248.085938 40.445312 C 251.214844 41.726562 254.484375 43.148438 257.613281 44.710938 C 258.039062 44.855469 258.183594 45.425781 258.039062 45.851562 C 257.898438 46.136719 257.472656 46.417969 257.1875 46.417969 Z M 126.773438 42.296875 C 126.488281 42.296875 126.0625 42.152344 125.917969 41.726562 C 125.777344 41.300781 125.917969 40.730469 126.347656 40.589844 C 129.476562 39.308594 132.746094 38.027344 136.015625 36.890625 C 136.445312 36.75 137.011719 37.03125 137.15625 37.460938 C 137.296875 37.886719 137.011719 38.457031 136.585938 38.597656 C 133.316406 39.734375 130.1875 40.871094 126.914062 42.296875 C 127.058594 42.296875 126.914062 42.296875 126.773438 42.296875 Z M 238.128906 38.457031 C 237.988281 38.457031 237.988281 38.457031 237.84375 38.457031 C 234.574219 37.316406 231.304688 36.320312 228.03125 35.46875 C 227.605469 35.328125 227.320312 34.898438 227.464844 34.472656 C 227.605469 34.046875 228.03125 33.761719 228.457031 33.902344 C 231.730469 34.757812 235.144531 35.753906 238.414062 36.890625 C 238.839844 37.03125 239.125 37.460938 238.984375 38.027344 C 238.699219 38.3125 238.414062 38.457031 238.128906 38.457031 Z M 146.257812 35.609375 C 145.828125 35.609375 145.546875 35.328125 145.402344 35.042969 C 145.261719 34.617188 145.546875 34.046875 145.972656 34.046875 C 149.242188 33.191406 152.65625 32.339844 156.070312 31.628906 C 156.496094 31.488281 156.921875 31.769531 157.066406 32.339844 C 157.207031 32.765625 156.921875 33.191406 156.355469 33.335938 C 152.941406 34.046875 149.671875 34.757812 146.398438 35.753906 C 146.542969 35.609375 146.398438 35.609375 146.257812 35.609375 Z M 218.078125 33.191406 C 218.078125 33.191406 217.933594 33.191406 217.933594 33.191406 C 214.519531 32.480469 211.109375 32.054688 207.835938 31.488281 C 207.410156 31.488281 206.984375 31.058594 207.125 30.492188 C 207.125 30.0625 207.554688 29.636719 208.121094 29.78125 C 211.535156 30.207031 214.949219 30.777344 218.363281 31.488281 C 218.789062 31.628906 219.074219 32.054688 219.074219 32.480469 C 218.789062 32.910156 218.503906 33.191406 218.078125 33.191406 Z M 166.59375 31.628906 C 166.167969 31.628906 165.742188 31.34375 165.742188 30.917969 C 165.742188 30.492188 166.023438 30.0625 166.453125 29.921875 C 169.863281 29.496094 173.421875 29.070312 176.832031 28.925781 C 177.261719 28.925781 177.6875 29.210938 177.6875 29.78125 C 177.6875 30.207031 177.402344 30.632812 176.832031 30.632812 C 173.5625 30.777344 170.148438 31.203125 166.59375 31.628906 C 166.734375 31.628906 166.59375 31.628906 166.59375 31.628906 Z M 197.597656 30.492188 C 194.183594 30.347656 190.914062 30.207031 187.5 30.207031 L 187.214844 30.207031 C 186.789062 30.207031 186.363281 29.78125 186.363281 29.351562 C 186.363281 28.925781 186.789062 28.5 187.214844 28.5 L 187.5 28.5 C 190.914062 28.5 194.328125 28.640625 197.597656 28.785156 C 198.023438 28.785156 198.449219 29.210938 198.449219 29.636719 C 198.449219 30.207031 198.023438 30.492188 197.597656 30.492188 Z M 197.597656 30.492188 " fill-opacity="1" fill-rule="nonzero"/></g><path fill="#000000" d="M 190.703125 196.792969 C 208.175781 196.792969 222.332031 182.636719 222.332031 165.171875 C 222.332031 147.707031 208.175781 133.550781 190.703125 133.550781 C 173.234375 133.550781 159.070312 147.707031 159.070312 165.171875 C 159.070312 182.636719 173.234375 196.792969 190.703125 196.792969 Z M 210.433594 177.300781 C 206.34375 183.921875 199.039062 188.359375 190.703125 188.359375 C 182.363281 188.359375 175.0625 183.921875 170.972656 177.300781 Z M 210.433594 177.300781 " fill-opacity="1" fill-rule="nonzero"/><g clip-path="url(#518ec3111c)"><path fill="#000000" d="M 280.855469 116.191406 C 277.046875 113.847656 269.761719 111.054688 259.570312 114.445312 C 259.472656 114.464844 259.378906 114.46875 259.28125 114.496094 C 258.691406 114.65625 244.722656 118.59375 235.199219 132.371094 C 234.097656 133.964844 234.5 136.15625 236.09375 137.257812 C 236.707031 137.679688 237.402344 137.882812 238.089844 137.878906 C 239.203125 137.878906 240.300781 137.351562 240.984375 136.363281 C 244.140625 131.796875 247.910156 128.507812 251.335938 126.179688 C 253.777344 132.421875 259.609375 139.496094 263.007812 137.5 C 266.644531 135.363281 268.714844 135.25 269.148438 135.382812 C 269.476562 135.695312 271.082031 138.6875 270.132812 145.433594 C 267.796875 162.027344 252.292969 187.003906 216.539062 204.800781 L 164.867188 204.800781 C 129.109375 187.003906 113.605469 162.027344 111.273438 145.433594 C 110.324219 138.6875 111.929688 135.695312 112.253906 135.382812 C 112.691406 135.25 114.757812 135.359375 118.394531 137.5 C 121.800781 139.5 127.640625 132.40625 130.074219 126.160156 C 133.488281 128.484375 137.25 131.777344 140.417969 136.363281 C 141.101562 137.351562 142.199219 137.878906 143.3125 137.878906 C 144.003906 137.878906 144.699219 137.679688 145.308594 137.257812 C 146.90625 136.15625 147.304688 133.964844 146.203125 132.371094 C 136.679688 118.589844 122.714844 114.65625 122.125 114.492188 C 122.027344 114.464844 121.929688 114.460938 121.832031 114.445312 C 111.640625 111.054688 104.359375 113.847656 100.550781 116.191406 C 92.113281 121.382812 87.753906 131.738281 88.589844 144.605469 C 90.0625 167.296875 107.878906 200.808594 152.679688 223.84375 L 152.679688 300.828125 L 140.691406 447.8125 C 139.910156 457.378906 147.035156 465.761719 156.601562 466.542969 C 166.167969 467.320312 174.558594 460.203125 175.335938 450.636719 L 185.78125 322.632812 L 195.625 322.632812 L 206.070312 450.636719 C 206.847656 460.203125 215.238281 467.320312 224.804688 466.542969 C 234.371094 465.761719 241.496094 457.378906 240.714844 447.8125 L 228.722656 300.828125 L 228.722656 223.84375 C 273.53125 200.808594 291.34375 167.300781 292.816406 144.605469 C 293.652344 131.742188 289.292969 121.382812 280.855469 116.191406 Z M 280.855469 116.191406 " fill-opacity="1" fill-rule="nonzero"/></g><g clip-path="url(#717d07835d)"><path fill="#ffffff" d="M 159.75 0 L 221.851562 0 L 221.851562 83.699219 L 159.75 83.699219 Z M 159.75 0 " fill-opacity="1" fill-rule="nonzero"/></g><g clip-path="url(#5829c21296)"><path fill="#ffffff" d="M 153.148438 291.40625 L 215.25 291.40625 L 215.25 375.105469 L 153.148438 375.105469 Z M 153.148438 291.40625 " fill-opacity="1" fill-rule="nonzero"/></g><g clip-path="url(#0965cf41e7)"><path fill="#ffffff" d="M 19.351562 63.941406 L 104.851562 63.941406 L 104.851562 115.84375 L 19.351562 115.84375 Z M 19.351562 63.941406 " fill-opacity="1" fill-rule="nonzero"/></g><g clip-path="url(#39d40f1025)"><path fill="#ffffff" d="M 285.449219 74.144531 L 370.949219 74.144531 L 370.949219 121.84375 L 285.449219 121.84375 Z M 285.449219 74.144531 " fill-opacity="1" fill-rule="nonzero"/></g><g clip-path="url(#b078038f53)"><path fill="#ffffff" d="M 278.25 259.15625 L 363.75 259.15625 L 363.75 311.058594 L 278.25 311.058594 Z M 278.25 259.15625 " fill-opacity="1" fill-rule="nonzero"/></g><g clip-path="url(#6ff861e99b)"><path fill="#ffffff" d="M 19.351562 254.355469 L 104.851562 254.355469 L 104.851562 306.257812 L 19.351562 306.257812 Z M 19.351562 254.355469 " fill-opacity="1" fill-rule="nonzero"/></g><g clip-path="url(#46d6a4f0ae)"><path fill="#000000" d="M 192.570312 55.226562 L 191.929688 54.792969 C 191.855469 54.742188 184.503906 49.722656 177.261719 42.78125 C 172.992188 38.679688 169.574219 34.71875 167.113281 31 C 163.984375 26.246094 162.394531 21.839844 162.394531 17.929688 C 162.394531 9.019531 169.648438 1.765625 178.554688 1.765625 C 181.863281 1.765625 185.0625 2.78125 187.789062 4.710938 C 189.769531 6.113281 191.386719 7.898438 192.570312 9.949219 C 193.75 7.886719 195.367188 6.101562 197.347656 4.710938 C 200.078125 2.78125 203.273438 1.765625 206.582031 1.765625 C 215.492188 1.765625 222.746094 9.019531 222.746094 17.929688 L 222.746094 17.941406 C 222.707031 21.828125 221.101562 26.195312 217.964844 30.941406 C 215.503906 34.660156 212.097656 38.617188 207.824219 42.734375 C 200.59375 49.699219 193.28125 54.742188 193.207031 54.792969 Z M 178.554688 4.023438 C 170.890625 4.023438 164.648438 10.265625 164.648438 17.929688 C 164.648438 21.394531 166.109375 25.363281 168.996094 29.734375 C 171.347656 33.304688 174.65625 37.144531 178.808594 41.128906 C 184.6875 46.765625 190.648438 51.121094 192.570312 52.472656 C 194.488281 51.109375 200.414062 46.730469 206.28125 41.078125 C 210.421875 37.085938 213.714844 33.257812 216.082031 29.683594 C 218.964844 25.316406 220.449219 21.367188 220.476562 17.929688 C 220.476562 10.265625 214.234375 4.035156 206.570312 4.035156 C 200.886719 4.035156 195.683594 7.632812 193.605469 12.992188 L 192.558594 15.71875 L 191.519531 12.992188 C 189.441406 7.632812 184.238281 4.023438 178.554688 4.023438 Z M 178.554688 4.023438 " fill-opacity="1" fill-rule="nonzero"/></g><g clip-path="url(#0eee76a801)"><path fill="#000000" d="M 342.222656 81.59375 C 342.222656 81.589844 342.222656 81.585938 342.21875 81.578125 C 342.027344 81.03125 341.617188 80.578125 341.097656 80.332031 L 331.644531 75.917969 C 331.613281 75.902344 331.578125 75.890625 331.546875 75.878906 C 329.503906 75.179688 327.398438 74.617188 325.289062 74.210938 C 325.152344 74.183594 325.015625 74.171875 324.875 74.171875 C 324.5625 74.171875 324.257812 74.242188 323.984375 74.371094 C 323.976562 74.375 323.964844 74.375 323.953125 74.378906 C 321.875 74.957031 319.242188 75.277344 316.539062 75.277344 C 313.835938 75.277344 311.199219 74.957031 309.121094 74.378906 C 309.117188 74.375 309.113281 74.375 309.109375 74.375 C 308.832031 74.242188 308.523438 74.171875 308.199219 74.171875 C 308.0625 74.171875 307.921875 74.183594 307.792969 74.210938 C 305.679688 74.617188 303.574219 75.175781 301.527344 75.878906 C 301.492188 75.890625 301.460938 75.902344 301.425781 75.917969 L 291.980469 80.332031 C 291.449219 80.578125 291.039062 81.039062 290.855469 81.589844 C 290.660156 82.15625 290.703125 82.757812 290.96875 83.277344 L 295.066406 91.464844 C 295.429688 92.203125 296.164062 92.660156 296.976562 92.660156 C 297.183594 92.660156 297.390625 92.628906 297.585938 92.566406 L 300.835938 91.59375 L 300.835938 117.699219 C 300.835938 118.894531 301.796875 119.863281 302.976562 119.863281 L 330.101562 119.863281 C 331.28125 119.863281 332.238281 118.894531 332.238281 117.699219 L 332.238281 91.59375 L 335.484375 92.566406 C 335.6875 92.628906 335.890625 92.660156 336.101562 92.660156 C 336.910156 92.660156 337.640625 92.203125 338.003906 91.472656 L 342.109375 83.277344 C 342.371094 82.753906 342.414062 82.152344 342.222656 81.59375 Z M 322.5 76.824219 C 321.542969 79.289062 319.214844 80.933594 316.539062 80.933594 C 313.859375 80.933594 311.53125 79.285156 310.574219 76.824219 C 312.398438 77.164062 314.421875 77.339844 316.539062 77.339844 C 318.652344 77.339844 320.679688 77.164062 322.5 76.824219 Z M 340.289062 82.34375 L 336.1875 90.539062 C 336.164062 90.578125 336.128906 90.59375 336.101562 90.59375 C 336.089844 90.59375 336.082031 90.59375 336.066406 90.589844 L 331.507812 89.222656 C 331.199219 89.128906 330.867188 89.191406 330.609375 89.386719 C 330.351562 89.578125 330.199219 89.886719 330.199219 90.210938 L 330.199219 117.699219 C 330.199219 117.753906 330.152344 117.800781 330.101562 117.800781 L 302.976562 117.800781 C 302.921875 117.800781 302.875 117.753906 302.875 117.699219 L 302.875 90.210938 C 302.875 89.886719 302.722656 89.578125 302.464844 89.382812 C 302.285156 89.25 302.070312 89.179688 301.855469 89.179688 C 301.757812 89.179688 301.660156 89.195312 301.566406 89.222656 L 297.003906 90.589844 C 296.996094 90.59375 296.984375 90.59375 296.976562 90.59375 C 296.949219 90.59375 296.910156 90.582031 296.890625 90.539062 L 292.785156 82.335938 C 292.78125 82.328125 292.769531 82.304688 292.785156 82.257812 C 292.792969 82.238281 292.8125 82.21875 292.835938 82.207031 L 302.230469 77.816406 C 304.171875 77.152344 306.171875 76.621094 308.179688 76.238281 C 308.222656 76.226562 308.273438 76.246094 308.289062 76.3125 C 308.710938 78.183594 309.75 79.878906 311.214844 81.085938 C 312.710938 82.320312 314.601562 83 316.539062 83 C 318.472656 83 320.363281 82.320312 321.859375 81.085938 C 323.328125 79.878906 324.367188 78.183594 324.789062 76.304688 C 324.796875 76.257812 324.839844 76.234375 324.875 76.234375 C 324.882812 76.234375 324.890625 76.234375 324.902344 76.238281 C 326.90625 76.625 328.902344 77.152344 330.839844 77.816406 L 340.238281 82.207031 C 340.265625 82.21875 340.285156 82.238281 340.296875 82.265625 C 340.304688 82.296875 340.300781 82.320312 340.289062 82.34375 Z M 340.289062 82.34375 " fill-opacity="1" fill-rule="nonzero"/></g><g clip-path="url(#458be49594)"><path fill="#100f0d" d="M 315.453125 311.847656 L 325.914062 311.847656 C 325.742188 306.835938 324.550781 275.253906 321.523438 261.199219 C 321.441406 260.816406 321.074219 260.566406 320.6875 260.636719 L 319.960938 260.761719 C 312.695312 262.027344 305.328125 262.027344 298.0625 260.761719 L 297.335938 260.636719 C 296.949219 260.570312 296.582031 260.816406 296.5 261.199219 C 293.472656 275.253906 292.28125 306.835938 292.109375 311.847656 L 302.570312 311.847656 C 303.558594 301.652344 305.949219 284.03125 307.378906 276.441406 C 307.53125 275.632812 308.203125 275.070312 309.011719 275.070312 C 309.820312 275.070312 310.492188 275.632812 310.644531 276.441406 C 312.074219 284.035156 314.464844 301.65625 315.453125 311.847656 Z M 327.246094 313.15625 L 314.28125 313.15625 L 314.226562 312.566406 C 313.296875 302.695312 310.804688 284.253906 309.378906 276.6875 C 309.328125 276.40625 309.105469 276.375 309.011719 276.375 C 308.917969 276.375 308.699219 276.40625 308.644531 276.6875 C 307.21875 284.25 304.726562 302.691406 303.796875 312.566406 L 303.742188 313.15625 L 290.777344 313.15625 L 290.796875 312.484375 C 290.808594 312.121094 291.9375 276.253906 295.242188 260.921875 C 295.46875 259.851562 296.484375 259.164062 297.554688 259.347656 L 298.277344 259.472656 C 305.398438 260.714844 312.621094 260.714844 319.742188 259.472656 L 320.46875 259.347656 C 321.535156 259.164062 322.550781 259.855469 322.78125 260.921875 C 326.085938 276.253906 327.214844 312.121094 327.226562 312.484375 L 327.246094 313.15625 " fill-opacity="1" fill-rule="nonzero"/></g><path fill="#100f0d" d="M 309.011719 266.316406 C 305.660156 266.316406 302.308594 266.046875 298.976562 265.503906 L 295.160156 264.886719 C 294.808594 264.828125 294.570312 264.492188 294.625 264.136719 C 294.683594 263.777344 295.011719 263.535156 295.363281 263.59375 L 299.183594 264.214844 C 305.707031 265.273438 312.316406 265.273438 318.839844 264.214844 L 322.660156 263.59375 C 323.007812 263.535156 323.339844 263.777344 323.398438 264.136719 C 323.453125 264.492188 323.214844 264.828125 322.863281 264.886719 L 319.042969 265.503906 C 315.714844 266.046875 312.363281 266.316406 309.011719 266.316406 " fill-opacity="1" fill-rule="nonzero"/><g clip-path="url(#c98717fe73)"><path fill="#000000" d="M 204.820312 319.90625 L 163.714844 319.90625 C 163.292969 319.90625 162.875 319.949219 162.460938 320.03125 C 162.050781 320.113281 161.648438 320.234375 161.257812 320.394531 C 160.867188 320.554688 160.5 320.75 160.148438 320.984375 C 159.796875 321.214844 159.472656 321.480469 159.175781 321.777344 C 158.875 322.070312 158.609375 322.394531 158.375 322.742188 C 158.140625 323.089844 157.945312 323.457031 157.78125 323.84375 C 157.621094 324.230469 157.5 324.628906 157.417969 325.039062 C 157.332031 325.449219 157.292969 325.863281 157.292969 326.28125 L 157.292969 351.78125 C 157.292969 352.199219 157.332031 352.613281 157.417969 353.027344 C 157.5 353.4375 157.621094 353.835938 157.78125 354.222656 C 157.945312 354.605469 158.140625 354.972656 158.375 355.324219 C 158.609375 355.671875 158.875 355.992188 159.175781 356.289062 C 159.472656 356.585938 159.796875 356.847656 160.148438 357.082031 C 160.5 357.3125 160.867188 357.511719 161.257812 357.671875 C 161.648438 357.832031 162.050781 357.953125 162.460938 358.035156 C 162.875 358.117188 163.292969 358.15625 163.714844 358.15625 L 204.820312 358.15625 C 205.242188 358.15625 205.660156 358.117188 206.074219 358.035156 C 206.488281 357.953125 206.890625 357.832031 207.277344 357.671875 C 207.667969 357.511719 208.039062 357.3125 208.390625 357.082031 C 208.738281 356.847656 209.0625 356.585938 209.363281 356.289062 C 209.660156 355.992188 209.925781 355.671875 210.160156 355.324219 C 210.394531 354.972656 210.59375 354.605469 210.753906 354.222656 C 210.917969 353.835938 211.039062 353.4375 211.121094 353.027344 C 211.203125 352.613281 211.246094 352.199219 211.246094 351.78125 L 211.246094 326.28125 C 211.246094 325.863281 211.203125 325.449219 211.121094 325.039062 C 211.039062 324.628906 210.917969 324.230469 210.753906 323.84375 C 210.59375 323.457031 210.394531 323.089844 210.160156 322.742188 C 209.925781 322.394531 209.660156 322.070312 209.363281 321.777344 C 209.0625 321.480469 208.738281 321.214844 208.390625 320.984375 C 208.039062 320.75 207.667969 320.554688 207.277344 320.394531 C 206.890625 320.234375 206.488281 320.113281 206.074219 320.03125 C 205.660156 319.949219 205.242188 319.90625 204.820312 319.90625 Z M 208.675781 351.78125 C 208.675781 352.289062 208.578125 352.777344 208.382812 353.246094 C 208.1875 353.714844 207.90625 354.128906 207.546875 354.484375 C 207.183594 354.84375 206.769531 355.121094 206.296875 355.316406 C 205.824219 355.507812 205.332031 355.605469 204.820312 355.605469 L 163.714844 355.605469 C 163.203125 355.605469 162.710938 355.507812 162.242188 355.316406 C 161.769531 355.121094 161.351562 354.84375 160.992188 354.484375 C 160.628906 354.128906 160.351562 353.714844 160.15625 353.246094 C 159.960938 352.777344 159.863281 352.289062 159.859375 351.78125 L 159.859375 326.28125 C 159.863281 325.773438 159.960938 325.289062 160.15625 324.820312 C 160.351562 324.351562 160.628906 323.9375 160.992188 323.578125 C 161.351562 323.21875 161.769531 322.945312 162.242188 322.75 C 162.710938 322.554688 163.203125 322.457031 163.714844 322.457031 L 204.820312 322.457031 C 205.332031 322.457031 205.824219 322.554688 206.296875 322.75 C 206.769531 322.945312 207.183594 323.21875 207.546875 323.578125 C 207.90625 323.9375 208.1875 324.351562 208.382812 324.820312 C 208.578125 325.289062 208.675781 325.773438 208.675781 326.28125 Z M 173.992188 340.308594 C 174.414062 340.308594 174.832031 340.265625 175.246094 340.183594 C 175.660156 340.101562 176.058594 339.980469 176.449219 339.820312 C 176.839844 339.660156 177.210938 339.464844 177.558594 339.234375 C 177.910156 339 178.234375 338.734375 178.535156 338.441406 C 178.832031 338.144531 179.097656 337.820312 179.332031 337.472656 C 179.566406 337.125 179.765625 336.757812 179.925781 336.371094 C 180.085938 335.984375 180.210938 335.585938 180.292969 335.175781 C 180.375 334.765625 180.414062 334.351562 180.414062 333.933594 C 180.414062 333.511719 180.375 333.097656 180.292969 332.6875 C 180.210938 332.277344 180.085938 331.878906 179.925781 331.492188 C 179.765625 331.105469 179.566406 330.738281 179.332031 330.390625 C 179.097656 330.042969 178.832031 329.71875 178.535156 329.425781 C 178.234375 329.128906 177.910156 328.863281 177.558594 328.632812 C 177.210938 328.398438 176.839844 328.203125 176.449219 328.042969 C 176.058594 327.882812 175.660156 327.761719 175.246094 327.679688 C 174.832031 327.597656 174.414062 327.558594 173.992188 327.558594 C 173.570312 327.558594 173.152344 327.597656 172.738281 327.679688 C 172.324219 327.761719 171.921875 327.882812 171.535156 328.042969 C 171.144531 328.203125 170.773438 328.398438 170.421875 328.632812 C 170.074219 328.863281 169.75 329.128906 169.449219 329.425781 C 169.152344 329.71875 168.886719 330.042969 168.652344 330.390625 C 168.417969 330.738281 168.21875 331.105469 168.058594 331.492188 C 167.894531 331.878906 167.773438 332.277344 167.691406 332.6875 C 167.609375 333.097656 167.570312 333.511719 167.570312 333.933594 C 167.570312 334.351562 167.609375 334.765625 167.691406 335.175781 C 167.777344 335.585938 167.898438 335.984375 168.058594 336.371094 C 168.222656 336.757812 168.417969 337.125 168.652344 337.472656 C 168.886719 337.820312 169.152344 338.140625 169.453125 338.4375 C 169.75 338.734375 170.074219 339 170.425781 339.230469 C 170.773438 339.464844 171.144531 339.660156 171.535156 339.820312 C 171.925781 339.980469 172.324219 340.101562 172.738281 340.183594 C 173.152344 340.265625 173.570312 340.308594 173.992188 340.308594 Z M 173.992188 330.105469 C 174.503906 330.105469 174.996094 330.203125 175.464844 330.398438 C 175.9375 330.59375 176.355469 330.867188 176.71875 331.226562 C 177.078125 331.585938 177.355469 332 177.550781 332.46875 C 177.746094 332.9375 177.84375 333.425781 177.84375 333.933594 C 177.84375 334.4375 177.746094 334.925781 177.550781 335.394531 C 177.355469 335.863281 177.078125 336.277344 176.71875 336.636719 C 176.355469 336.996094 175.9375 337.273438 175.464844 337.464844 C 174.996094 337.660156 174.503906 337.757812 173.992188 337.757812 C 173.480469 337.757812 172.988281 337.660156 172.515625 337.464844 C 172.042969 337.273438 171.628906 336.996094 171.265625 336.636719 C 170.90625 336.277344 170.628906 335.863281 170.429688 335.394531 C 170.234375 334.925781 170.136719 334.4375 170.136719 333.933594 C 170.136719 333.425781 170.238281 332.9375 170.433594 332.46875 C 170.628906 332 170.90625 331.585938 171.269531 331.230469 C 171.628906 330.871094 172.046875 330.59375 172.519531 330.398438 C 172.988281 330.207031 173.480469 330.109375 173.992188 330.105469 Z M 182.984375 349.230469 C 182.984375 349.402344 182.953125 349.5625 182.886719 349.71875 C 182.820312 349.875 182.726562 350.015625 182.609375 350.132812 C 182.488281 350.253906 182.347656 350.34375 182.191406 350.410156 C 182.035156 350.476562 181.871094 350.507812 181.699219 350.507812 C 181.527344 350.507812 181.363281 350.476562 181.207031 350.410156 C 181.050781 350.34375 180.910156 350.253906 180.792969 350.132812 C 180.671875 350.015625 180.578125 349.875 180.511719 349.71875 C 180.449219 349.5625 180.414062 349.402344 180.414062 349.230469 C 180.414062 348.726562 180.316406 348.238281 180.121094 347.769531 C 179.925781 347.300781 179.644531 346.886719 179.285156 346.527344 C 178.921875 346.171875 178.507812 345.894531 178.035156 345.699219 C 177.5625 345.503906 177.070312 345.40625 176.5625 345.40625 L 171.421875 345.40625 C 170.910156 345.40625 170.421875 345.503906 169.949219 345.699219 C 169.476562 345.894531 169.058594 346.171875 168.699219 346.527344 C 168.335938 346.886719 168.058594 347.300781 167.863281 347.769531 C 167.667969 348.238281 167.570312 348.726562 167.570312 349.230469 C 167.570312 349.402344 167.535156 349.5625 167.472656 349.71875 C 167.40625 349.875 167.3125 350.015625 167.191406 350.132812 C 167.070312 350.253906 166.933594 350.34375 166.777344 350.410156 C 166.617188 350.476562 166.453125 350.507812 166.285156 350.507812 C 166.113281 350.507812 165.949219 350.476562 165.792969 350.410156 C 165.636719 350.34375 165.496094 350.253906 165.375 350.132812 C 165.253906 350.015625 165.164062 349.875 165.097656 349.71875 C 165.03125 349.5625 165 349.402344 165 349.230469 C 165 348.8125 165.042969 348.398438 165.125 347.988281 C 165.207031 347.578125 165.328125 347.179688 165.488281 346.792969 C 165.652344 346.40625 165.851562 346.039062 166.082031 345.691406 C 166.316406 345.34375 166.585938 345.023438 166.882812 344.726562 C 167.179688 344.429688 167.503906 344.164062 167.855469 343.933594 C 168.207031 343.699219 168.574219 343.503906 168.964844 343.34375 C 169.355469 343.183594 169.757812 343.0625 170.171875 342.980469 C 170.582031 342.898438 171 342.859375 171.421875 342.855469 L 176.5625 342.855469 C 176.984375 342.859375 177.398438 342.898438 177.8125 342.980469 C 178.226562 343.0625 178.628906 343.183594 179.019531 343.34375 C 179.40625 343.503906 179.777344 343.699219 180.128906 343.933594 C 180.480469 344.164062 180.804688 344.429688 181.101562 344.726562 C 181.398438 345.023438 181.664062 345.34375 181.898438 345.691406 C 182.132812 346.039062 182.332031 346.40625 182.492188 346.792969 C 182.65625 347.179688 182.777344 347.578125 182.859375 347.988281 C 182.941406 348.398438 182.984375 348.8125 182.984375 349.230469 Z M 203.539062 335.207031 C 203.539062 335.375 203.503906 335.539062 203.441406 335.695312 C 203.375 335.851562 203.28125 335.988281 203.160156 336.109375 C 203.039062 336.226562 202.902344 336.320312 202.746094 336.386719 C 202.585938 336.449219 202.421875 336.480469 202.253906 336.480469 L 191.976562 336.480469 C 191.804688 336.480469 191.640625 336.449219 191.484375 336.386719 C 191.328125 336.320312 191.1875 336.226562 191.066406 336.109375 C 190.949219 335.988281 190.855469 335.851562 190.789062 335.695312 C 190.722656 335.539062 190.691406 335.375 190.691406 335.207031 C 190.691406 335.039062 190.722656 334.875 190.789062 334.71875 C 190.855469 334.5625 190.949219 334.425781 191.066406 334.304688 C 191.1875 334.1875 191.328125 334.09375 191.484375 334.027344 C 191.640625 333.964844 191.804688 333.933594 191.976562 333.933594 L 202.253906 333.933594 C 202.421875 333.933594 202.585938 333.964844 202.746094 334.027344 C 202.902344 334.09375 203.039062 334.1875 203.160156 334.304688 C 203.28125 334.425781 203.375 334.5625 203.441406 334.71875 C 203.503906 334.875 203.539062 335.039062 203.539062 335.207031 Z M 198.398438 342.855469 C 198.398438 343.027344 198.367188 343.1875 198.300781 343.34375 C 198.238281 343.5 198.144531 343.640625 198.023438 343.757812 C 197.902344 343.878906 197.765625 343.96875 197.605469 344.035156 C 197.449219 344.101562 197.285156 344.132812 197.113281 344.132812 L 191.976562 344.132812 C 191.804688 344.132812 191.640625 344.101562 191.484375 344.035156 C 191.328125 343.96875 191.1875 343.878906 191.066406 343.757812 C 190.949219 343.640625 190.855469 343.5 190.789062 343.34375 C 190.722656 343.1875 190.691406 343.027344 190.691406 342.855469 C 190.691406 342.6875 190.722656 342.527344 190.789062 342.371094 C 190.855469 342.214844 190.949219 342.074219 191.066406 341.957031 C 191.1875 341.835938 191.328125 341.742188 191.484375 341.679688 C 191.640625 341.613281 191.804688 341.582031 191.976562 341.582031 L 197.113281 341.582031 C 197.285156 341.582031 197.449219 341.613281 197.605469 341.679688 C 197.765625 341.742188 197.902344 341.835938 198.023438 341.957031 C 198.144531 342.074219 198.238281 342.210938 198.300781 342.367188 C 198.367188 342.523438 198.398438 342.6875 198.398438 342.855469 Z M 198.398438 342.855469 " fill-opacity="1" fill-rule="nonzero"/></g><g clip-path="url(#dfbc35c3b7)"><path fill="#42280b" d="M 78.152344 261.292969 L 74.085938 255.679688 L 67.449219 252.417969 L 67.183594 252.949219 L 73.6875 256.144531 L 77.578125 261.523438 L 81.941406 292.238281 L 77.609375 292.292969 L 72.929688 266.773438 L 72.335938 266.839844 L 73.726562 297.121094 L 48.019531 297.121094 L 48.402344 266.828125 L 47.808594 266.773438 L 43.125 292.292969 L 38.796875 292.238281 L 43.253906 261.511719 L 46.402344 256.464844 L 53.773438 252.953125 L 53.515625 252.417969 L 45.984375 256.003906 L 42.679688 261.304688 L 38.109375 292.824219 L 43.625 292.890625 L 47.757812 270.355469 L 47.414062 297.714844 L 74.355469 297.714844 L 73.136719 271.214844 L 77.113281 292.890625 L 82.625 292.824219 L 78.160156 261.367188 L 78.152344 261.292969 " fill-opacity="1" fill-rule="nonzero"/></g><path fill="#42280b" d="M 59.304688 249.019531 C 59.140625 249.019531 59.007812 249.152344 59.007812 249.316406 C 59.007812 249.480469 59.140625 249.613281 59.304688 249.613281 L 65.765625 249.613281 L 66.992188 252.117188 L 64.320312 258.972656 L 61.277344 256.839844 L 65.664062 250.609375 C 65.761719 250.472656 65.726562 250.289062 65.589844 250.195312 C 65.457031 250.101562 65.269531 250.132812 65.175781 250.269531 L 60.445312 256.984375 L 64.601562 259.898438 L 67.644531 252.089844 L 66.140625 249.019531 L 59.304688 249.019531 " fill-opacity="1" fill-rule="nonzero"/><path fill="#42280b" d="M 61.433594 249.019531 L 54.597656 249.019531 L 53.09375 252.089844 L 56.136719 259.898438 L 60.394531 256.882812 L 55.558594 250.261719 C 55.460938 250.132812 55.273438 250.101562 55.140625 250.199219 C 55.007812 250.292969 54.976562 250.480469 55.074219 250.613281 L 59.558594 256.746094 L 56.417969 258.972656 L 53.746094 252.117188 L 54.972656 249.613281 L 61.433594 249.613281 C 61.597656 249.613281 61.730469 249.480469 61.730469 249.316406 C 61.730469 249.152344 61.597656 249.019531 61.433594 249.019531 " fill-opacity="1" fill-rule="nonzero"/><g clip-path="url(#ea67b757ae)"><path fill="#42280b" d="M 60.371094 256.816406 C 60.371094 256.816406 60.367188 256.816406 60.367188 256.816406 C 60.203125 256.816406 60.070312 256.945312 60.070312 257.109375 L 59.765625 297.417969 C 59.761719 297.582031 59.894531 297.714844 60.0625 297.714844 C 60.226562 297.714844 60.363281 297.585938 60.363281 297.421875 L 60.667969 257.113281 C 60.667969 256.949219 60.535156 256.816406 60.371094 256.816406 " fill-opacity="1" fill-rule="nonzero"/></g><g clip-path="url(#5e8df20590)"><path fill="#42280b" d="M 61.871094 257.421875 C 61.757812 257.421875 61.667969 257.511719 61.667969 257.621094 L 61.667969 297.417969 C 61.667969 297.527344 61.757812 297.617188 61.871094 297.617188 C 61.980469 297.617188 62.070312 297.527344 62.070312 297.417969 L 62.070312 257.621094 C 62.070312 257.511719 61.980469 257.421875 61.871094 257.421875 " fill-opacity="1" fill-rule="nonzero"/></g><path fill="#42280b" d="M 61.152344 258.765625 C 61 258.765625 60.875 258.640625 60.875 258.488281 C 60.875 258.335938 61 258.214844 61.152344 258.214844 C 61.308594 258.214844 61.429688 258.335938 61.429688 258.488281 C 61.429688 258.640625 61.308594 258.765625 61.152344 258.765625 Z M 61.152344 258.015625 C 60.890625 258.015625 60.675781 258.226562 60.675781 258.488281 C 60.675781 258.75 60.890625 258.964844 61.152344 258.964844 C 61.417969 258.964844 61.632812 258.75 61.632812 258.488281 C 61.632812 258.226562 61.417969 258.015625 61.152344 258.015625 " fill-opacity="1" fill-rule="nonzero"/><path fill="#42280b" d="M 61.152344 263.433594 C 61 263.433594 60.875 263.308594 60.875 263.15625 C 60.875 263.003906 61 262.878906 61.152344 262.878906 C 61.308594 262.878906 61.429688 263.003906 61.429688 263.15625 C 61.429688 263.308594 61.308594 263.433594 61.152344 263.433594 Z M 61.152344 262.679688 C 60.890625 262.679688 60.675781 262.894531 60.675781 263.15625 C 60.675781 263.417969 60.890625 263.628906 61.152344 263.628906 C 61.417969 263.628906 61.632812 263.417969 61.632812 263.15625 C 61.632812 262.894531 61.417969 262.679688 61.152344 262.679688 " fill-opacity="1" fill-rule="nonzero"/><path fill="#42280b" d="M 61.152344 268.097656 C 61 268.097656 60.875 267.972656 60.875 267.824219 C 60.875 267.671875 61 267.546875 61.152344 267.546875 C 61.308594 267.546875 61.429688 267.671875 61.429688 267.824219 C 61.429688 267.972656 61.308594 268.097656 61.152344 268.097656 Z M 61.152344 267.347656 C 60.890625 267.347656 60.675781 267.5625 60.675781 267.824219 C 60.675781 268.082031 60.890625 268.296875 61.152344 268.296875 C 61.417969 268.296875 61.632812 268.082031 61.632812 267.824219 C 61.632812 267.5625 61.417969 267.347656 61.152344 267.347656 " fill-opacity="1" fill-rule="nonzero"/><path fill="#42280b" d="M 61.152344 272.765625 C 61 272.765625 60.875 272.640625 60.875 272.488281 C 60.875 272.335938 61 272.210938 61.152344 272.210938 C 61.308594 272.210938 61.429688 272.335938 61.429688 272.488281 C 61.429688 272.640625 61.308594 272.765625 61.152344 272.765625 Z M 61.152344 272.015625 C 60.890625 272.015625 60.675781 272.226562 60.675781 272.488281 C 60.675781 272.75 60.890625 272.964844 61.152344 272.964844 C 61.417969 272.964844 61.632812 272.75 61.632812 272.488281 C 61.632812 272.226562 61.417969 272.015625 61.152344 272.015625 " fill-opacity="1" fill-rule="nonzero"/><path fill="#42280b" d="M 61.152344 277.429688 C 61 277.429688 60.875 277.308594 60.875 277.15625 C 60.875 277.003906 61 276.878906 61.152344 276.878906 C 61.308594 276.878906 61.429688 277.003906 61.429688 277.15625 C 61.429688 277.308594 61.308594 277.429688 61.152344 277.429688 Z M 61.152344 276.679688 C 60.890625 276.679688 60.675781 276.894531 60.675781 277.15625 C 60.675781 277.417969 60.890625 277.628906 61.152344 277.628906 C 61.417969 277.628906 61.632812 277.417969 61.632812 277.15625 C 61.632812 276.894531 61.417969 276.679688 61.152344 276.679688 " fill-opacity="1" fill-rule="nonzero"/><path fill="#42280b" d="M 61.152344 282.097656 C 61 282.097656 60.875 281.972656 60.875 281.820312 C 60.875 281.667969 61 281.546875 61.152344 281.546875 C 61.308594 281.546875 61.429688 281.667969 61.429688 281.820312 C 61.429688 281.972656 61.308594 282.097656 61.152344 282.097656 Z M 61.152344 281.347656 C 60.890625 281.347656 60.675781 281.558594 60.675781 281.820312 C 60.675781 282.082031 60.890625 282.296875 61.152344 282.296875 C 61.417969 282.296875 61.632812 282.082031 61.632812 281.820312 C 61.632812 281.558594 61.417969 281.347656 61.152344 281.347656 " fill-opacity="1" fill-rule="nonzero"/><path fill="#42280b" d="M 61.152344 286.765625 C 61 286.765625 60.875 286.640625 60.875 286.488281 C 60.875 286.335938 61 286.210938 61.152344 286.210938 C 61.308594 286.210938 61.429688 286.335938 61.429688 286.488281 C 61.429688 286.640625 61.308594 286.765625 61.152344 286.765625 Z M 61.152344 286.015625 C 60.890625 286.015625 60.675781 286.226562 60.675781 286.488281 C 60.675781 286.75 60.890625 286.960938 61.152344 286.960938 C 61.417969 286.960938 61.632812 286.75 61.632812 286.488281 C 61.632812 286.226562 61.417969 286.015625 61.152344 286.015625 " fill-opacity="1" fill-rule="nonzero"/><path fill="#42280b" d="M 61.152344 292.011719 C 61 292.011719 60.875 291.886719 60.875 291.734375 C 60.875 291.582031 61 291.460938 61.152344 291.460938 C 61.308594 291.460938 61.429688 291.582031 61.429688 291.734375 C 61.429688 291.886719 61.308594 292.011719 61.152344 292.011719 Z M 61.152344 291.261719 C 60.890625 291.261719 60.675781 291.476562 60.675781 291.734375 C 60.675781 291.996094 60.890625 292.210938 61.152344 292.210938 C 61.417969 292.210938 61.632812 291.996094 61.632812 291.734375 C 61.632812 291.476562 61.417969 291.261719 61.152344 291.261719 " fill-opacity="1" fill-rule="nonzero"/><path fill="#42280b" d="M 78.542969 294.4375 C 78.390625 294.4375 78.265625 294.3125 78.265625 294.160156 C 78.265625 294.007812 78.390625 293.882812 78.542969 293.882812 C 78.695312 293.882812 78.820312 294.007812 78.820312 294.160156 C 78.820312 294.3125 78.695312 294.4375 78.542969 294.4375 Z M 78.542969 293.6875 C 78.28125 293.6875 78.066406 293.898438 78.066406 294.160156 C 78.066406 294.421875 78.28125 294.632812 78.542969 294.632812 C 78.808594 294.632812 79.019531 294.421875 79.019531 294.160156 C 79.019531 293.898438 78.808594 293.6875 78.542969 293.6875 " fill-opacity="1" fill-rule="nonzero"/><path fill="#42280b" d="M 78.921875 296.285156 C 78.769531 296.285156 78.644531 296.160156 78.644531 296.007812 C 78.644531 295.855469 78.769531 295.734375 78.921875 295.734375 C 79.074219 295.734375 79.199219 295.855469 79.199219 296.007812 C 79.199219 296.160156 79.074219 296.285156 78.921875 296.285156 Z M 78.921875 295.535156 C 78.65625 295.535156 78.445312 295.75 78.445312 296.007812 C 78.445312 296.269531 78.65625 296.484375 78.921875 296.484375 C 79.183594 296.484375 79.398438 296.269531 79.398438 296.007812 C 79.398438 295.75 79.183594 295.535156 78.921875 295.535156 " fill-opacity="1" fill-rule="nonzero"/><g clip-path="url(#b8ece5c737)"><path fill="#42280b" d="M 81.96875 292.386719 L 82.578125 297.121094 L 78.324219 297.121094 L 77.628906 292.390625 L 77.039062 292.476562 L 77.804688 297.714844 L 83.257812 297.714844 L 82.5625 292.308594 L 81.96875 292.386719 " fill-opacity="1" fill-rule="nonzero"/></g><path fill="#42280b" d="M 42.214844 294.4375 C 42.0625 294.4375 41.9375 294.3125 41.9375 294.160156 C 41.9375 294.007812 42.0625 293.882812 42.214844 293.882812 C 42.371094 293.882812 42.492188 294.007812 42.492188 294.160156 C 42.492188 294.3125 42.371094 294.4375 42.214844 294.4375 Z M 42.214844 293.6875 C 41.953125 293.6875 41.738281 293.898438 41.738281 294.160156 C 41.738281 294.421875 41.953125 294.632812 42.214844 294.632812 C 42.480469 294.632812 42.691406 294.421875 42.691406 294.160156 C 42.691406 293.898438 42.480469 293.6875 42.214844 293.6875 " fill-opacity="1" fill-rule="nonzero"/><path fill="#42280b" d="M 41.839844 296.285156 C 41.683594 296.285156 41.558594 296.160156 41.558594 296.007812 C 41.558594 295.855469 41.683594 295.734375 41.839844 295.734375 C 41.992188 295.734375 42.117188 295.855469 42.117188 296.007812 C 42.117188 296.160156 41.992188 296.285156 41.839844 296.285156 Z M 41.839844 295.535156 C 41.574219 295.535156 41.359375 295.75 41.359375 296.007812 C 41.359375 296.269531 41.574219 296.484375 41.839844 296.484375 C 42.101562 296.484375 42.316406 296.269531 42.316406 296.007812 C 42.316406 295.75 42.101562 295.535156 41.839844 295.535156 " fill-opacity="1" fill-rule="nonzero"/><g clip-path="url(#1be38a8183)"><path fill="#42280b" d="M 42.4375 297.121094 L 38.183594 297.121094 L 38.792969 292.386719 L 38.199219 292.308594 L 37.503906 297.714844 L 42.953125 297.714844 L 43.722656 292.476562 L 43.128906 292.390625 L 42.4375 297.121094 " fill-opacity="1" fill-rule="nonzero"/></g><path fill="#42280b" d="M 45.339844 256.828125 C 45.359375 256.863281 47.445312 260.757812 46.988281 265.363281 L 47.1875 265.382812 C 47.652344 260.714844 45.535156 256.769531 45.515625 256.730469 L 45.339844 256.828125 " fill-opacity="1" fill-rule="nonzero"/><path fill="#42280b" d="M 74.300781 256.050781 C 74.28125 256.089844 72.164062 260.035156 72.628906 264.703125 L 72.828125 264.683594 C 72.371094 260.078125 74.457031 256.183594 74.476562 256.144531 L 74.300781 256.050781 " fill-opacity="1" fill-rule="nonzero"/><g clip-path="url(#6c5e35053c)"><path fill="#010600" d="M 76.910156 57.597656 L 86.988281 62.09375 C 86.316406 66.167969 85.828125 70.289062 86.746094 74.3125 C 87.519531 77.695312 89.261719 80.78125 91.105469 83.757812 L 91.039062 94.207031 L 91.042969 94.207031 L 91.042969 98.484375 L 91.011719 98.484375 L 90.9375 110.09375 L 69.1875 109.523438 L 69.179688 108.402344 L 67.28125 108.402344 L 67.273438 109.523438 L 45.523438 110.09375 L 45.355469 83.757812 C 47.183594 80.8125 48.910156 77.765625 49.695312 74.386719 C 50.632812 70.378906 50.144531 66.179688 49.472656 62.09375 L 59.542969 57.601562 C 59.542969 57.601562 65.28125 58.878906 68.1875 58.917969 C 70.914062 58.953125 76.910156 57.597656 76.910156 57.597656 Z M 89.816406 98.484375 L 70.304688 98.484375 L 70.375 108.363281 L 89.75 108.871094 Z M 66.160156 98.484375 L 46.644531 98.484375 L 46.710938 108.871094 L 66.089844 108.363281 Z M 60.800781 58.882812 L 67.539062 72.101562 L 67.382812 94.207031 L 67.402344 94.207031 L 67.402344 98.484375 L 67.351562 98.484375 L 67.289062 107.210938 L 69.171875 107.210938 L 68.921875 72.101562 L 75.640625 58.921875 C 75.402344 59.003906 75.160156 59.085938 74.917969 59.15625 C 71.195312 60.289062 67.1875 60.371094 63.371094 59.558594 C 62.503906 59.375 61.648438 59.144531 60.800781 58.882812 Z M 70.253906 91.28125 L 70.273438 94.207031 L 89.84375 94.207031 L 89.863281 91.28125 Z M 46.597656 91.28125 L 46.617188 94.207031 L 66.1875 94.207031 L 66.210938 91.28125 Z M 89.890625 87.003906 L 89.910156 84.09375 C 89.875 84.039062 89.84375 83.988281 89.808594 83.933594 C 88.003906 80.984375 86.339844 77.914062 85.574219 74.539062 C 84.707031 70.714844 85.066406 66.710938 85.660156 62.835938 L 85.664062 62.808594 L 76.976562 58.933594 C 74.691406 63.417969 72.402344 67.898438 70.117188 72.382812 L 70.222656 87.003906 Z M 66.238281 87.003906 L 66.34375 72.382812 L 59.484375 58.933594 C 56.589844 60.226562 53.695312 61.519531 50.796875 62.808594 C 51.460938 67.101562 51.8125 71.480469 50.582031 75.71875 C 49.71875 78.691406 48.183594 81.4375 46.554688 84.09375 L 46.570312 87.003906 Z M 66.238281 87.003906 " fill-opacity="1" fill-rule="nonzero"/></g></svg>