<svg xmlns="http://www.w3.org/2000/svg" xmlns:xlink="http://www.w3.org/1999/xlink" width="500" zoomAndPan="magnify" viewBox="0 0 375 374.999991" height="500" preserveAspectRatio="xMidYMid meet" version="1.0"><defs><clipPath id="380ba70d1c"><path d="M 64 36.308594 L 83 36.308594 L 83 44 L 64 44 Z M 64 36.308594 " clip-rule="nonzero"/></clipPath><clipPath id="85aa3d43c8"><path d="M 89 36.308594 L 108 36.308594 L 108 42 L 89 42 Z M 89 36.308594 " clip-rule="nonzero"/></clipPath><clipPath id="8c99f56aa5"><path d="M 218 36.308594 L 237 36.308594 L 237 42 L 218 42 Z M 218 36.308594 " clip-rule="nonzero"/></clipPath><clipPath id="7144e112d3"><path d="M 192 254 L 368 254 L 368 338.558594 L 192 338.558594 Z M 192 254 " clip-rule="nonzero"/></clipPath></defs><path fill="#000000" d="M 26.199219 195.304688 C 26.078125 195.09375 25.925781 194.917969 25.734375 194.769531 C 25.542969 194.621094 25.332031 194.519531 25.101562 194.457031 C 24.867188 194.394531 24.632812 194.378906 24.394531 194.410156 C 24.15625 194.445312 23.933594 194.519531 23.726562 194.640625 C 23.519531 194.765625 23.34375 194.921875 23.199219 195.113281 C 23.054688 195.304688 22.953125 195.519531 22.894531 195.75 C 22.835938 195.984375 22.824219 196.21875 22.859375 196.457031 C 22.894531 196.695312 22.972656 196.917969 23.097656 197.121094 C 25.519531 201.25 28.140625 205.40625 30.886719 209.46875 C 31.019531 209.667969 31.1875 209.832031 31.382812 209.960938 C 31.582031 210.09375 31.800781 210.179688 32.035156 210.226562 C 32.269531 210.273438 32.5 210.269531 32.734375 210.222656 C 32.96875 210.175781 33.183594 210.085938 33.382812 209.953125 C 33.578125 209.816406 33.742188 209.652344 33.875 209.453125 C 34.007812 209.253906 34.09375 209.039062 34.140625 208.804688 C 34.1875 208.570312 34.183594 208.335938 34.136719 208.101562 C 34.089844 207.871094 34 207.65625 33.867188 207.457031 C 31.164062 203.457031 28.582031 199.367188 26.199219 195.304688 Z M 26.199219 195.304688 " fill-opacity="1" fill-rule="nonzero"/><path fill="#000000" d="M 14.820312 172.914062 C 14.730469 172.691406 14.597656 172.496094 14.429688 172.328125 C 14.257812 172.15625 14.0625 172.023438 13.839844 171.933594 C 13.617188 171.84375 13.382812 171.796875 13.144531 171.800781 C 12.902344 171.800781 12.671875 171.851562 12.449219 171.945312 C 12.230469 172.039062 12.035156 172.175781 11.867188 172.347656 C 11.699219 172.519531 11.570312 172.71875 11.484375 172.945312 C 11.398438 173.167969 11.355469 173.402344 11.363281 173.640625 C 11.367188 173.882812 11.421875 174.113281 11.519531 174.332031 C 13.398438 178.707031 15.507812 183.148438 17.792969 187.535156 C 17.898438 187.753906 18.042969 187.945312 18.222656 188.105469 C 18.40625 188.269531 18.613281 188.386719 18.84375 188.464844 C 19.074219 188.542969 19.3125 188.570312 19.554688 188.550781 C 19.796875 188.53125 20.027344 188.46875 20.242188 188.355469 C 20.457031 188.242188 20.644531 188.09375 20.800781 187.90625 C 20.953125 187.714844 21.066406 187.507812 21.136719 187.273438 C 21.207031 187.039062 21.226562 186.800781 21.199219 186.558594 C 21.171875 186.316406 21.097656 186.089844 20.980469 185.878906 C 18.738281 181.570312 16.667969 177.210938 14.820312 172.914062 Z M 14.820312 172.914062 " fill-opacity="1" fill-rule="nonzero"/><path fill="#000000" d="M 56.074219 235.703125 C 55.914062 235.515625 55.726562 235.367188 55.511719 235.257812 C 55.292969 235.148438 55.0625 235.085938 54.820312 235.070312 C 54.578125 235.054688 54.339844 235.085938 54.113281 235.164062 C 53.882812 235.246094 53.675781 235.367188 53.496094 235.53125 C 53.316406 235.691406 53.171875 235.886719 53.070312 236.105469 C 52.96875 236.328125 52.914062 236.558594 52.90625 236.800781 C 52.894531 237.046875 52.9375 237.28125 53.023438 237.507812 C 53.109375 237.734375 53.238281 237.9375 53.40625 238.109375 C 56.625 241.667969 60.007812 245.21875 63.460938 248.664062 C 63.628906 248.84375 63.824219 248.980469 64.046875 249.082031 C 64.269531 249.179688 64.503906 249.234375 64.746094 249.238281 C 64.992188 249.242188 65.226562 249.199219 65.453125 249.105469 C 65.679688 249.015625 65.878906 248.882812 66.054688 248.707031 C 66.226562 248.535156 66.359375 248.335938 66.449219 248.109375 C 66.539062 247.882812 66.582031 247.644531 66.578125 247.402344 C 66.570312 247.15625 66.519531 246.921875 66.417969 246.699219 C 66.316406 246.476562 66.175781 246.285156 65.996094 246.117188 C 62.589844 242.71875 59.25 239.214844 56.074219 235.703125 Z M 56.074219 235.703125 " fill-opacity="1" fill-rule="nonzero"/><path fill="#000000" d="M 33.246094 56.992188 C 29.4375 60.128906 25.902344 63.550781 22.644531 67.257812 C 22.492188 67.4375 22.378906 67.636719 22.308594 67.863281 C 22.234375 68.085938 22.207031 68.316406 22.222656 68.550781 C 22.242188 68.785156 22.304688 69.007812 22.40625 69.21875 C 22.511719 69.429688 22.652344 69.609375 22.832031 69.765625 C 23.007812 69.921875 23.207031 70.039062 23.429688 70.113281 C 23.652344 70.191406 23.878906 70.222656 24.113281 70.210938 C 24.351562 70.199219 24.574219 70.140625 24.785156 70.039062 C 25 69.941406 25.183594 69.804688 25.34375 69.628906 C 28.472656 66.066406 31.871094 62.78125 35.53125 59.769531 C 35.710938 59.613281 35.851562 59.433594 35.960938 59.222656 C 36.066406 59.015625 36.132812 58.792969 36.152344 58.558594 C 36.171875 58.324219 36.148438 58.09375 36.078125 57.871094 C 36.007812 57.644531 35.898438 57.441406 35.75 57.261719 C 35.601562 57.078125 35.421875 56.933594 35.214844 56.820312 C 35.007812 56.710938 34.789062 56.640625 34.554688 56.617188 C 34.320312 56.589844 34.089844 56.609375 33.863281 56.675781 C 33.636719 56.742188 33.433594 56.847656 33.246094 56.992188 Z M 33.246094 56.992188 " fill-opacity="1" fill-rule="nonzero"/><path fill="#000000" d="M 6.699219 149.226562 C 6.644531 148.992188 6.546875 148.777344 6.40625 148.582031 C 6.265625 148.386719 6.089844 148.226562 5.886719 148.101562 C 5.679688 147.976562 5.457031 147.894531 5.21875 147.859375 C 4.980469 147.820312 4.746094 147.832031 4.511719 147.890625 C 4.277344 147.949219 4.066406 148.050781 3.871094 148.195312 C 3.679688 148.339844 3.523438 148.515625 3.398438 148.722656 C 3.277344 148.929688 3.199219 149.152344 3.167969 149.394531 C 3.136719 149.632812 3.152344 149.867188 3.214844 150.101562 C 4.351562 154.648438 5.792969 159.367188 7.496094 164.121094 C 7.574219 164.347656 7.695312 164.546875 7.855469 164.722656 C 8.015625 164.898438 8.203125 165.039062 8.417969 165.140625 C 8.632812 165.242188 8.859375 165.300781 9.097656 165.3125 C 9.335938 165.324219 9.566406 165.289062 9.792969 165.207031 C 10.015625 165.128906 10.21875 165.007812 10.394531 164.847656 C 10.570312 164.6875 10.710938 164.5 10.8125 164.285156 C 10.914062 164.070312 10.96875 163.84375 10.980469 163.605469 C 10.992188 163.367188 10.960938 163.136719 10.878906 162.910156 C 9.214844 158.265625 7.808594 153.660156 6.699219 149.226562 Z M 6.699219 149.226562 " fill-opacity="1" fill-rule="nonzero"/><path fill="#000000" d="M 2.578125 115.546875 C 2.8125 115.582031 3.046875 115.570312 3.277344 115.515625 C 3.507812 115.457031 3.71875 115.359375 3.914062 115.214844 C 4.105469 115.074219 4.261719 114.902344 4.386719 114.699219 C 4.507812 114.496094 4.589844 114.273438 4.625 114.039062 C 5.335938 109.351562 6.425781 104.753906 7.886719 100.246094 C 7.96875 100.019531 8 99.785156 7.984375 99.542969 C 7.96875 99.300781 7.90625 99.074219 7.800781 98.859375 C 7.691406 98.640625 7.546875 98.453125 7.363281 98.296875 C 7.183594 98.140625 6.976562 98.023438 6.746094 97.949219 C 6.515625 97.875 6.28125 97.847656 6.039062 97.867188 C 5.800781 97.886719 5.574219 97.953125 5.359375 98.0625 C 5.144531 98.175781 4.960938 98.324219 4.808594 98.511719 C 4.652344 98.695312 4.539062 98.90625 4.46875 99.136719 C 2.945312 103.832031 1.8125 108.617188 1.070312 113.496094 C 1.035156 113.734375 1.042969 113.96875 1.101562 114.199219 C 1.160156 114.429688 1.257812 114.640625 1.398438 114.832031 C 1.539062 115.027344 1.714844 115.183594 1.917969 115.304688 C 2.121094 115.429688 2.339844 115.507812 2.578125 115.546875 Z M 2.578125 115.546875 " fill-opacity="1" fill-rule="nonzero"/><path fill="#000000" d="M 4.570312 138.746094 C 3.945312 134.628906 3.625 130.769531 3.625 127.285156 C 3.625 126.402344 3.640625 125.511719 3.664062 124.632812 C 3.675781 124.390625 3.640625 124.15625 3.558594 123.929688 C 3.476562 123.703125 3.355469 123.503906 3.191406 123.324219 C 3.027344 123.148438 2.835938 123.007812 2.613281 122.910156 C 2.394531 122.808594 2.164062 122.753906 1.925781 122.75 C 1.683594 122.742188 1.449219 122.78125 1.222656 122.867188 C 1 122.953125 0.800781 123.082031 0.625 123.25 C 0.453125 123.414062 0.316406 123.609375 0.222656 123.832031 C 0.125 124.050781 0.0742188 124.285156 0.0742188 124.523438 C 0.046875 125.4375 0.03125 126.367188 0.03125 127.285156 C 0.03125 130.953125 0.363281 134.992188 1.015625 139.285156 C 1.050781 139.496094 1.117188 139.699219 1.222656 139.886719 C 1.324219 140.074219 1.457031 140.238281 1.621094 140.378906 C 1.785156 140.519531 1.964844 140.625 2.167969 140.699219 C 2.367188 140.773438 2.574219 140.8125 2.789062 140.8125 C 2.882812 140.8125 2.972656 140.808594 3.0625 140.792969 C 3.296875 140.757812 3.519531 140.679688 3.722656 140.554688 C 3.925781 140.433594 4.097656 140.273438 4.242188 140.082031 C 4.382812 139.890625 4.480469 139.679688 4.539062 139.445312 C 4.59375 139.214844 4.605469 138.980469 4.570312 138.746094 Z M 4.570312 138.746094 " fill-opacity="1" fill-rule="nonzero"/><path fill="#000000" d="M 43.175781 53.804688 C 43.523438 53.804688 43.84375 53.710938 44.136719 53.523438 C 48.136719 50.976562 52.3125 48.773438 56.667969 46.90625 C 56.886719 46.8125 57.078125 46.679688 57.246094 46.511719 C 57.414062 46.339844 57.539062 46.144531 57.628906 45.921875 C 57.71875 45.699219 57.761719 45.472656 57.757812 45.234375 C 57.753906 44.996094 57.707031 44.765625 57.613281 44.546875 C 57.519531 44.328125 57.386719 44.132812 57.214844 43.96875 C 57.042969 43.800781 56.847656 43.675781 56.628906 43.585938 C 56.40625 43.496094 56.175781 43.453125 55.9375 43.457031 C 55.699219 43.460938 55.46875 43.507812 55.25 43.601562 C 50.714844 45.542969 46.367188 47.839844 42.207031 50.488281 C 41.867188 50.703125 41.628906 51 41.488281 51.375 C 41.347656 51.746094 41.332031 52.125 41.445312 52.511719 C 41.558594 52.894531 41.773438 53.207031 42.09375 53.445312 C 42.414062 53.683594 42.773438 53.804688 43.175781 53.804688 Z M 43.175781 53.804688 " fill-opacity="1" fill-rule="nonzero"/><path fill="#000000" d="M 9.402344 91.214844 C 9.621094 91.316406 9.847656 91.375 10.085938 91.382812 C 10.324219 91.394531 10.554688 91.359375 10.777344 91.277344 C 11 91.195312 11.203125 91.074219 11.378906 90.914062 C 11.554688 90.753906 11.691406 90.566406 11.792969 90.347656 C 13.800781 86.054688 16.140625 81.949219 18.816406 78.03125 C 18.957031 77.835938 19.054688 77.621094 19.105469 77.382812 C 19.160156 77.148438 19.164062 76.914062 19.121094 76.675781 C 19.078125 76.4375 18.992188 76.21875 18.863281 76.015625 C 18.730469 75.8125 18.566406 75.644531 18.367188 75.507812 C 18.167969 75.371094 17.949219 75.277344 17.714844 75.230469 C 17.476562 75.183594 17.242188 75.179688 17.003906 75.226562 C 16.769531 75.273438 16.550781 75.363281 16.351562 75.5 C 16.148438 75.632812 15.984375 75.800781 15.851562 76.003906 C 13.066406 80.078125 10.625 84.351562 8.535156 88.824219 C 8.433594 89.042969 8.378906 89.269531 8.367188 89.507812 C 8.359375 89.746094 8.394531 89.976562 8.472656 90.199219 C 8.554688 90.425781 8.675781 90.625 8.835938 90.800781 C 9 90.976562 9.1875 91.117188 9.402344 91.214844 Z M 9.402344 91.214844 " fill-opacity="1" fill-rule="nonzero"/><g clip-path="url(#380ba70d1c)"><path fill="#000000" d="M 82.148438 38.519531 C 82.117188 38.285156 82.046875 38.0625 81.929688 37.855469 C 81.8125 37.644531 81.660156 37.46875 81.472656 37.320312 C 81.285156 37.171875 81.078125 37.066406 80.847656 37.003906 C 80.621094 36.9375 80.386719 36.921875 80.148438 36.949219 C 75.25 37.53125 70.429688 38.507812 65.6875 39.878906 C 65.457031 39.945312 65.25 40.050781 65.0625 40.199219 C 64.878906 40.347656 64.726562 40.527344 64.613281 40.738281 C 64.496094 40.945312 64.425781 41.167969 64.398438 41.40625 C 64.371094 41.640625 64.390625 41.875 64.457031 42.105469 C 64.523438 42.332031 64.632812 42.542969 64.78125 42.726562 C 64.929688 42.914062 65.109375 43.0625 65.316406 43.179688 C 65.527344 43.292969 65.75 43.363281 65.988281 43.390625 C 66.222656 43.417969 66.457031 43.398438 66.6875 43.332031 C 71.238281 42.015625 75.871094 41.078125 80.578125 40.519531 C 80.8125 40.488281 81.035156 40.417969 81.242188 40.300781 C 81.449219 40.183594 81.628906 40.03125 81.773438 39.84375 C 81.921875 39.65625 82.027344 39.449219 82.09375 39.21875 C 82.15625 38.988281 82.175781 38.757812 82.148438 38.519531 Z M 82.148438 38.519531 " fill-opacity="1" fill-rule="nonzero"/></g><path fill="#000000" d="M 40.097656 216.257812 C 39.957031 216.0625 39.785156 215.898438 39.582031 215.773438 C 39.375 215.644531 39.152344 215.5625 38.914062 215.527344 C 38.675781 215.488281 38.441406 215.5 38.207031 215.558594 C 37.972656 215.613281 37.757812 215.714844 37.566406 215.859375 C 37.371094 216.003906 37.214844 216.179688 37.089844 216.386719 C 36.96875 216.59375 36.890625 216.816406 36.855469 217.054688 C 36.824219 217.292969 36.835938 217.53125 36.898438 217.761719 C 36.960938 217.996094 37.066406 218.207031 37.210938 218.398438 C 40.070312 222.25 43.101562 226.105469 46.234375 229.859375 C 46.386719 230.03125 46.570312 230.171875 46.78125 230.273438 C 46.988281 230.375 47.210938 230.4375 47.441406 230.453125 C 47.675781 230.46875 47.902344 230.441406 48.125 230.371094 C 48.34375 230.300781 48.546875 230.191406 48.726562 230.039062 C 48.902344 229.890625 49.046875 229.714844 49.160156 229.507812 C 49.269531 229.304688 49.335938 229.085938 49.359375 228.851562 C 49.386719 228.621094 49.367188 228.390625 49.300781 228.167969 C 49.238281 227.945312 49.132812 227.738281 48.992188 227.554688 C 45.910156 223.855469 42.917969 220.054688 40.097656 216.257812 Z M 40.097656 216.257812 " fill-opacity="1" fill-rule="nonzero"/><path fill="#000000" d="M 130.488281 45.300781 C 126.042969 43.15625 121.449219 41.386719 116.710938 39.992188 C 116.484375 39.921875 116.25 39.898438 116.011719 39.921875 C 115.773438 39.945312 115.546875 40.015625 115.335938 40.128906 C 115.125 40.242188 114.945312 40.390625 114.792969 40.578125 C 114.640625 40.765625 114.53125 40.972656 114.464844 41.203125 C 114.398438 41.433594 114.375 41.667969 114.402344 41.90625 C 114.429688 42.144531 114.5 42.367188 114.617188 42.578125 C 114.730469 42.789062 114.882812 42.96875 115.070312 43.117188 C 115.257812 43.265625 115.46875 43.375 115.699219 43.4375 C 120.25 44.777344 124.660156 46.476562 128.929688 48.539062 C 129.144531 48.640625 129.371094 48.699219 129.609375 48.714844 C 129.847656 48.726562 130.078125 48.695312 130.304688 48.617188 C 130.53125 48.539062 130.730469 48.421875 130.910156 48.261719 C 131.085938 48.101562 131.226562 47.917969 131.332031 47.703125 C 131.4375 47.488281 131.496094 47.261719 131.507812 47.023438 C 131.523438 46.785156 131.488281 46.554688 131.410156 46.328125 C 131.332031 46.101562 131.214844 45.902344 131.054688 45.722656 C 130.898438 45.546875 130.710938 45.40625 130.496094 45.300781 Z M 130.488281 45.300781 " fill-opacity="1" fill-rule="nonzero"/><path fill="#000000" d="M 125.460938 292.558594 C 121.359375 290.03125 117.28125 287.40625 113.34375 284.761719 C 113.144531 284.628906 112.929688 284.535156 112.695312 284.484375 C 112.460938 284.4375 112.226562 284.433594 111.992188 284.480469 C 111.757812 284.527344 111.539062 284.613281 111.339844 284.746094 C 111.140625 284.878906 110.972656 285.042969 110.839844 285.242188 C 110.703125 285.441406 110.613281 285.660156 110.566406 285.894531 C 110.519531 286.128906 110.519531 286.363281 110.566406 286.597656 C 110.613281 286.832031 110.707031 287.050781 110.839844 287.25 C 110.972656 287.445312 111.140625 287.613281 111.339844 287.742188 C 115.316406 290.414062 119.433594 293.066406 123.578125 295.617188 C 123.78125 295.742188 124 295.824219 124.234375 295.863281 C 124.472656 295.902344 124.703125 295.890625 124.9375 295.835938 C 125.167969 295.78125 125.382812 295.683594 125.574219 295.546875 C 125.769531 295.40625 125.925781 295.234375 126.050781 295.03125 C 126.175781 294.828125 126.257812 294.609375 126.296875 294.375 C 126.332031 294.136719 126.324219 293.902344 126.269531 293.671875 C 126.214844 293.441406 126.117188 293.226562 125.976562 293.035156 C 125.835938 292.839844 125.664062 292.683594 125.460938 292.558594 Z M 125.460938 292.558594 " fill-opacity="1" fill-rule="nonzero"/><path fill="#000000" d="M 147.363281 305.070312 C 143.101562 302.8125 138.855469 300.464844 134.75 298.09375 C 134.542969 297.972656 134.320312 297.890625 134.082031 297.859375 C 133.84375 297.824219 133.605469 297.839844 133.375 297.898438 C 133.140625 297.960938 132.929688 298.0625 132.738281 298.207031 C 132.546875 298.355469 132.390625 298.53125 132.269531 298.738281 C 132.152344 298.949219 132.074219 299.171875 132.042969 299.410156 C 132.015625 299.648438 132.03125 299.882812 132.09375 300.117188 C 132.160156 300.347656 132.265625 300.558594 132.414062 300.746094 C 132.5625 300.9375 132.742188 301.089844 132.953125 301.207031 C 137.097656 303.601562 141.378906 305.96875 145.683594 308.246094 C 145.890625 308.351562 146.113281 308.414062 146.351562 308.433594 C 146.585938 308.453125 146.816406 308.429688 147.039062 308.355469 C 147.265625 308.285156 147.46875 308.175781 147.648438 308.023438 C 147.828125 307.871094 147.976562 307.691406 148.085938 307.484375 C 148.195312 307.277344 148.261719 307.054688 148.285156 306.820312 C 148.308594 306.585938 148.285156 306.355469 148.21875 306.128906 C 148.152344 305.902344 148.042969 305.699219 147.894531 305.515625 C 147.746094 305.332031 147.570312 305.183594 147.363281 305.070312 Z M 147.363281 305.070312 " fill-opacity="1" fill-rule="nonzero"/><path fill="#000000" d="M 151.886719 59.679688 C 148.21875 56.375 144.308594 53.386719 140.15625 50.714844 C 139.957031 50.582031 139.738281 50.496094 139.503906 50.449219 C 139.269531 50.40625 139.035156 50.410156 138.796875 50.460938 C 138.5625 50.507812 138.347656 50.601562 138.152344 50.738281 C 137.953125 50.875 137.789062 51.042969 137.660156 51.246094 C 137.53125 51.445312 137.445312 51.664062 137.402344 51.902344 C 137.359375 52.136719 137.367188 52.371094 137.417969 52.605469 C 137.46875 52.839844 137.5625 53.054688 137.703125 53.25 C 137.839844 53.445312 138.011719 53.609375 138.214844 53.738281 C 142.199219 56.304688 145.957031 59.175781 149.480469 62.347656 C 149.65625 62.5 149.859375 62.613281 150.082031 62.6875 C 150.304688 62.761719 150.53125 62.792969 150.765625 62.777344 C 151 62.761719 151.222656 62.703125 151.433594 62.601562 C 151.644531 62.5 151.828125 62.359375 151.984375 62.1875 C 152.140625 62.011719 152.261719 61.816406 152.339844 61.59375 C 152.421875 61.375 152.457031 61.144531 152.445312 60.910156 C 152.4375 60.675781 152.382812 60.453125 152.285156 60.238281 C 152.1875 60.027344 152.054688 59.839844 151.886719 59.679688 Z M 151.886719 59.679688 " fill-opacity="1" fill-rule="nonzero"/><path fill="#000000" d="M 104.472656 278.597656 C 100.5625 275.785156 96.6875 272.875 92.957031 269.949219 C 92.769531 269.800781 92.5625 269.695312 92.332031 269.632812 C 92.101562 269.570312 91.871094 269.550781 91.632812 269.578125 C 91.398438 269.609375 91.175781 269.679688 90.96875 269.796875 C 90.761719 269.914062 90.582031 270.066406 90.4375 270.253906 C 90.289062 270.441406 90.183594 270.648438 90.121094 270.878906 C 90.054688 271.105469 90.035156 271.339844 90.066406 271.574219 C 90.09375 271.8125 90.164062 272.035156 90.28125 272.242188 C 90.398438 272.449219 90.550781 272.628906 90.734375 272.773438 C 94.503906 275.738281 98.421875 278.679688 102.375 281.519531 C 102.570312 281.652344 102.78125 281.746094 103.011719 281.792969 C 103.242188 281.84375 103.472656 281.851562 103.703125 281.808594 C 103.9375 281.769531 104.152344 281.6875 104.351562 281.5625 C 104.550781 281.4375 104.71875 281.277344 104.855469 281.085938 C 104.992188 280.894531 105.089844 280.6875 105.144531 280.457031 C 105.199219 280.230469 105.207031 280 105.171875 279.765625 C 105.136719 279.53125 105.058594 279.316406 104.9375 279.113281 C 104.816406 278.914062 104.660156 278.742188 104.472656 278.601562 Z M 104.472656 278.597656 " fill-opacity="1" fill-rule="nonzero"/><g clip-path="url(#85aa3d43c8)"><path fill="#000000" d="M 105.914062 37.523438 C 101.042969 36.722656 96.140625 36.316406 91.203125 36.308594 C 90.96875 36.3125 90.742188 36.359375 90.527344 36.453125 C 90.3125 36.546875 90.121094 36.679688 89.957031 36.847656 C 89.792969 37.015625 89.664062 37.207031 89.574219 37.425781 C 89.488281 37.640625 89.441406 37.867188 89.441406 38.105469 C 89.441406 38.339844 89.488281 38.566406 89.574219 38.785156 C 89.664062 39 89.792969 39.195312 89.957031 39.363281 C 90.121094 39.53125 90.3125 39.660156 90.527344 39.753906 C 90.742188 39.847656 90.96875 39.894531 91.203125 39.902344 C 95.945312 39.910156 100.65625 40.300781 105.335938 41.070312 C 105.574219 41.113281 105.8125 41.109375 106.046875 41.054688 C 106.28125 41.003906 106.5 40.910156 106.695312 40.769531 C 106.894531 40.632812 107.058594 40.460938 107.183594 40.257812 C 107.3125 40.050781 107.398438 39.832031 107.4375 39.59375 C 107.476562 39.355469 107.46875 39.117188 107.410156 38.882812 C 107.355469 38.648438 107.257812 38.433594 107.113281 38.238281 C 106.972656 38.046875 106.796875 37.886719 106.589844 37.761719 C 106.382812 37.636719 106.160156 37.558594 105.921875 37.523438 Z M 105.914062 37.523438 " fill-opacity="1" fill-rule="nonzero"/></g><path fill="#000000" d="M 84.578125 263.128906 C 80.890625 260.027344 77.261719 256.824219 73.785156 253.597656 C 73.609375 253.433594 73.410156 253.304688 73.183594 253.21875 C 72.960938 253.128906 72.726562 253.089844 72.484375 253.097656 C 72.246094 253.105469 72.015625 253.15625 71.792969 253.257812 C 71.574219 253.355469 71.382812 253.496094 71.21875 253.671875 C 71.054688 253.847656 70.929688 254.050781 70.847656 254.277344 C 70.765625 254.503906 70.730469 254.738281 70.742188 254.980469 C 70.753906 255.222656 70.8125 255.449219 70.914062 255.667969 C 71.019531 255.886719 71.160156 256.074219 71.34375 256.234375 C 74.859375 259.496094 78.535156 262.738281 82.261719 265.878906 C 82.445312 266.027344 82.648438 266.136719 82.875 266.207031 C 83.101562 266.277344 83.332031 266.300781 83.566406 266.28125 C 83.800781 266.257812 84.023438 266.191406 84.234375 266.082031 C 84.445312 265.972656 84.625 265.828125 84.777344 265.648438 C 84.929688 265.46875 85.042969 265.265625 85.113281 265.039062 C 85.1875 264.8125 85.214844 264.582031 85.195312 264.347656 C 85.175781 264.109375 85.113281 263.886719 85.003906 263.675781 C 84.898438 263.464844 84.753906 263.28125 84.578125 263.128906 Z M 84.578125 263.128906 " fill-opacity="1" fill-rule="nonzero"/><path fill="#000000" d="M 168.550781 67.488281 C 168.371094 67.328125 168.167969 67.210938 167.941406 67.136719 C 167.71875 67.058594 167.488281 67.027344 167.25 67.042969 C 167.011719 67.058594 166.785156 67.117188 166.570312 67.222656 C 166.359375 67.328125 166.171875 67.46875 166.015625 67.648438 C 164.929688 68.878906 163.867188 70.15625 162.84375 71.449219 C 161.828125 70.144531 160.773438 68.863281 159.695312 67.625 C 159.539062 67.449219 159.351562 67.308594 159.140625 67.207031 C 158.929688 67.101562 158.703125 67.042969 158.46875 67.027344 C 158.234375 67.015625 158.003906 67.042969 157.78125 67.121094 C 157.554688 67.195312 157.355469 67.3125 157.175781 67.464844 C 157 67.621094 156.855469 67.804688 156.75 68.015625 C 156.644531 68.226562 156.582031 68.449219 156.5625 68.683594 C 156.546875 68.917969 156.574219 69.148438 156.644531 69.375 C 156.71875 69.597656 156.832031 69.800781 156.984375 69.980469 C 158.515625 71.746094 160 73.597656 161.386719 75.476562 C 161.742188 75.960938 162.222656 76.207031 162.828125 76.207031 L 162.832031 76.207031 C 163.433594 76.207031 163.914062 75.96875 164.273438 75.488281 C 165.671875 73.613281 167.164062 71.773438 168.710938 70.019531 C 168.867188 69.839844 168.984375 69.640625 169.0625 69.414062 C 169.140625 69.1875 169.167969 68.957031 169.15625 68.71875 C 169.140625 68.480469 169.078125 68.257812 168.972656 68.042969 C 168.871094 67.828125 168.726562 67.644531 168.550781 67.488281 Z M 168.550781 67.488281 " fill-opacity="1" fill-rule="nonzero"/><path fill="#000000" d="M 290.59375 60.917969 C 294.234375 63.984375 297.601562 67.328125 300.699219 70.941406 C 300.851562 71.128906 301.035156 71.277344 301.25 71.390625 C 301.460938 71.5 301.691406 71.566406 301.929688 71.589844 C 302.167969 71.609375 302.40625 71.582031 302.632812 71.507812 C 302.863281 71.433594 303.070312 71.320312 303.253906 71.164062 C 303.4375 71.003906 303.582031 70.820312 303.691406 70.605469 C 303.796875 70.390625 303.859375 70.160156 303.875 69.921875 C 303.894531 69.679688 303.863281 69.445312 303.785156 69.21875 C 303.707031 68.988281 303.589844 68.785156 303.429688 68.605469 C 300.203125 64.84375 296.699219 61.363281 292.910156 58.167969 C 292.726562 58.019531 292.523438 57.910156 292.296875 57.839844 C 292.074219 57.773438 291.84375 57.75 291.605469 57.769531 C 291.371094 57.792969 291.148438 57.855469 290.941406 57.964844 C 290.730469 58.074219 290.550781 58.21875 290.398438 58.402344 C 290.246094 58.582031 290.132812 58.785156 290.0625 59.007812 C 289.988281 59.234375 289.964844 59.464844 289.980469 59.699219 C 290 59.933594 290.0625 60.15625 290.167969 60.367188 C 290.273438 60.578125 290.414062 60.761719 290.59375 60.914062 Z M 290.59375 60.917969 " fill-opacity="1" fill-rule="nonzero"/><path fill="#000000" d="M 309.835938 174.789062 C 307.9375 179.082031 305.8125 183.441406 303.523438 187.742188 C 303.410156 187.953125 303.34375 188.175781 303.320312 188.414062 C 303.296875 188.648438 303.320312 188.882812 303.390625 189.109375 C 303.457031 189.335938 303.570312 189.542969 303.71875 189.726562 C 303.871094 189.910156 304.050781 190.058594 304.261719 190.171875 C 304.472656 190.285156 304.695312 190.351562 304.933594 190.375 C 305.171875 190.398438 305.402344 190.375 305.632812 190.304688 C 305.859375 190.234375 306.066406 190.125 306.25 189.972656 C 306.433594 189.824219 306.582031 189.640625 306.695312 189.433594 C 309.027344 185.054688 311.191406 180.617188 313.125 176.242188 C 313.214844 176.023438 313.261719 175.796875 313.261719 175.5625 C 313.265625 175.328125 313.222656 175.101562 313.136719 174.882812 C 313.046875 174.664062 312.921875 174.46875 312.761719 174.300781 C 312.597656 174.128906 312.40625 173.996094 312.191406 173.902344 C 311.976562 173.808594 311.75 173.757812 311.515625 173.75 C 311.28125 173.742188 311.054688 173.78125 310.832031 173.863281 C 310.613281 173.949219 310.417969 174.070312 310.246094 174.230469 C 310.070312 174.386719 309.9375 174.574219 309.835938 174.789062 Z M 309.835938 174.789062 " fill-opacity="1" fill-rule="nonzero"/><path fill="#000000" d="M 323.449219 124.613281 C 323.210938 124.617188 322.980469 124.664062 322.761719 124.761719 C 322.542969 124.855469 322.351562 124.988281 322.183594 125.160156 C 322.019531 125.328125 321.890625 125.523438 321.804688 125.746094 C 321.714844 125.96875 321.671875 126.199219 321.675781 126.4375 C 321.683594 126.875 321.6875 127.320312 321.6875 127.757812 C 321.6875 131.640625 321.296875 135.957031 320.523438 140.59375 C 320.480469 140.828125 320.488281 141.0625 320.542969 141.292969 C 320.597656 141.527344 320.691406 141.738281 320.832031 141.933594 C 320.96875 142.128906 321.140625 142.289062 321.34375 142.414062 C 321.546875 142.539062 321.765625 142.621094 322 142.660156 C 322.097656 142.679688 322.195312 142.6875 322.296875 142.6875 C 322.507812 142.6875 322.714844 142.648438 322.914062 142.574219 C 323.113281 142.503906 323.296875 142.398438 323.457031 142.257812 C 323.621094 142.121094 323.753906 141.960938 323.859375 141.777344 C 323.960938 141.589844 324.03125 141.394531 324.066406 141.183594 C 324.875 136.355469 325.28125 131.839844 325.28125 127.757812 C 325.28125 127.300781 325.277344 126.839844 325.273438 126.382812 C 325.269531 126.148438 325.21875 125.921875 325.128906 125.703125 C 325.035156 125.488281 324.90625 125.296875 324.738281 125.128906 C 324.570312 124.964844 324.375 124.835938 324.15625 124.746094 C 323.9375 124.65625 323.710938 124.613281 323.476562 124.613281 Z M 323.449219 124.613281 " fill-opacity="1" fill-rule="nonzero"/><path fill="#000000" d="M 284.03125 218.058594 C 281.167969 221.84375 278.125 225.628906 274.988281 229.316406 C 274.835938 229.496094 274.722656 229.699219 274.652344 229.925781 C 274.578125 230.152344 274.554688 230.386719 274.574219 230.621094 C 274.59375 230.859375 274.65625 231.082031 274.765625 231.296875 C 274.875 231.507812 275.019531 231.6875 275.199219 231.84375 C 275.382812 231.996094 275.585938 232.109375 275.8125 232.183594 C 276.039062 232.257812 276.269531 232.285156 276.503906 232.265625 C 276.742188 232.246094 276.96875 232.183594 277.179688 232.074219 C 277.390625 231.96875 277.574219 231.824219 277.730469 231.644531 C 280.90625 227.902344 283.992188 224.0625 286.898438 220.226562 C 287.046875 220.035156 287.152344 219.824219 287.21875 219.59375 C 287.28125 219.359375 287.296875 219.125 287.265625 218.882812 C 287.234375 218.644531 287.160156 218.421875 287.039062 218.214844 C 286.917969 218.003906 286.761719 217.828125 286.570312 217.683594 C 286.378906 217.535156 286.164062 217.433594 285.929688 217.375 C 285.699219 217.3125 285.460938 217.300781 285.222656 217.335938 C 284.984375 217.371094 284.761719 217.453125 284.554688 217.578125 C 284.347656 217.703125 284.175781 217.859375 284.03125 218.054688 Z M 284.03125 218.058594 " fill-opacity="1" fill-rule="nonzero"/><path fill="#000000" d="M 318.246094 151.089844 C 317.078125 155.539062 315.613281 160.144531 313.898438 164.785156 C 313.8125 165.007812 313.773438 165.242188 313.777344 165.480469 C 313.785156 165.722656 313.839844 165.953125 313.9375 166.171875 C 314.035156 166.390625 314.171875 166.582031 314.351562 166.746094 C 314.527344 166.910156 314.726562 167.03125 314.953125 167.117188 C 315.175781 167.199219 315.410156 167.234375 315.648438 167.226562 C 315.890625 167.214844 316.121094 167.160156 316.335938 167.058594 C 316.554688 166.957031 316.746094 166.816406 316.90625 166.636719 C 317.066406 166.460938 317.1875 166.257812 317.269531 166.03125 C 319.023438 161.285156 320.523438 156.5625 321.722656 152.007812 C 321.785156 151.773438 321.804688 151.539062 321.773438 151.300781 C 321.742188 151.0625 321.667969 150.839844 321.546875 150.632812 C 321.425781 150.425781 321.273438 150.25 321.082031 150.101562 C 320.890625 149.957031 320.679688 149.851562 320.449219 149.792969 C 320.214844 149.730469 319.980469 149.71875 319.742188 149.75 C 319.503906 149.78125 319.28125 149.859375 319.074219 149.984375 C 318.871094 150.105469 318.695312 150.261719 318.550781 150.453125 C 318.40625 150.644531 318.304688 150.859375 318.246094 151.089844 Z M 318.246094 151.089844 " fill-opacity="1" fill-rule="nonzero"/><path fill="#000000" d="M 314.019531 91.910156 C 314.117188 92.128906 314.253906 92.320312 314.425781 92.484375 C 314.601562 92.648438 314.800781 92.769531 315.023438 92.855469 C 315.246094 92.941406 315.476562 92.980469 315.714844 92.972656 C 315.953125 92.964844 316.183594 92.914062 316.398438 92.816406 C 316.617188 92.71875 316.808594 92.582031 316.972656 92.40625 C 317.136719 92.234375 317.261719 92.035156 317.34375 91.8125 C 317.429688 91.589844 317.46875 91.355469 317.460938 91.117188 C 317.453125 90.878906 317.398438 90.652344 317.300781 90.433594 C 315.265625 85.917969 312.875 81.597656 310.136719 77.46875 C 310.003906 77.269531 309.839844 77.097656 309.644531 76.960938 C 309.445312 76.824219 309.226562 76.734375 308.992188 76.683594 C 308.757812 76.632812 308.519531 76.632812 308.285156 76.679688 C 308.046875 76.722656 307.828125 76.8125 307.628906 76.945312 C 307.429688 77.078125 307.261719 77.246094 307.128906 77.445312 C 306.996094 77.644531 306.90625 77.863281 306.859375 78.101562 C 306.8125 78.335938 306.816406 78.574219 306.863281 78.808594 C 306.914062 79.042969 307.003906 79.261719 307.140625 79.460938 C 309.773438 83.421875 312.066406 87.574219 314.019531 91.910156 Z M 314.019531 91.910156 " fill-opacity="1" fill-rule="nonzero"/><path fill="#000000" d="M 269.507812 47.753906 C 273.863281 49.675781 278.035156 51.9375 282.023438 54.539062 C 282.222656 54.664062 282.4375 54.746094 282.671875 54.789062 C 282.902344 54.828125 283.132812 54.824219 283.363281 54.773438 C 283.59375 54.722656 283.808594 54.632812 284.003906 54.5 C 284.195312 54.363281 284.359375 54.199219 284.488281 54 C 284.617188 53.804688 284.703125 53.589844 284.746094 53.355469 C 284.792969 53.125 284.789062 52.894531 284.742188 52.664062 C 284.699219 52.429688 284.609375 52.21875 284.476562 52.019531 C 284.347656 51.824219 284.183594 51.660156 283.988281 51.527344 C 279.835938 48.820312 275.492188 46.464844 270.957031 44.460938 C 270.738281 44.363281 270.507812 44.308594 270.269531 44.296875 C 270.027344 44.289062 269.792969 44.328125 269.570312 44.414062 C 269.34375 44.5 269.144531 44.625 268.96875 44.789062 C 268.792969 44.957031 268.65625 45.148438 268.558594 45.371094 C 268.464844 45.589844 268.414062 45.820312 268.410156 46.0625 C 268.402344 46.304688 268.445312 46.535156 268.535156 46.757812 C 268.625 46.984375 268.753906 47.179688 268.921875 47.355469 C 269.089844 47.527344 269.285156 47.660156 269.507812 47.75 Z M 269.507812 47.753906 " fill-opacity="1" fill-rule="nonzero"/><path fill="#000000" d="M 320.875 115.789062 C 320.902344 116.003906 320.96875 116.207031 321.074219 116.398438 C 321.175781 116.589844 321.308594 116.757812 321.472656 116.898438 C 321.636719 117.042969 321.820312 117.152344 322.023438 117.226562 C 322.226562 117.304688 322.4375 117.34375 322.652344 117.34375 C 322.734375 117.34375 322.816406 117.335938 322.898438 117.324219 C 323.136719 117.292969 323.355469 117.21875 323.5625 117.097656 C 323.765625 116.976562 323.941406 116.820312 324.085938 116.632812 C 324.230469 116.441406 324.332031 116.230469 324.394531 116 C 324.453125 115.769531 324.46875 115.539062 324.433594 115.300781 C 323.761719 110.390625 322.691406 105.570312 321.230469 100.835938 C 321.15625 100.609375 321.042969 100.410156 320.890625 100.230469 C 320.738281 100.050781 320.558594 99.90625 320.347656 99.796875 C 320.136719 99.6875 319.914062 99.625 319.679688 99.601562 C 319.445312 99.582031 319.214844 99.605469 318.988281 99.675781 C 318.765625 99.746094 318.5625 99.855469 318.378906 100.003906 C 318.195312 100.15625 318.050781 100.332031 317.9375 100.542969 C 317.828125 100.75 317.757812 100.96875 317.734375 101.207031 C 317.710938 101.441406 317.730469 101.671875 317.796875 101.898438 C 319.203125 106.445312 320.226562 111.074219 320.875 115.789062 Z M 320.875 115.789062 " fill-opacity="1" fill-rule="nonzero"/><path fill="#000000" d="M 298.191406 197.152344 C 295.757812 201.207031 293.125 205.289062 290.375 209.28125 C 290.238281 209.476562 290.148438 209.691406 290.097656 209.925781 C 290.046875 210.15625 290.042969 210.390625 290.085938 210.625 C 290.128906 210.859375 290.21875 211.078125 290.347656 211.277344 C 290.476562 211.476562 290.640625 211.644531 290.835938 211.78125 C 291.03125 211.914062 291.246094 212.007812 291.480469 212.058594 C 291.710938 212.109375 291.945312 212.109375 292.179688 212.066406 C 292.414062 212.023438 292.632812 211.9375 292.832031 211.808594 C 293.03125 211.679688 293.199219 211.515625 293.335938 211.320312 C 296.128906 207.265625 298.800781 203.121094 301.273438 199 C 301.398438 198.796875 301.484375 198.574219 301.519531 198.339844 C 301.558594 198.101562 301.550781 197.863281 301.492188 197.628906 C 301.4375 197.394531 301.339844 197.183594 301.195312 196.988281 C 301.054688 196.792969 300.878906 196.632812 300.671875 196.511719 C 300.464844 196.386719 300.242188 196.308594 300.003906 196.273438 C 299.765625 196.238281 299.53125 196.25 299.296875 196.3125 C 299.0625 196.371094 298.851562 196.476562 298.660156 196.621094 C 298.46875 196.765625 298.3125 196.945312 298.191406 197.152344 Z M 298.191406 197.152344 " fill-opacity="1" fill-rule="nonzero"/><path fill="#000000" d="M 196.199219 48.902344 C 196.46875 48.902344 196.726562 48.84375 196.96875 48.730469 C 201.269531 46.695312 205.710938 45.023438 210.285156 43.714844 C 210.527344 43.660156 210.742188 43.558594 210.941406 43.410156 C 211.136719 43.265625 211.296875 43.085938 211.421875 42.875 C 211.546875 42.664062 211.621094 42.4375 211.652344 42.191406 C 211.683594 41.949219 211.667969 41.710938 211.597656 41.472656 C 211.53125 41.238281 211.421875 41.023438 211.265625 40.835938 C 211.109375 40.644531 210.925781 40.492188 210.707031 40.378906 C 210.492188 40.261719 210.261719 40.195312 210.015625 40.175781 C 209.773438 40.15625 209.535156 40.183594 209.300781 40.261719 C 204.535156 41.621094 199.910156 43.363281 195.429688 45.480469 C 195.050781 45.660156 194.769531 45.941406 194.585938 46.316406 C 194.402344 46.695312 194.355469 47.089844 194.445312 47.5 C 194.539062 47.910156 194.75 48.246094 195.078125 48.507812 C 195.40625 48.773438 195.78125 48.902344 196.199219 48.902344 Z M 196.199219 48.902344 " fill-opacity="1" fill-rule="nonzero"/><path fill="#000000" d="M 185.691406 50.847656 C 181.503906 53.5 177.558594 56.472656 173.855469 59.765625 C 173.667969 59.917969 173.519531 60.105469 173.40625 60.320312 C 173.292969 60.539062 173.226562 60.769531 173.207031 61.011719 C 173.191406 61.253906 173.21875 61.492188 173.296875 61.722656 C 173.375 61.953125 173.496094 62.160156 173.65625 62.34375 C 173.820312 62.527344 174.011719 62.671875 174.230469 62.773438 C 174.453125 62.878906 174.683594 62.9375 174.925781 62.945312 C 175.171875 62.957031 175.40625 62.917969 175.636719 62.832031 C 175.863281 62.746094 176.066406 62.617188 176.242188 62.449219 C 179.800781 59.285156 183.589844 56.429688 187.609375 53.878906 C 187.808594 53.75 187.972656 53.589844 188.105469 53.394531 C 188.242188 53.199219 188.332031 52.988281 188.382812 52.757812 C 188.433594 52.527344 188.4375 52.292969 188.394531 52.0625 C 188.351562 51.828125 188.269531 51.613281 188.144531 51.414062 C 188.015625 51.214844 187.859375 51.046875 187.664062 50.910156 C 187.472656 50.773438 187.261719 50.679688 187.03125 50.625 C 186.804688 50.574219 186.570312 50.566406 186.339844 50.601562 C 186.105469 50.640625 185.890625 50.71875 185.6875 50.84375 Z M 185.691406 50.847656 " fill-opacity="1" fill-rule="nonzero"/><path fill="#000000" d="M 219.871094 283.332031 C 220.253906 283.332031 220.597656 283.222656 220.90625 283.003906 C 224.902344 280.179688 228.859375 277.261719 232.664062 274.320312 C 232.859375 274.175781 233.015625 274 233.136719 273.792969 C 233.257812 273.585938 233.335938 273.363281 233.367188 273.125 C 233.402344 272.886719 233.386719 272.648438 233.324219 272.417969 C 233.261719 272.183594 233.15625 271.972656 233.011719 271.785156 C 232.863281 271.59375 232.683594 271.4375 232.476562 271.320312 C 232.265625 271.199219 232.042969 271.125 231.804688 271.097656 C 231.566406 271.070312 231.332031 271.085938 231.097656 271.152344 C 230.867188 271.21875 230.65625 271.324219 230.46875 271.476562 C 226.703125 274.382812 222.789062 277.273438 218.835938 280.066406 C 218.515625 280.292969 218.292969 280.589844 218.167969 280.960938 C 218.042969 281.332031 218.039062 281.707031 218.160156 282.078125 C 218.277344 282.453125 218.496094 282.753906 218.8125 282.984375 C 219.125 283.214844 219.480469 283.332031 219.871094 283.332031 Z M 219.871094 283.332031 " fill-opacity="1" fill-rule="nonzero"/><path fill="#000000" d="M 257.742188 247.792969 C 257.566406 247.957031 257.429688 248.152344 257.332031 248.371094 C 257.234375 248.589844 257.183594 248.820312 257.179688 249.0625 C 257.175781 249.304688 257.21875 249.535156 257.308594 249.761719 C 257.394531 249.984375 257.523438 250.183594 257.695312 250.355469 C 257.863281 250.527344 258.058594 250.660156 258.28125 250.753906 C 258.5 250.847656 258.734375 250.894531 258.972656 250.894531 C 259.214844 250.894531 259.445312 250.847656 259.667969 250.757812 C 259.890625 250.664062 260.085938 250.53125 260.257812 250.359375 C 263.757812 246.929688 267.183594 243.402344 270.449219 239.859375 C 270.613281 239.6875 270.738281 239.488281 270.824219 239.261719 C 270.910156 239.035156 270.949219 238.804688 270.941406 238.5625 C 270.933594 238.324219 270.878906 238.09375 270.777344 237.875 C 270.679688 237.65625 270.539062 237.464844 270.363281 237.300781 C 270.1875 237.140625 269.984375 237.015625 269.757812 236.933594 C 269.53125 236.851562 269.300781 236.816406 269.058594 236.828125 C 268.820312 236.839844 268.589844 236.898438 268.371094 237 C 268.15625 237.105469 267.964844 237.246094 267.804688 237.425781 C 264.585938 240.921875 261.199219 244.410156 257.742188 247.792969 Z M 257.742188 247.792969 " fill-opacity="1" fill-rule="nonzero"/><path fill="#000000" d="M 245.570312 41.09375 C 250.289062 41.703125 254.925781 42.6875 259.484375 44.054688 C 259.714844 44.125 259.945312 44.148438 260.183594 44.125 C 260.421875 44.097656 260.644531 44.03125 260.855469 43.917969 C 261.0625 43.804688 261.246094 43.65625 261.394531 43.472656 C 261.546875 43.285156 261.65625 43.082031 261.722656 42.851562 C 261.792969 42.625 261.816406 42.390625 261.789062 42.15625 C 261.765625 41.917969 261.699219 41.695312 261.585938 41.484375 C 261.472656 41.273438 261.324219 41.09375 261.140625 40.941406 C 260.953125 40.792969 260.75 40.683594 260.519531 40.613281 C 255.773438 39.191406 250.941406 38.160156 246.027344 37.527344 C 245.792969 37.5 245.5625 37.519531 245.335938 37.585938 C 245.109375 37.648438 244.902344 37.753906 244.714844 37.902344 C 244.53125 38.046875 244.378906 38.222656 244.261719 38.425781 C 244.148438 38.632812 244.074219 38.851562 244.042969 39.085938 C 244.011719 39.320312 244.027344 39.550781 244.089844 39.777344 C 244.152344 40.003906 244.253906 40.214844 244.394531 40.402344 C 244.539062 40.589844 244.710938 40.742188 244.914062 40.863281 C 245.117188 40.984375 245.335938 41.058594 245.570312 41.09375 Z M 245.570312 41.09375 " fill-opacity="1" fill-rule="nonzero"/><path fill="#000000" d="M 240.085938 267.886719 C 240.519531 267.886719 240.898438 267.75 241.230469 267.472656 C 245.003906 264.351562 248.71875 261.128906 252.28125 257.890625 C 252.457031 257.730469 252.59375 257.542969 252.695312 257.328125 C 252.796875 257.109375 252.855469 256.882812 252.863281 256.644531 C 252.875 256.40625 252.839844 256.175781 252.761719 255.953125 C 252.679688 255.726562 252.558594 255.527344 252.398438 255.351562 C 252.238281 255.175781 252.050781 255.035156 251.835938 254.933594 C 251.621094 254.832031 251.394531 254.777344 251.15625 254.765625 C 250.917969 254.753906 250.6875 254.789062 250.460938 254.871094 C 250.238281 254.949219 250.039062 255.070312 249.859375 255.230469 C 246.339844 258.433594 242.667969 261.621094 238.941406 264.703125 C 238.648438 264.945312 238.453125 265.25 238.351562 265.613281 C 238.253906 265.980469 238.269531 266.339844 238.394531 266.699219 C 238.523438 267.054688 238.742188 267.339844 239.054688 267.558594 C 239.363281 267.777344 239.707031 267.886719 240.085938 267.886719 Z M 240.085938 267.886719 " fill-opacity="1" fill-rule="nonzero"/><g clip-path="url(#8c99f56aa5)"><path fill="#000000" d="M 220.433594 41.445312 C 220.527344 41.445312 220.621094 41.4375 220.714844 41.425781 C 225.21875 40.722656 229.746094 40.375 234.304688 40.375 L 234.925781 40.375 C 235.160156 40.371094 235.386719 40.320312 235.601562 40.230469 C 235.820312 40.136719 236.007812 40.007812 236.175781 39.839844 C 236.339844 39.671875 236.46875 39.480469 236.558594 39.261719 C 236.648438 39.042969 236.691406 38.820312 236.691406 38.582031 C 236.695312 38.347656 236.648438 38.121094 236.5625 37.902344 C 236.472656 37.683594 236.347656 37.492188 236.183594 37.324219 C 236.019531 37.15625 235.828125 37.023438 235.613281 36.929688 C 235.398438 36.835938 235.171875 36.785156 234.9375 36.78125 C 234.726562 36.78125 234.515625 36.78125 234.304688 36.78125 C 229.5625 36.78125 224.847656 37.148438 220.160156 37.878906 C 219.9375 37.910156 219.726562 37.988281 219.53125 38.101562 C 219.335938 38.214844 219.167969 38.359375 219.027344 38.539062 C 218.886719 38.714844 218.785156 38.910156 218.71875 39.128906 C 218.652344 39.34375 218.628906 39.566406 218.644531 39.789062 C 218.664062 40.015625 218.722656 40.230469 218.820312 40.433594 C 218.917969 40.636719 219.050781 40.816406 219.214844 40.96875 C 219.382812 41.125 219.570312 41.242188 219.78125 41.324219 C 219.992188 41.410156 220.207031 41.449219 220.433594 41.449219 Z M 220.433594 41.445312 " fill-opacity="1" fill-rule="nonzero"/></g><g clip-path="url(#7144e112d3)"><path fill="#000000" d="M 367.625 298.023438 C 366.316406 289.972656 364.148438 282.875 361.167969 276.898438 C 360.859375 276.28125 360.542969 275.675781 360.214844 275.082031 C 355.921875 267.246094 350.121094 261.511719 342.96875 258.039062 C 342.753906 257.9375 342.535156 257.835938 342.320312 257.734375 C 342.226562 257.691406 342.132812 257.652344 342.039062 257.609375 C 341.917969 257.554688 341.796875 257.496094 341.671875 257.445312 C 341.550781 257.390625 341.429688 257.339844 341.304688 257.289062 L 341.03125 257.171875 C 340.886719 257.113281 340.742188 257.054688 340.597656 256.996094 L 340.398438 256.921875 C 340.234375 256.855469 340.066406 256.792969 339.898438 256.730469 L 339.78125 256.6875 C 339.589844 256.617188 339.398438 256.546875 339.207031 256.476562 L 339.195312 256.476562 C 336.683594 255.597656 334.109375 255.007812 331.46875 254.714844 C 331.417969 254.707031 331.367188 254.707031 331.316406 254.703125 C 321.242188 253.621094 310.890625 256.890625 302.878906 264.121094 C 294.726562 271.476562 289.441406 281.042969 284.328125 290.285156 C 282.464844 293.65625 280.539062 297.144531 278.511719 300.433594 C 268.90625 316.066406 259.472656 325.347656 247.925781 330.523438 C 241.109375 333.578125 234.054688 335.109375 227.277344 335.109375 C 221.144531 335.109375 215.238281 333.855469 209.9375 331.339844 C 201.804688 327.480469 196.425781 319.707031 196.234375 311.53125 C 196.015625 302.140625 203.601562 293.9375 210.769531 289.390625 C 210.976562 289.265625 211.152344 289.105469 211.292969 288.910156 C 211.433594 288.714844 211.535156 288.5 211.589844 288.265625 C 211.644531 288.03125 211.652344 287.792969 211.609375 287.554688 C 211.570312 287.316406 211.484375 287.097656 211.355469 286.894531 C 211.226562 286.6875 211.0625 286.519531 210.867188 286.378906 C 210.667969 286.242188 210.449219 286.148438 210.214844 286.097656 C 209.980469 286.046875 209.742188 286.042969 209.503906 286.089844 C 209.269531 286.132812 209.046875 286.222656 208.847656 286.355469 C 205.6875 288.359375 201.167969 291.804688 197.589844 296.847656 C 194.191406 301.636719 192.527344 306.605469 192.644531 311.617188 C 192.757812 316.445312 194.371094 321.191406 197.316406 325.332031 C 200.109375 329.273438 203.945312 332.472656 208.398438 334.585938 C 214.132812 337.304688 220.445312 338.683594 227.183594 338.683594 C 227.789062 338.683594 228.402344 338.671875 229.015625 338.652344 C 235.824219 338.402344 242.875 336.726562 249.398438 333.804688 C 256.144531 330.78125 262.210938 326.417969 267.945312 320.460938 C 272.570312 315.65625 277.03125 309.71875 281.582031 302.316406 C 283.648438 298.957031 285.59375 295.433594 287.476562 292.03125 C 292.445312 283.039062 297.582031 273.746094 305.292969 266.792969 C 314.582031 258.410156 327.347656 255.914062 338.570312 260.078125 L 338.601562 260.089844 C 338.769531 260.152344 338.941406 260.214844 339.109375 260.28125 L 339.238281 260.332031 C 339.382812 260.390625 339.523438 260.449219 339.667969 260.507812 L 339.882812 260.597656 C 340.003906 260.648438 340.121094 260.699219 340.238281 260.746094 C 340.34375 260.792969 340.449219 260.839844 340.554688 260.890625 C 340.640625 260.929688 340.730469 260.964844 340.816406 261.007812 C 341.011719 261.097656 341.207031 261.1875 341.402344 261.28125 C 355.144531 267.953125 361.023438 282.96875 363.515625 295.484375 C 363.726562 296.546875 363.914062 297.589844 364.078125 298.609375 C 364.085938 298.660156 364.097656 298.710938 364.113281 298.757812 C 364.113281 298.761719 364.113281 298.769531 364.113281 298.773438 C 364.125 298.820312 364.136719 298.867188 364.152344 298.910156 C 364.152344 298.917969 364.160156 298.925781 364.160156 298.933594 C 364.179688 298.976562 364.195312 299.019531 364.214844 299.0625 C 364.214844 299.070312 364.222656 299.078125 364.226562 299.085938 C 364.246094 299.128906 364.265625 299.167969 364.289062 299.207031 L 364.296875 299.226562 C 364.324219 299.265625 364.347656 299.308594 364.371094 299.347656 C 364.398438 299.386719 364.429688 299.421875 364.457031 299.460938 L 364.472656 299.472656 C 364.5 299.507812 364.53125 299.542969 364.5625 299.574219 L 364.582031 299.59375 C 364.613281 299.625 364.644531 299.652344 364.679688 299.679688 L 364.699219 299.699219 C 364.734375 299.726562 364.765625 299.753906 364.804688 299.78125 L 364.820312 299.792969 C 364.859375 299.820312 364.894531 299.84375 364.9375 299.867188 L 364.941406 299.867188 C 364.984375 299.890625 365.023438 299.910156 365.066406 299.929688 L 365.082031 299.941406 C 365.125 299.957031 365.164062 299.976562 365.207031 299.992188 L 365.230469 300 C 365.273438 300.015625 365.316406 300.03125 365.359375 300.042969 L 365.382812 300.050781 C 365.429688 300.0625 365.472656 300.070312 365.519531 300.078125 L 365.535156 300.078125 C 365.585938 300.085938 365.632812 300.09375 365.679688 300.097656 C 365.730469 300.105469 365.78125 300.105469 365.832031 300.105469 L 365.847656 300.105469 C 365.890625 300.105469 365.933594 300.105469 365.972656 300.101562 L 366.003906 300.101562 C 366.046875 300.097656 366.089844 300.09375 366.132812 300.085938 C 366.367188 300.046875 366.585938 299.964844 366.789062 299.839844 C 366.992188 299.714844 367.164062 299.554688 367.300781 299.363281 C 367.441406 299.167969 367.539062 298.957031 367.59375 298.722656 C 367.648438 298.492188 367.65625 298.257812 367.617188 298.023438 Z M 367.625 298.023438 " fill-opacity="1" fill-rule="nonzero"/></g><path fill="#000000" d="M 332.953125 258.546875 C 332.023438 259.75 330.710938 260.324219 329.664062 259.867188 C 328.328125 259.28125 327.933594 257.230469 328.785156 255.285156 C 329.636719 253.34375 331.414062 252.238281 332.75 252.824219 C 333.546875 253.175781 334.003906 254.042969 334.070312 255.097656 C 335.105469 255.292969 336.128906 255.535156 337.140625 255.820312 C 346.027344 234.179688 374.96875 162.808594 372.636719 161.785156 C 369.921875 160.597656 325.984375 254.898438 324.796875 257.613281 C 324.652344 257.933594 324.539062 258.269531 324.460938 258.613281 C 324.378906 258.960938 324.335938 259.308594 324.324219 259.664062 C 324.316406 260.019531 324.339844 260.371094 324.402344 260.71875 C 324.460938 261.070312 324.554688 261.410156 324.679688 261.742188 C 324.808594 262.070312 324.96875 262.386719 325.15625 262.6875 C 325.347656 262.984375 325.5625 263.261719 325.808594 263.519531 C 326.054688 263.777344 326.320312 264.003906 326.613281 264.207031 C 326.902344 264.410156 327.210938 264.585938 327.535156 264.726562 C 327.859375 264.867188 328.195312 264.976562 328.539062 265.054688 C 328.886719 265.128906 329.238281 265.171875 329.589844 265.175781 C 329.945312 265.183594 330.296875 265.15625 330.644531 265.089844 C 330.996094 265.027344 331.335938 264.929688 331.664062 264.800781 C 331.992188 264.667969 332.304688 264.507812 332.605469 264.3125 C 332.902344 264.121094 333.175781 263.902344 333.429688 263.652344 C 333.683594 263.40625 333.910156 263.136719 334.113281 262.84375 C 334.3125 262.550781 334.480469 262.242188 334.621094 261.914062 C 334.722656 261.679688 335.125 260.71875 335.765625 259.167969 C 334.839844 258.917969 333.902344 258.710938 332.953125 258.546875 Z M 332.953125 258.546875 " fill-opacity="1" fill-rule="nonzero"/></svg>