<svg xmlns="http://www.w3.org/2000/svg" xmlns:xlink="http://www.w3.org/1999/xlink" width="500" zoomAndPan="magnify" viewBox="0 0 375 374.999991" height="500" preserveAspectRatio="xMidYMid meet" version="1.0"><defs><clipPath id="fe3e1acf69"><path d="M 47.578125 0 L 327.328125 0 L 327.328125 375 L 47.578125 375 Z M 47.578125 0 " clip-rule="nonzero"/></clipPath></defs><g clip-path="url(#fe3e1acf69)"><path fill="#000000" d="M 66.375 25.917969 C 68.046875 23.027344 71.742188 22.035156 74.636719 23.707031 L 90.28125 32.742188 C 93.171875 34.414062 94.164062 38.113281 92.496094 41.003906 C 91.375 42.945312 89.34375 44.027344 87.253906 44.027344 C 86.226562 44.027344 85.1875 43.769531 84.234375 43.21875 L 68.589844 34.183594 C 65.695312 32.511719 64.707031 28.8125 66.375 25.917969 Z M 77.804688 95.847656 C 77.804688 92.507812 75.097656 89.796875 71.757812 89.796875 L 53.691406 89.796875 C 50.351562 89.796875 47.644531 92.507812 47.644531 95.847656 C 47.644531 99.1875 50.351562 101.894531 53.691406 101.894531 L 71.757812 101.894531 C 75.097656 101.894531 77.804688 99.1875 77.804688 95.847656 Z M 74.636719 167.988281 L 90.28125 158.953125 C 93.171875 157.28125 94.164062 153.582031 92.496094 150.691406 C 90.824219 147.796875 87.128906 146.804688 84.234375 148.476562 L 68.589844 157.511719 C 65.695312 159.179688 64.707031 162.878906 66.375 165.773438 C 67.496094 167.714844 69.527344 168.796875 71.617188 168.796875 C 72.644531 168.800781 73.683594 168.539062 74.636719 167.988281 Z M 321.214844 89.796875 L 303.148438 89.796875 C 299.808594 89.796875 297.101562 92.507812 297.101562 95.847656 C 297.101562 99.1875 299.808594 101.894531 303.148438 101.894531 L 321.214844 101.894531 C 324.554688 101.894531 327.261719 99.1875 327.261719 95.847656 C 327.261719 92.507812 324.554688 89.796875 321.214844 89.796875 Z M 287.652344 44.027344 C 288.679688 44.027344 289.71875 43.769531 290.671875 43.21875 L 306.316406 34.183594 C 309.207031 32.511719 310.199219 28.8125 308.53125 25.917969 C 306.859375 23.027344 303.164062 22.035156 300.269531 23.707031 L 284.625 32.742188 C 281.734375 34.414062 280.742188 38.113281 282.410156 41.003906 C 283.53125 42.945312 285.5625 44.027344 287.652344 44.027344 Z M 284.625 158.953125 L 300.269531 167.988281 C 301.222656 168.539062 302.261719 168.800781 303.285156 168.800781 C 305.375 168.800781 307.410156 167.714844 308.527344 165.773438 C 310.199219 162.882812 309.207031 159.183594 306.316406 157.511719 L 290.671875 148.476562 C 287.777344 146.804688 284.082031 147.796875 282.410156 150.691406 C 280.742188 153.582031 281.734375 157.28125 284.625 158.953125 Z M 308.542969 181.578125 C 314.910156 216.769531 308.464844 253.222656 290.394531 284.21875 C 273.023438 314.015625 245.964844 336.929688 213.898438 349.128906 C 213.625 356.097656 212.863281 363.082031 211.605469 370.027344 C 211.082031 372.929688 208.550781 375 205.660156 375 C 205.464844 375 205.265625 374.988281 205.0625 374.96875 C 196.835938 374.160156 188.628906 372.667969 180.667969 370.535156 C 143.914062 360.683594 112.503906 337.535156 92.222656 305.359375 C 72.058594 273.363281 64.652344 235.320312 71.363281 198.238281 C 71.921875 195.136719 74.761719 192.988281 77.90625 193.296875 C 86.128906 194.109375 94.339844 195.601562 102.300781 197.734375 C 118.980469 202.207031 134.554688 209.421875 148.492188 218.972656 L 148.492188 215.753906 C 141.027344 213.363281 135.609375 206.359375 135.609375 198.113281 L 135.609375 185.84375 C 133.703125 153.789062 125.402344 139.597656 118.078125 127.074219 C 111.203125 115.320312 104.707031 104.21875 104.707031 82.769531 C 104.707031 37.132812 141.828125 0 187.453125 0 C 233.078125 0 270.195312 37.132812 270.195312 82.769531 C 270.195312 104.214844 263.703125 115.320312 256.828125 127.074219 C 249.503906 139.597656 241.203125 153.792969 239.296875 185.855469 L 239.296875 197.265625 C 251.117188 190.207031 263.980469 184.726562 277.605469 181.074219 C 285.5625 178.941406 293.773438 177.449219 302 176.636719 C 305.140625 176.324219 307.980469 178.476562 308.542969 181.578125 Z M 192.234375 241.566406 L 174.472656 241.566406 C 178.0625 245.5 181.460938 249.628906 184.640625 253.957031 C 186.988281 249.691406 189.515625 245.550781 192.234375 241.566406 Z M 213.589844 216.628906 L 160.582031 216.628906 L 160.582031 223.050781 C 160.582031 226.589844 163.460938 229.46875 167 229.46875 L 201.433594 229.46875 C 205.242188 224.949219 209.296875 220.65625 213.589844 216.628906 Z M 128.515625 120.964844 C 136.089844 133.914062 144.621094 148.496094 147.285156 179.597656 L 168.164062 179.597656 L 168.164062 107.214844 L 156.386719 107.214844 C 143.222656 107.214844 132.515625 96.503906 132.515625 83.335938 C 132.515625 70.171875 143.222656 59.460938 156.386719 59.460938 C 169.546875 59.460938 180.253906 70.171875 180.253906 83.335938 L 180.253906 95.117188 L 194.652344 95.117188 L 194.652344 83.335938 C 194.652344 70.171875 205.359375 59.460938 218.523438 59.460938 C 231.683594 59.460938 242.390625 70.171875 242.390625 83.335938 C 242.390625 96.503906 231.683594 107.214844 218.523438 107.214844 L 206.746094 107.214844 L 206.746094 179.597656 L 227.625 179.597656 C 230.285156 148.496094 238.816406 133.914062 246.390625 120.964844 C 252.933594 109.773438 258.105469 100.9375 258.105469 82.769531 C 258.105469 43.800781 226.410156 12.097656 187.453125 12.097656 C 148.496094 12.097656 116.800781 43.800781 116.800781 82.769531 C 116.800781 100.9375 121.96875 109.773438 128.515625 120.964844 Z M 168.164062 83.335938 C 168.164062 76.839844 162.878906 71.554688 156.386719 71.554688 C 149.890625 71.554688 144.609375 76.839844 144.609375 83.335938 C 144.609375 89.832031 149.890625 95.117188 156.386719 95.117188 L 168.164062 95.117188 Z M 194.652344 107.214844 L 180.253906 107.214844 L 180.253906 179.597656 L 194.652344 179.597656 Z M 218.519531 95.117188 C 225.015625 95.117188 230.296875 89.832031 230.296875 83.335938 C 230.296875 76.839844 225.015625 71.554688 218.519531 71.554688 C 212.027344 71.554688 206.742188 76.839844 206.742188 83.335938 L 206.742188 95.117188 Z M 147.703125 198.113281 C 147.703125 201.65625 150.582031 204.535156 154.121094 204.535156 L 220.785156 204.535156 C 224.324219 204.535156 227.203125 201.652344 227.203125 198.113281 L 227.203125 191.695312 L 147.703125 191.695312 Z M 183.796875 358.847656 C 186.460938 359.5625 189.15625 360.195312 191.867188 360.75 L 136.664062 287.785156 C 134.648438 285.121094 135.171875 281.328125 137.835938 279.3125 C 140.496094 277.296875 144.289062 277.820312 146.304688 280.484375 L 201.523438 353.464844 C 206.265625 288.257812 163.542969 226.675781 99.171875 209.417969 C 93.667969 207.945312 88.035156 206.800781 82.363281 206.007812 C 72.902344 274.394531 116.535156 340.820312 183.796875 358.847656 Z M 297.535156 189.347656 C 291.867188 190.140625 286.234375 191.285156 280.734375 192.761719 C 242.03125 203.132812 209.96875 229.535156 192.289062 265.425781 C 198.648438 275.964844 203.644531 287.125 207.234375 298.667969 L 233.597656 263.824219 C 235.613281 261.160156 239.40625 260.636719 242.070312 262.652344 C 244.730469 264.667969 245.253906 268.460938 243.242188 271.125 L 211.0625 313.652344 C 212.554688 321.054688 213.484375 328.5625 213.839844 336.125 C 271.113281 312.078125 306.054688 251.085938 297.535156 189.347656 Z M 297.535156 189.347656 " fill-opacity="1" fill-rule="nonzero"/></g></svg>