<svg xmlns="http://www.w3.org/2000/svg" xmlns:xlink="http://www.w3.org/1999/xlink" width="720" zoomAndPan="magnify" viewBox="0 0 540 809.999993" height="1080" preserveAspectRatio="xMidYMid meet" version="1.0"><defs><clipPath id="3784018997"><path d="M 1 63 L 537 63 L 537 764 L 1 764 Z M 1 63 " clip-rule="nonzero"/></clipPath><clipPath id="ea4d6140a9"><path d="M -39.414062 273.984375 L 465.570312 -7.730469 L 783.824219 562.753906 L 278.835938 844.46875 Z M -39.414062 273.984375 " clip-rule="nonzero"/></clipPath><clipPath id="17f5f19202"><path d="M -39.414062 273.984375 L 465.570312 -7.730469 L 783.824219 562.753906 L 278.835938 844.46875 Z M -39.414062 273.984375 " clip-rule="nonzero"/></clipPath><clipPath id="ab03b086a0"><path d="M 54 133 L 540 133 L 540 621.523438 L 54 621.523438 Z M 54 133 " clip-rule="nonzero"/></clipPath></defs><g clip-path="url(#3784018997)"><g clip-path="url(#ea4d6140a9)"><g clip-path="url(#17f5f19202)"><path fill="#1a1a1a" d="M 536.550781 616.695312 C 534.1875 648.558594 521.324219 679.460938 500.855469 703.996094 C 480.390625 728.53125 452.472656 746.652344 421.910156 755.960938 C 391.34375 765.269531 358.25 765.8125 327.238281 758.121094 C 296.226562 750.433594 267.351562 734.597656 243.769531 713.042969 C 206.496094 678.976562 183.492188 632.367188 162.882812 586.269531 C 142.273438 540.167969 122.726562 492.613281 90.285156 453.921875 C 73.160156 433.5 52.796875 416 35.464844 395.753906 C 18.136719 375.511719 3.558594 351.46875 1.34375 324.910156 C 0.046875 309.335938 3.128906 293.511719 9.476562 279.226562 C 15.828125 264.945312 25.386719 252.1875 36.789062 241.496094 C 59.597656 220.117188 89.226562 207.28125 119.425781 199.203125 C 149.625 191.121094 180.789062 187.421875 211.550781 181.859375 C 242.3125 176.292969 273.160156 168.691406 300.511719 153.550781 C 335.660156 134.097656 363.273438 103.203125 397.796875 82.660156 C 415.058594 72.386719 434.273438 64.730469 454.316406 63.445312 C 474.363281 62.15625 495.320312 67.753906 510.230469 81.214844 C 518.34375 88.535156 524.460938 97.960938 528.339844 108.175781 C 532.21875 118.394531 533.894531 129.390625 533.761719 140.316406 C 533.5 162.171875 526.121094 183.402344 516.308594 202.933594 C 506.496094 222.460938 494.230469 240.640625 483.289062 259.5625 C 472.347656 278.484375 462.617188 298.46875 458.53125 319.941406 C 453.066406 348.648438 458.03125 378.507812 467.417969 406.183594 C 476.804688 433.863281 490.488281 459.84375 503.066406 486.222656 C 522.613281 527.230469 539.914062 571.390625 536.550781 616.695312 Z M 536.550781 616.695312 " fill-opacity="1" fill-rule="nonzero"/></g></g></g><g clip-path="url(#ab03b086a0)"><path fill="#ffffff" d="M 607.628906 473.800781 C 596.480469 475.324219 581.792969 477.140625 575.117188 477.175781 C 575.105469 477.175781 575.09375 477.175781 575.082031 477.175781 C 573.433594 477.175781 572.003906 476.578125 570.835938 475.390625 C 570.140625 474.6875 569.570312 473.820312 569.101562 472.859375 C 569.808594 468.4375 569.640625 463.433594 569.222656 459.988281 C 568.539062 454.308594 567.597656 454.359375 567.195312 454.375 C 566.535156 454.410156 565.933594 454.890625 565.828125 460.335938 C 565.789062 462.445312 565.871094 468.519531 567.925781 473.027344 C 567.75 474.03125 567.527344 475.003906 567.246094 475.917969 C 566.246094 479.148438 564.699219 480.984375 562.644531 481.382812 C 555.410156 482.773438 450.539062 500.070312 372.199219 512.09375 C 371.246094 511.113281 370.289062 510.097656 369.328125 509.039062 C 361.078125 499.949219 353.960938 489.3125 348.023438 480.097656 C 410.859375 472.367188 493.617188 460.246094 528.019531 455.210938 C 535.195312 454.160156 540.378906 453.402344 543.445312 452.960938 C 548.476562 452.242188 560.246094 450.179688 560.800781 446.554688 C 560.996094 445.285156 559.964844 444.128906 557.644531 443.019531 C 551.558594 440.109375 545.460938 438.519531 539.566406 436.984375 C 527.476562 433.835938 517.039062 431.117188 513.855469 417.648438 C 509.832031 400.644531 503.320312 365.984375 502.933594 363.671875 C 502.742188 362.527344 502.789062 360.710938 502.835938 358.953125 C 502.839844 358.765625 502.847656 358.578125 502.851562 358.398438 C 503.492188 358.445312 504.226562 358.398438 505.066406 358.234375 C 509.492188 357.375 513.054688 354.433594 515.65625 349.496094 C 518.449219 344.191406 520.015625 336.644531 520.066406 328.238281 C 520.109375 320.753906 518.9375 313.515625 516.925781 308.882812 C 512.523438 298.738281 504.453125 293.023438 494.789062 293.214844 C 493.34375 293.242188 492.15625 293.816406 491.257812 294.925781 C 487.199219 299.917969 489.984375 314.703125 491.648438 323.535156 C 491.890625 324.8125 492.097656 325.917969 492.246094 326.804688 C 494.5 340.125 499.675781 366.316406 504.238281 389.421875 C 507.113281 403.964844 509.828125 417.699219 511.359375 425.949219 C 511.511719 426.769531 511.699219 427.628906 511.878906 428.457031 C 513.0625 433.882812 514.179688 439.003906 508.296875 440.773438 C 506.476562 441.316406 488.59375 443.621094 470.316406 445.527344 C 456.648438 446.957031 432.496094 449.242188 424.308594 448.503906 C 422.050781 448.304688 420.035156 448.148438 418.085938 448 C 407.664062 447.203125 401.925781 446.765625 392.21875 441.375 C 383.425781 436.488281 372.738281 437.207031 364.933594 437.730469 C 362.210938 437.914062 359.859375 438.074219 357.996094 437.980469 C 354.804688 437.820312 351.730469 437.390625 347.84375 436.84375 C 342.882812 436.148438 336.707031 435.28125 327.722656 434.65625 C 324.308594 434.417969 321.671875 434.304688 319.628906 434.3125 C 320.339844 432.753906 321.074219 431.03125 321.820312 429.175781 C 325.082031 421.078125 327.652344 412.777344 328.363281 408.023438 C 329.585938 399.863281 333.46875 386.632812 336.507812 380.261719 C 337.734375 377.695312 339.457031 375.710938 341.507812 374.453125 C 340.40625 377.082031 339.144531 379.898438 337.921875 382.628906 C 334.152344 391.03125 330.25 399.722656 330.25 404.757812 C 330.25 412.898438 334.195312 419.695312 342.308594 425.535156 C 348.863281 430.253906 354.140625 432.027344 357.996094 430.804688 C 360.648438 429.96875 362.621094 427.726562 363.859375 424.148438 C 366.890625 415.390625 375.242188 408.035156 379.351562 406.421875 C 378.304688 407.757812 377.054688 409.148438 375.71875 410.636719 C 371.523438 415.3125 366.769531 420.605469 365.527344 427.554688 C 365 430.515625 364.6875 433.105469 366.191406 434.828125 C 367.464844 436.28125 369.847656 436.882812 373.6875 436.71875 C 378.804688 436.5 382.742188 434.832031 385.382812 431.757812 C 388.996094 427.554688 390.242188 420.816406 389.1875 411.160156 C 388.757812 407.207031 387.875 404.957031 386.414062 404.066406 C 385.152344 403.292969 383.691406 403.65625 382.230469 404.183594 C 384.207031 400.601562 384.261719 397.050781 379.890625 393.105469 C 374.53125 388.273438 364.722656 381.777344 358.234375 377.476562 C 355.621094 375.746094 353.554688 374.375 352.585938 373.648438 C 350.316406 371.945312 347.179688 371.367188 344.195312 372.101562 C 344.023438 372.140625 343.851562 372.1875 343.683594 372.238281 C 347.484375 363.507812 349.65625 362.390625 360.421875 361.382812 C 362.328125 361.203125 364.332031 360.921875 366.457031 360.628906 C 377.285156 359.125 389.554688 357.417969 393.433594 368.753906 C 396.808594 378.625 393.9375 398.152344 392.039062 411.078125 C 391.25 416.421875 390.628906 420.640625 390.628906 422.855469 C 390.628906 424.214844 390.507812 425.640625 390.386719 427.015625 C 389.835938 433.339844 389.261719 439.882812 400.316406 442.25 C 403.296875 442.886719 405.972656 443.492188 408.332031 444.027344 C 416.183594 445.804688 421.367188 446.980469 426.136719 446.691406 C 426.746094 446.652344 427.269531 446.632812 427.734375 446.621094 C 429.214844 446.570312 430.03125 446.542969 430.5625 445.957031 C 431.160156 445.300781 431.101562 444.285156 430.957031 441.835938 C 430.859375 440.179688 430.726562 437.90625 430.726562 434.679688 C 430.726562 411.835938 430.707031 358.039062 430.539062 351.945312 C 430.414062 347.453125 428 344.644531 425.148438 342.429688 C 426.015625 341.21875 427.125 340.089844 429.527344 339.59375 C 439.023438 337.640625 444.957031 331.449219 445.394531 323.035156 C 445.753906 316.148438 442.054688 309.691406 436.789062 308.023438 C 432.113281 306.539062 426.367188 307.519531 422.8125 310.40625 C 422.070312 311.007812 421.464844 311.667969 421.003906 312.359375 C 418.714844 313.351562 416.21875 316 415.554688 320.859375 C 414.621094 327.707031 414.578125 336.59375 419.675781 340.058594 C 420.15625 340.386719 420.652344 340.710938 421.152344 341.039062 C 421.972656 341.578125 422.800781 342.121094 423.597656 342.695312 C 422.628906 344.164062 421.824219 345.316406 419.40625 345.480469 C 416.445312 345.675781 405.417969 345.5 394.753906 345.324219 C 385.609375 345.175781 376.148438 345.023438 371.792969 345.109375 C 369.183594 345.15625 367.269531 344.757812 365.804688 343.949219 C 367.058594 343.996094 368.1875 344.078125 369.214844 344.152344 C 371.292969 344.300781 372.933594 344.417969 374.460938 344.214844 C 374.660156 344.191406 374.882812 344.164062 375.117188 344.136719 C 378.261719 343.757812 384.113281 343.054688 387.472656 338.460938 C 389.828125 335.238281 390.460938 330.671875 389.351562 324.894531 C 388.351562 319.664062 386.371094 314.921875 383.777344 311.542969 C 381.273438 308.277344 378.425781 306.621094 375.96875 306.996094 C 375.410156 307.082031 374.675781 307.308594 373.921875 307.875 C 372.078125 307.132812 369.679688 307.242188 366.644531 308.207031 C 362.976562 309.367188 360.140625 312.816406 358.652344 317.914062 C 357.332031 322.449219 357.277344 327.710938 358.515625 331.988281 C 358.679688 332.558594 358.835938 333.113281 358.988281 333.652344 C 360.03125 337.34375 360.929688 340.523438 362.703125 342.765625 C 359.886719 342.804688 356.539062 343.070312 352.492188 343.832031 C 343.570312 345.503906 335.929688 360.503906 329.144531 389.6875 C 326.453125 401.253906 322.496094 408.664062 317.382812 411.710938 C 314.742188 413.285156 312.050781 413.597656 309.496094 413.378906 C 309.429688 413.152344 309.328125 412.933594 309.1875 412.722656 C 308.109375 411.101562 304.914062 410.210938 296.523438 409.195312 C 291.34375 408.566406 287.34375 408.058594 284.199219 407.605469 C 284.761719 406.132812 285.019531 404.046875 285.019531 401.179688 C 285.019531 398.847656 284.84375 395.632812 284.644531 391.910156 C 283.898438 378.164062 282.769531 357.386719 287.941406 343.023438 C 289.550781 338.554688 290.53125 333.910156 291.480469 329.421875 C 293.449219 320.113281 295.207031 311.800781 301.964844 307.960938 C 302.269531 310.679688 302.789062 313.664062 303.316406 316.714844 C 304.144531 321.484375 305 326.414062 305.113281 330.65625 C 305.308594 337.855469 305.910156 346.042969 306.441406 353.269531 C 306.917969 359.765625 307.332031 365.375 307.332031 368.675781 C 307.332031 369.90625 307.273438 371.066406 307.21875 372.1875 C 306.964844 377.375 306.765625 381.472656 313.414062 381.804688 C 314.21875 381.84375 314.96875 381.929688 315.664062 382.054688 C 314.519531 382.386719 313.210938 382.425781 311.898438 382.152344 C 311.074219 381.980469 310.402344 381.816406 309.859375 381.683594 C 307.789062 381.171875 306.929688 380.960938 306.253906 382.992188 C 303.707031 390.625 306.070312 394.746094 307.707031 396.523438 C 309.910156 398.917969 313.40625 399.964844 316.605469 399.183594 C 319.476562 398.484375 321.550781 396.507812 322.300781 393.757812 C 323.445312 389.566406 323.214844 386.320312 321.613281 384.113281 C 320.886719 383.109375 319.882812 382.324219 318.605469 381.753906 C 320.09375 380.445312 320.898438 378.488281 320.9375 376.074219 C 321.015625 371.28125 320.191406 322.101562 319.863281 304.921875 C 358.980469 302.117188 448.300781 299.925781 460.980469 299.824219 C 464.375 299.800781 467.691406 299.929688 470.617188 300.042969 C 477.867188 300.328125 483.105469 300.535156 485.269531 298.453125 C 485.945312 297.804688 486.289062 296.953125 486.289062 295.929688 C 486.289062 295.1875 486.324219 294.496094 486.355469 293.886719 C 486.445312 292.039062 486.519531 290.578125 485.523438 289.535156 C 484.355469 288.304688 481.90625 287.847656 476.484375 287.847656 C 472.429688 287.847656 469.238281 288.007812 466.632812 288.152344 C 466.820312 284.570312 466.78125 278.292969 466.742188 272.171875 C 466.726562 269.769531 466.714844 267.503906 466.714844 265.457031 C 466.714844 262.285156 465.65625 260.414062 464.035156 259.308594 C 465.335938 258.503906 465.902344 257.574219 465.902344 256.671875 C 465.902344 254.195312 461.957031 252.332031 456.726562 252.332031 C 456.273438 252.332031 455.839844 252.328125 455.421875 252.328125 C 450.03125 252.3125 447.324219 252.308594 447.109375 254.886719 C 447.070312 255.339844 446.929688 255.714844 446.804688 256.042969 C 446.621094 256.511719 446.4375 256.996094 446.734375 257.472656 C 447.125 258.101562 448.105469 258.34375 451.507812 258.640625 C 452.695312 258.746094 453.964844 258.765625 455.191406 258.785156 C 457.417969 258.820312 459.519531 258.855469 461.246094 259.296875 C 459.121094 259.960938 455.859375 260.453125 451.003906 260.453125 C 449.179688 260.453125 447.957031 260.847656 447.148438 261.695312 C 445.726562 263.1875 445.847656 265.800781 446.03125 269.757812 C 446.101562 271.316406 446.183594 273.082031 446.183594 275.058594 C 446.183594 284.15625 448.527344 287.816406 455.144531 289.058594 C 458.597656 289.707031 461.515625 289.582031 465.40625 289.367188 C 465.375 289.742188 465.335938 290.054688 465.289062 290.289062 C 465.105469 291.261719 464.292969 291.257812 460.578125 290.824219 C 457.515625 290.46875 452.890625 289.925781 446.179688 290.183594 C 441.972656 290.347656 429.144531 290.902344 412.902344 291.609375 C 382.703125 292.917969 340.6875 294.742188 319.574219 295.527344 C 319.300781 292.976562 318.460938 290.277344 315.582031 289.207031 C 313.8125 288.546875 307.808594 286.515625 304.890625 287.988281 C 304.117188 288.378906 303.613281 288.980469 303.386719 289.769531 C 303.148438 290.601562 303.019531 291.5 302.890625 292.367188 C 302.46875 295.273438 302.078125 297.054688 299.492188 297.109375 C 295.945312 297.1875 292.96875 297.179688 290.574219 297.175781 C 278.058594 297.148438 277.902344 297.253906 273.601562 308.179688 C 272.382812 311.28125 270.867188 315.136719 268.605469 320.160156 C 265.617188 326.804688 260.609375 342.070312 260.800781 357.144531 C 260.910156 365.695312 262.417969 372.902344 263.75 379.265625 C 264.664062 383.636719 265.453125 387.40625 265.601562 390.769531 C 265.953125 398.671875 266.769531 402.613281 270.667969 405.078125 C 273.078125 406.601562 275.492188 407.433594 282.375 408.488281 C 282.207031 408.679688 282.027344 408.835938 281.832031 408.964844 C 279.988281 410.164062 276.472656 408.992188 271.015625 406.570312 C 264.59375 403.710938 263.941406 397.429688 262.863281 387.019531 C 262.324219 381.824219 261.714844 375.933594 260.265625 368.9375 C 257.546875 355.796875 261.511719 339.964844 264.695312 327.242188 C 267.777344 314.949219 270.207031 305.238281 265.796875 302.003906 C 263.59375 300.386719 259.84375 300.574219 254.332031 302.582031 C 252.863281 303.117188 251.253906 303.785156 249.507812 304.589844 C 253.925781 285.632812 257.574219 281.984375 262.960938 276.601562 C 267.351562 272.210938 272.8125 266.75 280.523438 250.945312 C 287.058594 237.546875 285.164062 232.09375 282.296875 223.835938 C 280.925781 219.890625 279.371094 215.414062 278.378906 209.074219 L 278.167969 207.722656 C 276.097656 194.527344 272.972656 174.582031 270.585938 166.335938 C 269.34375 162.046875 267.550781 157.59375 265.816406 153.285156 C 264.085938 148.992188 262.410156 144.828125 261.609375 141.519531 C 264.46875 144.414062 266.453125 148.1875 267.453125 152.765625 C 268.675781 158.371094 271.207031 166.171875 273.660156 173.714844 L 274.421875 176.070312 C 276.28125 181.804688 278.214844 192.6875 279.917969 202.289062 C 280.941406 208.066406 281.910156 213.523438 282.804688 217.617188 C 283.578125 221.164062 284.679688 224.273438 285.652344 227.015625 C 288.707031 235.632812 290.914062 241.859375 281.585938 254.042969 C 274.851562 262.839844 272.777344 267.402344 270.148438 273.183594 C 269.207031 275.257812 268.234375 277.402344 266.941406 279.984375 C 265.011719 283.847656 264.878906 287.496094 265.101562 290.296875 C 262.746094 291.195312 261.457031 291.960938 261.339844 293.007812 C 261.226562 293.984375 262.179688 294.6875 262.90625 295.128906 C 264.710938 296.230469 265.566406 296.480469 266.1875 296.074219 C 266.925781 295.589844 266.777344 294.511719 266.53125 292.71875 C 266.464844 292.222656 266.386719 291.671875 266.324219 291.066406 C 267.417969 290.671875 268.640625 290.265625 269.851562 289.863281 C 275.945312 287.832031 285.152344 284.761719 293.261719 279.046875 C 301.925781 272.945312 308.601562 262.664062 312.570312 249.316406 C 316.164062 237.226562 317.515625 222.957031 316.480469 208.054688 C 315.453125 193.285156 312.050781 178.675781 306.902344 166.917969 C 301.355469 154.246094 294.0625 145.304688 285.808594 141.0625 C 271.769531 133.839844 264.210938 131.804688 261.296875 134.460938 C 260.277344 135.394531 259.910156 136.824219 260.003906 138.636719 C 259.871094 138.535156 259.734375 138.4375 259.597656 138.339844 C 255.425781 135.390625 250.148438 133.800781 243.921875 133.613281 C 234.21875 133.324219 223.203125 136.539062 213.699219 142.4375 C 203.605469 148.703125 196.664062 157.0625 194.15625 165.96875 C 191.667969 174.792969 190.289062 182.523438 189.070312 189.34375 C 186.605469 203.15625 184.65625 214.070312 175.410156 226.722656 C 169.871094 234.300781 164.019531 244.929688 158.855469 254.308594 C 158.589844 254.796875 158.324219 255.277344 158.058594 255.757812 C 155.535156 254.835938 153.246094 254.632812 151.296875 255.550781 C 148.066406 257.070312 146.253906 261.507812 145.757812 269.121094 C 145.5625 272.117188 145.894531 273.515625 146.863281 273.800781 C 146.964844 273.828125 147.066406 273.84375 147.171875 273.84375 C 149.082031 273.84375 152.035156 269.007812 158.5625 257.203125 C 162.429688 258.84375 166.914062 262.085938 171.304688 265.261719 C 172.003906 265.765625 172.707031 266.273438 173.410156 266.777344 C 173.429688 267.433594 173.3125 268.039062 173.011719 268.59375 C 171.894531 270.660156 168.199219 272.125 161.378906 273.207031 C 159.65625 273.484375 158.015625 274.078125 156.5 274.800781 C 154.445312 274.375 152.574219 274.339844 151.121094 274.625 C 148.785156 275.085938 147.300781 276.363281 147.054688 278.125 C 146.929688 278.992188 146.882812 280.039062 147.582031 280.484375 C 148.484375 281.058594 149.808594 280.195312 151.996094 278.761719 C 153.324219 277.894531 154.914062 276.855469 156.671875 275.988281 C 161.296875 277.042969 166.851562 280.195312 170.390625 286.25 C 172.101562 289.175781 173.5 292.207031 174.851562 295.140625 C 178.988281 304.113281 182.894531 312.589844 194.609375 314.589844 C 198.535156 315.261719 202.027344 316.140625 205.40625 316.992188 C 214.972656 319.402344 222.527344 321.304688 231.195312 315.992188 C 237.699219 312.003906 243.238281 308.890625 247.871094 306.628906 C 247.808594 306.898438 247.75 307.171875 247.6875 307.449219 C 244.9375 320.019531 227.59375 325.765625 205.515625 321.414062 C 185.207031 317.414062 182.875 313.261719 178.222656 304.984375 C 177.367188 303.464844 176.398438 301.742188 175.238281 299.882812 C 168.4375 289.003906 166.132812 287.820312 164.992188 287.882812 C 164.480469 287.910156 164.0625 288.210938 163.808594 288.722656 C 162.230469 291.953125 166.742188 306.703125 171.488281 319.425781 C 176.238281 332.164062 183.445312 348.824219 189.425781 357.386719 C 197.273438 368.628906 197.964844 390.632812 197.675781 402.75 C 197.566406 407.429688 197.292969 411.992188 196.90625 416.285156 C 191.5 417.203125 186.695312 419.070312 178.777344 422.277344 C 168.378906 426.484375 157.351562 432.492188 149.300781 436.882812 C 145.347656 439.035156 142.226562 440.734375 140.351562 441.582031 L 139.878906 441.796875 C 137.152344 443.027344 135.171875 443.925781 132.542969 444.414062 C 132.59375 444.316406 132.644531 444.21875 132.695312 444.113281 C 133.871094 441.675781 132.992188 438.542969 131.777344 434.214844 C 130.3125 428.988281 128.304688 421.828125 128.507812 411.5625 C 128.761719 398.535156 132.292969 381.304688 135.703125 364.644531 C 138.414062 351.417969 141.214844 337.742188 142.390625 326.144531 C 143.738281 312.855469 142.820312 304.109375 139.503906 298.617188 C 131.296875 285.035156 121.902344 283.875 115.460938 285.296875 C 107.679688 287.011719 99.707031 293.351562 93.007812 303.152344 C 86.628906 312.480469 82.328125 323.699219 81.203125 333.933594 C 78.703125 356.734375 80.367188 388.945312 81.363281 408.191406 C 81.683594 414.414062 81.9375 419.332031 81.9375 421.886719 C 81.9375 423.292969 81.769531 425.695312 81.574219 428.480469 C 80.710938 440.839844 80.253906 451.183594 83.425781 452.546875 C 84.507812 453.011719 85.765625 452.441406 87.269531 450.800781 C 88.980469 448.933594 109.742188 444.84375 121.335938 445.71875 C 124.878906 445.988281 127.554688 446.035156 129.738281 445.894531 C 127.742188 447.179688 124.71875 447.074219 120.265625 446.921875 C 118.703125 446.867188 116.929688 446.804688 115.007812 446.804688 C 105.53125 446.804688 103.152344 447.160156 93.792969 449.96875 C 83.6875 453 81.957031 460.746094 82.304688 473.980469 C 82.472656 480.347656 84.816406 486.679688 86.882812 492.269531 C 89.136719 498.367188 91.082031 503.632812 89.285156 506.660156 C 88.382812 508.183594 86.53125 509.132812 83.632812 509.558594 C 77.050781 510.523438 67.027344 510.234375 60.398438 510.039062 C 57.589844 509.957031 55.371094 509.894531 54 509.929688 L 54.03125 511.074219 C 55.371094 511.035156 57.574219 511.101562 60.363281 511.183594 C 67.035156 511.375 77.117188 511.671875 83.796875 510.6875 C 87.0625 510.210938 89.179688 509.082031 90.269531 507.242188 C 92.34375 503.746094 90.308594 498.246094 87.953125 491.875 C 85.917969 486.367188 83.613281 480.128906 83.449219 473.949219 C 83.058594 459.164062 85.652344 453.601562 94.121094 451.0625 C 103.339844 448.296875 105.679688 447.945312 115.003906 447.945312 C 116.90625 447.945312 118.671875 448.007812 120.226562 448.0625 C 125.589844 448.25 129.394531 448.382812 131.675781 445.703125 C 135.019531 445.25 137.242188 444.242188 140.347656 442.835938 L 140.820312 442.625 C 142.738281 441.757812 145.875 440.046875 149.84375 437.886719 C 157.871094 433.511719 168.867188 427.519531 179.207031 423.335938 C 186.980469 420.1875 191.660156 418.355469 196.796875 417.445312 C 195.671875 429.21875 193.707031 438.855469 191.945312 443.265625 C 189.792969 448.644531 188.628906 453.5 188.078125 457.890625 C 183.542969 458.058594 179.261719 459.410156 175.484375 462.617188 C 170.277344 467.035156 167.304688 470.683594 164.429688 474.214844 C 160.617188 478.894531 157.019531 483.3125 148.585938 488.792969 C 144.164062 491.667969 138.152344 495.105469 132.03125 498.300781 C 116.605469 499.390625 104.539062 501.628906 102.5625 507.558594 C 102.144531 508.8125 102.574219 509.480469 103.011719 509.816406 C 104.898438 511.277344 111.546875 509.367188 122.773438 504.148438 C 125.863281 502.71875 129.144531 501.089844 132.398438 499.394531 C 137.765625 499.023438 143.164062 498.828125 147.875 498.65625 C 174.492188 497.6875 185.304688 495.65625 189.195312 490.890625 C 191.84375 487.640625 191.136719 483.429688 190.160156 477.597656 C 189.332031 472.640625 188.308594 466.542969 189.101562 459.03125 C 197.304688 459.039062 206.402344 462.847656 214.785156 466.359375 C 216.636719 467.136719 218.386719 467.871094 220.140625 468.570312 C 236.421875 475.082031 244.914062 475.234375 248.542969 469.066406 C 249.25 467.863281 249.390625 466.691406 248.957031 465.589844 C 247.585938 462.113281 240.761719 460.089844 234.160156 458.136719 C 232.183594 457.546875 230.3125 456.996094 228.664062 456.421875 C 224.597656 455.007812 223.601562 452.640625 222.9375 450.433594 C 223.683594 450.808594 224.46875 451.1875 225.28125 451.570312 C 227.964844 452.832031 231.957031 453.90625 236.578125 455.15625 C 242.984375 456.882812 250.960938 459.035156 259.269531 462.65625 C 269.597656 467.15625 274.265625 466.175781 276.363281 464.5625 C 277.851562 463.417969 278.488281 461.605469 278.15625 459.457031 C 277.695312 456.441406 267.625 453.1875 252.316406 448.570312 C 244.816406 446.308594 237.730469 444.171875 235.824219 442.828125 C 234.207031 441.695312 233.425781 440.34375 232.949219 439.058594 C 234.722656 439.714844 237.113281 440.496094 240.316406 441.445312 C 243.832031 442.480469 252.496094 445.609375 261.664062 448.921875 C 273.476562 453.1875 286.867188 458.023438 291.488281 459.179688 C 296.308594 460.386719 297.578125 459.007812 297.90625 458.078125 C 298.636719 456 295.917969 452.710938 291.972656 450.890625 C 285.023438 447.6875 271.769531 443.007812 262.089844 439.589844 C 255.65625 437.316406 250.574219 435.523438 249.226562 434.851562 C 248.132812 434.300781 247.210938 433.46875 246.386719 432.554688 C 246.996094 432.742188 247.644531 432.941406 248.335938 433.152344 C 248.914062 433.328125 249.5 433.507812 250.097656 433.691406 C 257.226562 435.886719 265.191406 438.777344 275.730469 442.730469 C 284.554688 446.039062 288.414062 446.867188 289.964844 445.792969 C 290.3125 445.554688 290.71875 445.089844 290.71875 444.226562 C 290.71875 441.082031 289.230469 436.894531 277.613281 432.425781 C 267.765625 428.640625 237.792969 417.109375 217.429688 415.957031 C 208.542969 415.453125 202.957031 415.414062 198.058594 416.109375 C 199.925781 395.296875 199.101562 369.257812 190.363281 356.734375 C 179.160156 340.6875 162.421875 294.167969 164.835938 289.230469 C 164.929688 289.035156 165.003906 289.03125 165.050781 289.027344 C 165.527344 289.003906 167.558594 289.757812 174.269531 300.492188 C 175.414062 302.328125 176.375 304.039062 177.222656 305.546875 C 181.898438 313.859375 184.46875 318.4375 205.292969 322.539062 C 216.925781 324.828125 227.265625 324.484375 235.195312 321.542969 C 242.621094 318.785156 247.453125 313.867188 248.804688 307.695312 C 248.929688 307.117188 249.054688 306.550781 249.179688 306 C 257.472656 302.09375 262.65625 301.121094 265.121094 302.925781 C 268.910156 305.710938 266.441406 315.558594 263.585938 326.96875 C 260.371094 339.800781 256.371094 355.777344 259.144531 369.171875 C 260.578125 376.113281 261.1875 381.96875 261.722656 387.140625 C 262.804688 397.589844 263.519531 404.492188 270.550781 407.617188 C 276.503906 410.261719 280.164062 411.414062 282.453125 409.925781 C 282.925781 409.621094 283.328125 409.210938 283.664062 408.6875 C 286.886719 409.160156 291.007812 409.683594 296.382812 410.335938 C 303.785156 411.230469 307.140625 412.050781 308.125 413.21875 C 306.476562 412.960938 304.90625 412.53125 303.460938 412.132812 C 300.734375 411.386719 298.582031 410.800781 297.242188 411.824219 C 296.457031 412.421875 296.074219 413.5 296.074219 415.117188 C 296.074219 415.453125 296.023438 416.429688 295.953125 417.78125 C 295.59375 424.742188 294.753906 441.046875 296.460938 447.398438 C 298.898438 456.492188 299.101562 461.472656 297.132812 464.054688 C 294.714844 467.230469 288.554688 467.269531 279.234375 467.328125 C 277.957031 467.335938 276.617188 467.34375 275.214844 467.359375 C 267.945312 467.445312 260.441406 470.570312 252.914062 476.648438 C 251.863281 477.496094 250.8125 478.398438 249.765625 479.355469 C 237.238281 475.605469 220.605469 470.707031 201.25 465.066406 L 200.261719 464.777344 C 196.855469 463.785156 194.785156 463.777344 193.554688 464.75 C 191.96875 466.007812 192.105469 468.554688 192.292969 472.078125 C 192.335938 472.851562 192.378906 473.648438 192.40625 474.496094 C 192.789062 486.015625 196.238281 493.601562 202.667969 497.042969 C 209.003906 500.433594 219.121094 505.429688 229.835938 510.273438 C 229.527344 513.320312 229.648438 516.5 230.21875 519.742188 C 232.578125 533.152344 242.148438 546.203125 257.171875 556.480469 C 276.152344 569.46875 277.097656 571.550781 281.078125 580.320312 C 282.964844 584.472656 285.546875 590.160156 290.984375 599.140625 C 298.4375 611.457031 304.058594 618.507812 312.40625 620.472656 C 314.214844 620.902344 316.160156 621.097656 318.292969 621.097656 C 325.5625 621.097656 335.023438 618.8125 348.664062 615.515625 C 351.417969 614.851562 354.261719 614.164062 357.339844 613.433594 C 383.761719 607.164062 395.382812 610.234375 407.691406 613.480469 C 415.890625 615.644531 424.371094 617.882812 437.714844 617.882812 C 452.507812 617.882812 465.582031 614.792969 475.511719 608.949219 C 485.078125 603.324219 490.789062 595.539062 491.59375 587.03125 C 492.085938 581.878906 490.792969 576.652344 487.75 571.5 C 484.527344 566.035156 479.402344 560.796875 472.523438 555.933594 C 465.113281 550.6875 455.703125 545.914062 444.554688 541.742188 C 432.476562 537.21875 418.28125 533.382812 402.367188 530.332031 C 392.5 528.445312 382.917969 522.792969 373.191406 513.097656 C 451.472656 501.078125 555.648438 483.894531 562.863281 482.507812 C 566.070312 481.890625 567.855469 478.636719 568.769531 474.601562 C 569.136719 475.1875 569.554688 475.722656 570.023438 476.199219 C 571.414062 477.609375 573.113281 478.324219 575.082031 478.324219 C 575.097656 478.324219 575.109375 478.324219 575.125 478.324219 C 581.863281 478.289062 596.605469 476.464844 607.78125 474.941406 Z M 151.285156 267.609375 C 148.210938 272.550781 147.320312 272.71875 147.191406 272.703125 C 147.167969 272.691406 146.6875 272.351562 146.894531 269.195312 C 147.363281 262.035156 148.960938 257.910156 151.777344 256.582031 C 152.472656 256.253906 153.234375 256.105469 154.058594 256.105469 C 155.113281 256.105469 156.265625 256.351562 157.488281 256.785156 C 155.191406 260.945312 153.046875 264.777344 151.285156 267.609375 Z M 151.371094 277.800781 C 150.203125 278.566406 148.605469 279.609375 148.199219 279.515625 C 148.167969 279.464844 148.054688 279.195312 148.183594 278.28125 C 148.421875 276.570312 150.265625 275.957031 151.34375 275.742188 C 152.324219 275.550781 153.511719 275.519531 154.820312 275.667969 C 153.546875 276.382812 152.382812 277.140625 151.371094 277.800781 Z M 131.664062 443.617188 C 131.480469 443.996094 131.28125 444.332031 131.0625 444.632812 C 128.695312 444.910156 125.730469 444.90625 121.421875 444.578125 C 110.695312 443.769531 88.695312 447.550781 86.425781 450.027344 C 85.339844 451.210938 84.433594 451.734375 83.875 451.496094 C 83.253906 451.226562 82.191406 449.78125 82.089844 443.109375 C 82.015625 438.535156 82.402344 433.003906 82.714844 428.554688 C 82.910156 425.753906 83.082031 423.332031 83.082031 421.882812 C 83.082031 419.300781 82.824219 414.371094 82.503906 408.128906 C 81.507812 388.917969 79.847656 356.765625 82.339844 334.054688 C 84.480469 314.566406 99.203125 290.050781 115.707031 286.410156 C 117.03125 286.117188 118.339844 285.972656 119.625 285.972656 C 126.777344 285.972656 133.25 290.480469 138.523438 299.207031 C 145.554688 310.847656 139.976562 338.078125 134.582031 364.410156 C 131.160156 381.121094 127.621094 398.402344 127.363281 411.539062 C 127.15625 421.972656 129.191406 429.222656 130.675781 434.519531 C 131.867188 438.761719 132.652344 441.566406 131.664062 443.617188 Z M 122.296875 503.117188 C 110.28125 508.695312 104.820312 509.769531 103.714844 508.914062 C 103.632812 508.851562 103.398438 508.667969 103.648438 507.917969 C 105.363281 502.773438 116.996094 500.644531 129.476562 499.617188 C 127.035156 500.855469 124.609375 502.039062 122.296875 503.117188 Z M 189.035156 477.785156 C 189.960938 483.320312 190.632812 487.320312 188.308594 490.167969 C 184.707031 494.582031 173.738281 496.574219 147.832031 497.515625 C 143.375 497.675781 138.996094 497.859375 134.824219 498.117188 C 140.179688 495.257812 145.308594 492.285156 149.207031 489.75 C 157.792969 484.171875 161.445312 479.683594 165.316406 474.933594 C 168.160156 471.445312 171.097656 467.835938 176.226562 463.488281 C 179.714844 460.527344 183.699219 459.242188 187.945312 459.054688 C 187.167969 466.632812 188.195312 472.78125 189.035156 477.785156 Z M 217.367188 417.097656 C 237.550781 418.238281 267.394531 429.71875 277.203125 433.492188 C 289.578125 438.253906 289.578125 442.589844 289.578125 444.222656 C 289.578125 444.621094 289.4375 444.769531 289.3125 444.851562 C 287.847656 445.871094 281.089844 443.515625 276.132812 441.660156 C 265.570312 437.695312 257.589844 434.800781 250.433594 432.597656 C 249.835938 432.414062 249.246094 432.234375 248.667969 432.058594 C 247.503906 431.703125 246.253906 431.320312 245.066406 430.941406 C 244.949219 430.789062 244.832031 430.636719 244.71875 430.488281 C 243.175781 428.472656 241.71875 426.566406 239.695312 427.453125 C 238.933594 427.785156 238.5625 428.222656 238.59375 428.753906 C 238.652344 429.800781 240.222656 430.570312 244.378906 431.917969 C 245.542969 433.410156 246.886719 434.957031 248.714844 435.871094 C 250.125 436.578125 255.238281 438.382812 261.710938 440.667969 C 271.367188 444.078125 284.59375 448.75 291.492188 451.929688 C 295.359375 453.714844 297.234375 456.539062 296.824219 457.699219 C 296.570312 458.425781 295.105469 458.90625 291.765625 458.074219 C 287.203125 456.929688 273.839844 452.105469 262.050781 447.851562 C 252.867188 444.53125 244.1875 441.398438 240.640625 440.351562 C 236.816406 439.222656 234.242188 438.34375 232.511719 437.675781 C 232.480469 437.558594 232.449219 437.445312 232.417969 437.335938 C 231.980469 435.707031 231.527344 434.023438 229.253906 434.621094 C 228.910156 434.710938 227.863281 434.988281 227.851562 435.839844 C 227.84375 436.433594 228.230469 437.175781 231.566406 438.527344 C 232.058594 440.179688 232.886719 442.164062 235.164062 443.765625 C 237.226562 445.214844 244.066406 447.28125 251.984375 449.667969 C 257.910156 451.453125 264.039062 453.304688 268.871094 455.101562 C 275.757812 457.667969 276.9375 459.042969 277.027344 459.636719 C 277.292969 461.351562 276.808594 462.78125 275.664062 463.660156 C 274.148438 464.828125 270.0625 466.113281 259.726562 461.609375 C 251.339844 457.953125 243.320312 455.789062 236.875 454.054688 C 232.304688 452.820312 228.359375 451.757812 225.765625 450.539062 C 224.539062 449.960938 223.445312 449.417969 222.492188 448.925781 C 221.964844 447.257812 221.230469 445.804688 218.996094 445.328125 C 217.46875 445 216.535156 444.945312 216.296875 445.648438 C 216.101562 446.234375 216.484375 446.835938 219.066406 448.355469 C 219.777344 448.777344 220.613281 449.234375 221.535156 449.71875 C 221.578125 449.855469 221.617188 449.992188 221.65625 450.132812 C 222.382812 452.640625 223.28125 455.761719 228.289062 457.503906 C 229.964844 458.085938 231.84375 458.644531 233.835938 459.234375 C 239.878906 461.023438 246.726562 463.054688 247.894531 466.011719 C 248.199219 466.777344 248.089844 467.589844 247.558594 468.488281 C 244.28125 474.0625 236.207031 473.769531 220.566406 467.511719 C 218.820312 466.8125 217.074219 466.082031 215.226562 465.308594 C 206.773438 461.765625 197.609375 457.929688 189.234375 457.875 C 189.78125 453.609375 190.921875 448.898438 193.003906 443.691406 C 194.847656 439.085938 196.828125 429.089844 197.953125 417.257812 C 202.832031 416.53125 208.339844 416.585938 217.367188 417.097656 Z M 243.121094 430.289062 C 241.382812 429.683594 240.046875 429.121094 239.765625 428.71875 C 239.820312 428.671875 239.933594 428.59375 240.152344 428.496094 C 241.121094 428.074219 241.941406 428.816406 243.121094 430.289062 Z M 231.175781 437.128906 C 229.707031 436.484375 229.210938 436.101562 229.050781 435.902344 C 229.132812 435.859375 229.28125 435.792969 229.542969 435.722656 C 230.527344 435.464844 230.765625 435.695312 231.175781 437.128906 Z M 220.953125 448.105469 C 219.546875 447.335938 218.558594 446.71875 217.980469 446.296875 C 218.183594 446.328125 218.441406 446.375 218.757812 446.441406 C 219.917969 446.6875 220.53125 447.273438 220.953125 448.105469 Z M 265.546875 295.109375 C 265.414062 295.113281 264.945312 295.035156 263.5 294.152344 C 262.710938 293.671875 262.453125 293.3125 262.472656 293.136719 C 262.527344 292.675781 263.636719 292.097656 265.21875 291.480469 C 265.273438 291.980469 265.339844 292.445312 265.398438 292.871094 C 265.515625 293.742188 265.664062 294.820312 265.546875 295.109375 Z M 262.066406 135.304688 C 264.503906 133.078125 272.101562 135.292969 285.285156 142.074219 C 301.078125 150.195312 313.15625 176.746094 315.335938 208.132812 C 317.066406 233 312 264.441406 292.605469 278.109375 C 284.628906 283.726562 275.519531 286.761719 269.488281 288.773438 C 268.265625 289.179688 267.175781 289.542969 266.21875 289.882812 C 266.046875 287.269531 266.230469 283.953125 267.960938 280.492188 C 269.261719 277.890625 270.242188 275.738281 271.1875 273.65625 C 273.785156 267.941406 275.835938 263.429688 282.492188 254.734375 C 292.195312 242.058594 289.78125 235.25 286.726562 226.632812 C 285.71875 223.789062 284.675781 220.847656 283.917969 217.371094 C 283.027344 213.296875 282.0625 207.851562 281.039062 202.085938 C 279.246094 191.976562 277.390625 181.523438 275.507812 175.714844 L 274.746094 173.355469 C 272.304688 165.839844 269.777344 158.070312 268.566406 152.523438 C 267.390625 147.128906 264.925781 142.796875 261.234375 139.617188 C 260.957031 137.648438 261.152344 136.136719 262.066406 135.304688 Z M 172.632812 260.789062 C 170.097656 255.109375 166.945312 248.039062 175.003906 238.882812 C 185.816406 226.597656 189.476562 208.941406 193.019531 191.867188 C 198.136719 167.199219 202.972656 143.902344 228.757812 140.285156 C 243.734375 138.183594 252.402344 139.613281 257.734375 145.0625 C 262.996094 150.4375 265.273438 159.8125 268.425781 172.789062 C 268.9375 174.898438 269.464844 177.078125 270.039062 179.371094 C 272.347656 188.601562 269.074219 192 264.121094 197.144531 C 262.914062 198.398438 261.667969 199.695312 260.375 201.203125 C 253.515625 209.210938 240.570312 215.214844 232.242188 211.394531 C 230.363281 210.535156 229.617188 208.871094 230.019531 206.449219 C 230.261719 205 230.875 203.421875 231.746094 201.824219 C 233.457031 200.800781 235.144531 199.746094 236.777344 198.679688 C 240.136719 196.480469 242.960938 194.421875 244.945312 192.722656 C 247.949219 190.15625 248.164062 189.144531 248.019531 188.554688 C 247.851562 187.875 247.164062 187.59375 245.980469 187.710938 C 243.238281 187.988281 239.402344 190.519531 235.714844 194.492188 C 233.742188 196.617188 232.097656 198.855469 230.90625 200.996094 C 224.898438 204.574219 218.605469 207.773438 213.324219 209.910156 C 206.976562 212.476562 202.867188 217.488281 200.757812 225.238281 C 198.910156 232.011719 198.773438 240.035156 198.640625 247.796875 C 198.566406 251.910156 198.5 255.796875 198.195312 259.511719 C 197.558594 267.34375 195.714844 271.855469 192.5625 273.308594 C 188.117188 275.355469 181.34375 271.039062 174.503906 266.152344 C 174.296875 264.519531 173.5 262.734375 172.632812 260.789062 Z M 233.03125 199.703125 C 236.664062 194.277344 242.609375 189.195312 246.09375 188.847656 C 246.253906 188.832031 246.382812 188.828125 246.492188 188.828125 C 246.71875 188.828125 246.84375 188.855469 246.90625 188.875 C 246.796875 189.683594 243.804688 192.738281 235.925781 197.867188 C 234.976562 198.484375 234.011719 199.097656 233.03125 199.703125 Z M 248.191406 305.203125 C 243.382812 307.5 237.5625 310.746094 230.597656 315.015625 C 222.335938 320.078125 214.988281 318.226562 205.683594 315.882812 C 202.285156 315.027344 198.769531 314.140625 194.800781 313.464844 C 183.679688 311.566406 180.070312 303.730469 175.886719 294.660156 C 174.523438 291.707031 173.117188 288.648438 171.375 285.671875 C 168.011719 279.917969 162.886719 276.65625 158.296875 275.257812 C 159.34375 274.84375 160.4375 274.515625 161.554688 274.335938 C 168.851562 273.175781 172.695312 271.574219 174.015625 269.140625 C 174.289062 268.632812 174.449219 268.109375 174.515625 267.566406 C 180.082031 271.503906 185.589844 274.964844 190.054688 274.964844 C 191.113281 274.964844 192.113281 274.773438 193.039062 274.34375 C 196.597656 272.703125 198.660156 267.882812 199.335938 259.601562 C 199.640625 255.851562 199.710938 251.765625 199.78125 247.816406 C 200.046875 232.371094 200.324219 216.398438 213.75 210.972656 C 218.648438 208.992188 224.382812 206.117188 229.960938 202.875 C 229.429688 204.074219 229.066406 205.21875 228.890625 206.265625 C 228.402344 209.21875 229.394531 211.351562 231.765625 212.4375 C 233.660156 213.308594 235.773438 213.703125 238 213.699219 C 246.101562 213.699219 255.648438 208.476562 261.242188 201.949219 C 262.515625 200.464844 263.75 199.183594 264.945312 197.941406 C 269.976562 192.71875 273.609375 188.941406 271.148438 179.097656 C 270.578125 176.808594 270.046875 174.632812 269.535156 172.523438 C 266.339844 159.371094 264.03125 149.867188 258.550781 144.265625 C 252.933594 138.527344 243.976562 137 228.601562 139.15625 C 222.199219 140.054688 216.886719 142.113281 212.359375 145.453125 C 208.308594 148.441406 204.976562 152.394531 202.179688 157.542969 C 197 167.066406 194.523438 179 191.902344 191.640625 C 188.390625 208.570312 184.757812 226.074219 174.148438 238.132812 C 165.605469 247.839844 169.0625 255.59375 171.589844 261.257812 C 172.234375 262.703125 172.816406 264.007812 173.140625 265.179688 C 172.75 264.898438 172.363281 264.617188 171.976562 264.335938 C 167.429688 261.050781 163.027344 257.867188 159.125 256.1875 C 159.363281 255.753906 159.609375 255.3125 159.855469 254.863281 C 165.003906 245.515625 170.835938 234.917969 176.332031 227.398438 C 185.734375 214.53125 187.703125 203.507812 190.195312 189.546875 C 191.410156 182.753906 192.785156 175.054688 195.253906 166.28125 C 197.6875 157.648438 204.449219 149.527344 214.300781 143.414062 C 223.621094 137.628906 234.402344 134.472656 243.886719 134.757812 C 250.613281 134.960938 256.121094 136.835938 260.179688 140.214844 C 260.777344 143.832031 262.683594 148.566406 264.757812 153.714844 C 266.480469 157.996094 268.265625 162.425781 269.488281 166.65625 C 271.855469 174.835938 274.976562 194.738281 277.039062 207.90625 L 277.25 209.253906 C 278.257812 215.695312 279.832031 220.222656 281.21875 224.214844 C 283.992188 232.203125 285.820312 237.476562 279.496094 250.449219 C 271.871094 266.078125 266.480469 271.464844 262.152344 275.792969 C 256.746094 281.191406 252.789062 285.148438 248.191406 305.203125 Z M 320.6875 384.78125 C 322.074219 386.695312 322.246094 389.613281 321.199219 393.457031 C 320.5625 395.792969 318.789062 397.476562 316.335938 398.074219 C 313.53125 398.757812 310.472656 397.84375 308.546875 395.75 C 306.015625 393 305.585938 388.597656 307.335938 383.355469 C 307.574219 382.644531 307.707031 382.519531 307.816406 382.492188 C 307.859375 382.476562 307.914062 382.472656 307.976562 382.472656 C 308.300781 382.472656 308.859375 382.609375 309.585938 382.789062 C 310.136719 382.925781 310.824219 383.09375 311.664062 383.269531 C 313.796875 383.714844 315.859375 383.445312 317.492188 382.535156 C 318.898438 383.035156 319.964844 383.785156 320.6875 384.78125 Z M 455.207031 257.644531 C 454 257.625 452.75 257.605469 451.605469 257.503906 C 450.738281 257.425781 448.152344 257.195312 447.722656 256.882812 C 447.738281 256.785156 447.8125 256.59375 447.867188 256.449219 C 448.007812 256.089844 448.195312 255.597656 448.246094 254.980469 C 448.367188 253.527344 450.179688 253.453125 455.417969 253.46875 C 455.835938 253.472656 456.269531 253.472656 456.726562 253.472656 C 461.964844 253.472656 464.757812 255.328125 464.757812 256.671875 C 464.757812 257.21875 464.25 257.976562 462.855469 258.667969 C 460.671875 257.730469 457.851562 257.6875 455.207031 257.644531 Z M 455.355469 287.933594 C 450.03125 286.9375 447.324219 284.671875 447.324219 275.058594 C 447.324219 273.058594 447.242188 271.277344 447.171875 269.707031 C 447 266.042969 446.886719 263.621094 447.972656 262.484375 C 448.550781 261.878906 449.511719 261.597656 451.003906 261.597656 C 456.726562 261.597656 460.53125 260.90625 462.863281 259.910156 C 464.53125 260.800781 465.570312 262.4375 465.570312 265.457031 C 465.570312 267.507812 465.585938 269.777344 465.601562 272.179688 C 465.636719 278.113281 465.679688 284.675781 465.488281 288.21875 C 461.601562 288.433594 458.714844 288.5625 455.355469 287.933594 Z M 412.949219 292.75 C 429.1875 292.042969 442.015625 291.488281 446.222656 291.324219 C 452.839844 291.070312 457.414062 291.605469 460.441406 291.957031 C 464.035156 292.378906 466.015625 292.609375 466.410156 290.5 C 466.46875 290.195312 466.515625 289.789062 466.554688 289.300781 C 469.171875 289.15625 472.386719 288.988281 476.480469 288.988281 C 481.414062 288.988281 483.792969 289.375 484.691406 290.320312 C 485.351562 291.011719 485.292969 292.128906 485.210938 293.828125 C 485.179688 294.453125 485.144531 295.15625 485.144531 295.925781 C 485.144531 296.640625 484.925781 297.195312 484.476562 297.628906 C 482.660156 299.371094 477.367188 299.164062 470.660156 298.898438 C 467.722656 298.785156 464.390625 298.652344 460.964844 298.679688 C 450.820312 298.757812 360.097656 300.847656 319.835938 303.765625 C 319.785156 301.203125 319.75 299.546875 319.734375 299.136719 C 319.722656 298.851562 319.71875 298.550781 319.710938 298.238281 C 319.699219 297.75 319.6875 297.21875 319.65625 296.664062 C 340.8125 295.878906 382.773438 294.058594 412.949219 292.75 Z M 319.792969 376.054688 C 319.757812 378.234375 319.023438 379.960938 317.667969 381.042969 C 317.5625 381.128906 317.453125 381.207031 317.339844 381.285156 C 316.214844 380.941406 314.921875 380.734375 313.46875 380.664062 C 307.960938 380.386719 308.101562 377.496094 308.359375 372.242188 C 308.414062 371.109375 308.472656 369.933594 308.472656 368.675781 C 308.472656 365.332031 308.058594 359.703125 307.578125 353.183594 C 307.050781 345.972656 306.449219 337.800781 306.253906 330.625 C 306.136719 326.300781 305.277344 321.328125 304.441406 316.519531 C 303.886719 313.320312 303.34375 310.1875 303.046875 307.40625 C 304.683594 306.652344 306.585938 306.128906 308.8125 305.882812 C 311.492188 305.582031 314.839844 305.292969 318.71875 305.003906 C 319.046875 322.210938 319.871094 371.269531 319.792969 376.054688 Z M 318.570312 298.265625 C 318.578125 298.582031 318.585938 298.890625 318.59375 299.175781 C 318.609375 299.589844 318.644531 301.261719 318.695312 303.851562 C 314.808594 304.144531 311.433594 304.441406 308.683594 304.746094 C 306.542969 304.984375 304.632812 305.460938 302.933594 306.1875 C 302.640625 302.613281 302.851562 299.730469 304.128906 298.214844 C 304.785156 297.429688 305.71875 297.050781 306.976562 297.050781 C 308.488281 297.050781 312.601562 296.921875 318.519531 296.707031 C 318.546875 297.238281 318.558594 297.761719 318.570312 298.265625 Z M 283.019531 407.433594 C 275.980469 406.375 273.601562 405.578125 271.277344 404.109375 C 268.09375 402.097656 267.121094 399.222656 266.742188 390.71875 C 266.589844 387.261719 265.789062 383.449219 264.867188 379.03125 C 263.546875 372.722656 262.050781 365.570312 261.941406 357.128906 C 261.75 342.257812 266.695312 327.1875 269.648438 320.628906 C 271.917969 315.578125 273.441406 311.707031 274.664062 308.597656 C 276.714844 303.386719 277.746094 300.769531 279.644531 299.535156 C 281.375 298.417969 284 298.316406 288.917969 298.316406 C 289.441406 298.316406 289.992188 298.316406 290.570312 298.316406 C 292.96875 298.324219 295.953125 298.328125 299.511719 298.253906 C 303.195312 298.171875 303.632812 295.175781 304.019531 292.53125 C 304.140625 291.703125 304.265625 290.84375 304.484375 290.082031 C 304.621094 289.605469 304.921875 289.253906 305.40625 289.007812 C 307.394531 288 311.761719 289.003906 315.179688 290.277344 C 317.488281 291.136719 318.195312 293.300781 318.433594 295.566406 C 312.554688 295.785156 308.476562 295.910156 306.976562 295.910156 C 305.382812 295.910156 304.128906 296.4375 303.25 297.480469 C 301.699219 299.324219 301.476562 302.65625 301.835938 306.710938 C 299.167969 308.105469 297.058594 310.203125 295.386719 313.085938 C 292.832031 317.484375 291.632812 323.171875 290.359375 329.1875 C 289.417969 333.640625 288.445312 338.242188 286.859375 342.636719 C 281.609375 357.222656 282.746094 378.136719 283.496094 391.976562 C 283.699219 395.683594 283.875 398.882812 283.875 401.183594 C 283.875 404.050781 283.597656 406.101562 283.019531 407.433594 Z M 385.816406 405.039062 C 386.9375 405.722656 387.664062 407.765625 388.050781 411.28125 C 389.066406 420.609375 387.910156 427.0625 384.515625 431.015625 C 382.085938 433.839844 378.429688 435.375 373.636719 435.578125 C 370.214844 435.722656 368.0625 435.234375 367.050781 434.074219 C 365.878906 432.734375 366.175781 430.421875 366.652344 427.753906 C 367.835938 421.128906 372.476562 415.960938 376.566406 411.402344 C 378.304688 409.46875 379.964844 407.613281 381.230469 405.785156 C 381.425781 405.710938 381.617188 405.636719 381.8125 405.5625 C 383.34375 404.976562 384.792969 404.417969 385.816406 405.039062 Z M 344.46875 373.210938 C 347.121094 372.558594 349.898438 373.066406 351.898438 374.566406 C 352.894531 375.3125 354.972656 376.6875 357.601562 378.429688 C 364.066406 382.710938 373.828125 389.179688 379.125 393.953125 C 383.40625 397.820312 382.976562 401.148438 380.511719 404.832031 C 380.207031 404.945312 379.902344 405.046875 379.597656 405.132812 C 375.695312 406.25 366.222656 413.839844 362.78125 423.777344 C 361.667969 426.992188 359.941406 428.992188 357.652344 429.71875 C 354.160156 430.824219 349.222656 429.105469 342.976562 424.609375 C 335.183594 418.996094 331.394531 412.503906 331.394531 404.757812 C 331.394531 399.96875 335.242188 391.394531 338.960938 383.097656 C 340.277344 380.164062 341.636719 377.132812 342.800781 374.328125 C 342.894531 374.101562 342.984375 373.878906 343.078125 373.664062 C 343.527344 373.476562 343.992188 373.328125 344.46875 373.210938 Z M 421.773438 313.285156 C 421.945312 313.222656 422.117188 313.175781 422.289062 313.136719 C 423.925781 312.761719 425.40625 313.367188 426.351562 314.792969 C 427.273438 316.1875 428.636719 317.644531 430.082031 319.183594 C 433.082031 322.390625 436.488281 326.027344 436.96875 330.238281 C 437.121094 331.585938 437.101562 333.3125 436.128906 333.871094 C 435.039062 334.496094 432.679688 333.664062 430.125 331.746094 C 426.480469 329.011719 421.652344 321.417969 421.117188 316.082031 C 421.023438 315.136719 421.25 314.183594 421.773438 313.285156 Z M 421.777344 340.085938 C 421.28125 339.761719 420.792969 339.441406 420.316406 339.117188 C 415.703125 335.980469 415.792969 327.542969 416.683594 321.015625 C 417.132812 317.734375 418.546875 315.457031 420.152344 314.199219 C 419.972656 314.851562 419.914062 315.523438 419.980469 316.195312 C 420.542969 321.808594 425.613281 329.792969 429.4375 332.660156 C 430.882812 333.746094 434.484375 336.128906 436.699219 334.863281 C 437.910156 334.167969 438.386719 332.566406 438.101562 330.109375 C 437.578125 325.519531 434.039062 321.738281 430.914062 318.40625 C 429.503906 316.898438 428.171875 315.476562 427.304688 314.164062 C 426.261719 312.585938 424.636719 311.773438 422.859375 311.898438 C 423.066406 311.691406 423.289062 311.492188 423.53125 311.296875 C 426.804688 308.636719 432.113281 307.742188 436.4375 309.113281 C 441.226562 310.632812 444.582031 316.59375 444.25 322.980469 C 443.839844 330.839844 438.25 336.632812 429.296875 338.476562 C 426.496094 339.054688 425.195312 340.394531 424.230469 341.75 C 423.417969 341.164062 422.585938 340.617188 421.777344 340.085938 Z M 374.113281 309.242188 C 374.1875 309.285156 374.257812 309.328125 374.328125 309.375 C 375.921875 310.433594 376.84375 312.542969 377.140625 315.820312 C 377.644531 321.347656 378.085938 327.292969 377.511719 333.8125 C 377.277344 336.488281 376.699219 338.113281 375.75 338.777344 C 374.941406 339.34375 373.867188 339.214844 372.503906 338.851562 C 371.515625 338.585938 371.480469 337.914062 371.753906 335.15625 C 371.953125 333.152344 372.226562 330.402344 371.816406 326.78125 C 370.675781 316.757812 372.035156 311.394531 374.113281 309.242188 Z M 360.085938 333.34375 C 359.929688 332.800781 359.773438 332.242188 359.609375 331.671875 C 357.207031 323.359375 359.964844 311.523438 366.988281 309.296875 C 369.4375 308.519531 371.441406 308.34375 372.976562 308.769531 C 371.066406 311.015625 369.441406 315.988281 370.679688 326.914062 C 371.078125 330.414062 370.8125 333.089844 370.617188 335.042969 C 370.367188 337.582031 370.183594 339.417969 372.207031 339.957031 C 373.65625 340.34375 375.167969 340.582031 376.40625 339.714844 C 377.664062 338.832031 378.378906 336.988281 378.648438 333.914062 C 379.234375 327.300781 378.789062 321.296875 378.28125 315.71875 C 377.957031 312.144531 376.90625 309.777344 375.070312 308.496094 C 375.417969 308.304688 375.78125 308.183594 376.140625 308.128906 C 380.203125 307.511719 386.164062 314.332031 388.230469 325.109375 C 389.273438 330.566406 388.707031 334.832031 386.550781 337.785156 C 383.484375 341.980469 377.953125 342.644531 374.980469 343.003906 C 374.742188 343.035156 374.515625 343.0625 374.3125 343.085938 C 372.902344 343.269531 371.308594 343.15625 369.292969 343.015625 C 367.832031 342.910156 366.164062 342.789062 364.21875 342.765625 C 362.179688 340.746094 361.261719 337.507812 360.085938 333.34375 Z M 309.109375 416.742188 C 309.34375 415.925781 309.550781 415.195312 309.601562 414.527344 C 312.28125 414.726562 315.15625 414.367188 317.964844 412.695312 C 323.433594 409.4375 327.453125 401.996094 330.257812 389.945312 C 332.960938 378.3125 335.703125 369.238281 338.628906 362.203125 C 343.003906 351.6875 347.738281 345.886719 352.699219 344.957031 C 357.183594 344.117188 360.796875 343.894531 363.773438 343.90625 C 365.535156 345.464844 368.027344 346.332031 371.8125 346.253906 C 376.148438 346.167969 385.597656 346.320312 394.734375 346.472656 C 405.421875 346.644531 416.472656 346.824219 419.480469 346.621094 C 422.421875 346.425781 423.511719 344.902344 424.511719 343.382812 C 427.160156 345.445312 429.285156 347.96875 429.394531 351.976562 C 429.5625 358.0625 429.582031 411.84375 429.582031 434.683594 C 429.582031 437.941406 429.71875 440.234375 429.816406 441.90625 C 429.921875 443.703125 429.992188 444.890625 429.714844 445.191406 C 429.507812 445.417969 428.75 445.445312 427.695312 445.480469 C 427.222656 445.496094 426.691406 445.515625 426.066406 445.550781 C 421.464844 445.832031 416.613281 444.734375 408.582031 442.914062 C 406.21875 442.378906 403.542969 441.773438 400.554688 441.132812 C 390.488281 438.976562 390.96875 433.480469 391.523438 427.117188 C 391.644531 425.714844 391.773438 424.269531 391.773438 422.859375 C 391.773438 420.726562 392.386719 416.542969 393.167969 411.246094 C 395.082031 398.214844 397.980469 378.519531 394.511719 368.382812 C 392.640625 362.914062 388.828125 359.765625 382.859375 358.765625 C 377.746094 357.90625 371.925781 358.714844 366.296875 359.5 C 364.1875 359.792969 362.195312 360.070312 360.3125 360.246094 C 348.785156 361.328125 346.445312 362.792969 342.203125 372.792969 C 339.390625 374.070312 337.046875 376.484375 335.476562 379.773438 C 332.398438 386.222656 328.46875 399.609375 327.230469 407.859375 C 326.542969 412.453125 324.050781 420.539062 320.878906 428.460938 C 319.960938 430.75 319.121094 432.699219 318.359375 434.339844 C 315.597656 434.453125 314.15625 434.886719 313.363281 435.691406 C 312.371094 436.695312 312.492188 438.128906 312.644531 439.941406 C 312.664062 440.21875 312.691406 440.507812 312.710938 440.808594 C 312.804688 442.085938 313.207031 442.75 313.917969 442.777344 C 314.570312 442.796875 315.503906 442.328125 317.515625 438.609375 C 318.015625 437.691406 318.546875 436.632812 319.097656 435.464844 C 321.164062 435.425781 323.949219 435.539062 327.644531 435.796875 C 336.589844 436.421875 342.742188 437.285156 347.683594 437.976562 C 351.601562 438.523438 354.695312 438.960938 357.9375 439.121094 C 359.871094 439.21875 362.253906 439.058594 365.011719 438.871094 C 372.675781 438.359375 383.167969 437.652344 391.664062 442.375 C 401.585938 447.886719 407.765625 448.359375 418 449.140625 C 419.945312 449.289062 421.957031 449.445312 424.207031 449.644531 C 438.65625 450.941406 504.582031 443.082031 508.625 441.867188 C 515.519531 439.796875 514.179688 433.644531 512.996094 428.214844 C 512.808594 427.355469 512.628906 426.546875 512.480469 425.746094 C 510.949219 417.488281 508.234375 403.75 505.359375 389.203125 C 500.792969 366.101562 495.621094 339.921875 493.371094 326.613281 C 493.222656 325.71875 493.011719 324.609375 492.769531 323.328125 C 491.25 315.253906 488.417969 300.226562 492.140625 295.648438 C 492.828125 294.800781 493.703125 294.378906 494.808594 294.359375 C 503.984375 294.183594 511.667969 299.644531 515.875 309.339844 C 519.492188 317.671875 520.808594 337.253906 514.640625 348.964844 C 512.210938 353.582031 508.914062 356.324219 504.84375 357.113281 C 504.109375 357.257812 503.445312 357.300781 502.871094 357.253906 C 502.902344 354.738281 502.777344 353.140625 502.015625 352.539062 C 501.726562 352.3125 501.359375 352.246094 500.984375 352.347656 C 499.738281 352.6875 498.988281 354.273438 499.347656 355.804688 C 499.582031 356.816406 500.324219 357.777344 501.710938 358.195312 C 501.703125 358.457031 501.699219 358.703125 501.691406 358.925781 C 501.644531 360.738281 501.59375 362.609375 501.804688 363.863281 C 502.191406 366.179688 508.714844 400.886719 512.742188 417.910156 C 516.085938 432.050781 526.832031 434.851562 539.273438 438.09375 C 545.117188 439.613281 551.164062 441.1875 557.148438 444.050781 C 558.878906 444.878906 559.773438 445.707031 559.671875 446.382812 C 559.378906 448.285156 552.792969 450.472656 543.28125 451.835938 C 540.214844 452.273438 535.027344 453.03125 527.851562 454.082031 C 493.351562 459.136719 410.207031 471.308594 347.335938 479.03125 C 346.695312 478.039062 346.070312 477.0625 345.460938 476.109375 C 340.847656 468.902344 336.867188 462.679688 333.613281 459.226562 C 325.121094 450.222656 320.085938 446.382812 315.429688 446.382812 C 313.324219 446.382812 311.296875 447.167969 309.066406 448.617188 C 306.796875 450.089844 305.117188 451.234375 303.925781 452.21875 C 303.859375 451.210938 303.820312 450.152344 303.855469 449.113281 C 303.957031 445.980469 304.765625 445.300781 305.546875 444.640625 C 306.136719 444.140625 306.808594 443.578125 306.988281 442.148438 C 307.414062 438.769531 308.285156 429.292969 308.285156 421.582031 C 308.289062 419.617188 308.742188 418.023438 309.109375 416.742188 Z M 317.808594 435.511719 C 315.875 439.527344 314.5625 441.359375 314.023438 441.609375 C 313.972656 441.507812 313.890625 441.261719 313.851562 440.726562 C 313.832031 440.421875 313.804688 440.128906 313.78125 439.847656 C 313.648438 438.207031 313.554688 437.125 314.179688 436.492188 C 314.707031 435.957031 315.824219 435.636719 317.808594 435.511719 Z M 501.730469 356.992188 C 501.058594 356.710938 500.617188 356.222656 500.460938 355.546875 C 500.25 354.640625 500.652344 353.621094 501.285156 353.449219 C 501.300781 353.445312 501.3125 353.445312 501.316406 353.441406 C 501.671875 353.695312 501.738281 355.382812 501.730469 356.992188 Z M 275.230469 468.496094 C 276.628906 468.480469 277.96875 468.472656 279.242188 468.464844 C 289.246094 468.402344 295.28125 468.363281 298.039062 464.742188 C 300.277344 461.8125 300.136719 456.699219 297.5625 447.097656 C 295.902344 440.917969 296.769531 424.148438 297.09375 417.835938 C 297.167969 416.414062 297.21875 415.476562 297.21875 415.113281 C 297.21875 413.875 297.453125 413.097656 297.933594 412.726562 C 298.828125 412.046875 300.832031 412.597656 303.15625 413.234375 C 304.730469 413.664062 306.535156 414.15625 308.460938 414.410156 C 308.425781 414.933594 308.25 415.585938 308.011719 416.429688 C 307.625 417.78125 307.144531 419.460938 307.144531 421.582031 C 307.144531 429.238281 306.277344 438.648438 305.859375 442.007812 C 305.734375 442.988281 305.347656 443.316406 304.8125 443.765625 C 303.929688 444.507812 302.832031 445.433594 302.714844 449.074219 C 302.671875 450.476562 302.746094 451.898438 302.859375 453.199219 C 302.117188 453.96875 301.707031 454.664062 301.574219 455.398438 C 301.402344 456.308594 301.683594 457.226562 302.453125 458.292969 C 302.769531 458.726562 303.296875 459.453125 303.925781 459.210938 C 304.628906 458.9375 304.527344 458.015625 304.25 455.554688 C 304.183594 454.976562 304.109375 454.328125 304.042969 453.632812 C 305.179688 452.578125 307.035156 451.296875 309.691406 449.574219 C 316.300781 445.285156 320.832031 447.332031 332.785156 460.007812 C 335.964844 463.382812 339.917969 469.5625 344.5 476.722656 C 345.015625 477.527344 345.539062 478.351562 346.078125 479.183594 C 318.390625 482.574219 294.765625 485.078125 281.152344 485.695312 C 272.773438 486.078125 271.300781 485.898438 263.683594 483.558594 C 260.207031 482.492188 255.972656 481.210938 251.078125 479.746094 C 259.339844 472.359375 267.417969 468.589844 275.230469 468.496094 Z M 303.296875 457.503906 C 302.777344 456.757812 302.59375 456.167969 302.695312 455.605469 C 302.742188 455.351562 302.851562 455.09375 303.019531 454.820312 C 303.050781 455.121094 303.082031 455.410156 303.113281 455.679688 C 303.183594 456.308594 303.261719 456.984375 303.296875 457.503906 Z M 250.09375 480.640625 C 255.265625 482.191406 259.71875 483.535156 263.351562 484.652344 C 271.144531 487.042969 272.644531 487.226562 281.207031 486.835938 C 294.933594 486.214844 318.8125 483.679688 346.765625 480.25 C 352.785156 489.609375 360.035156 500.496094 368.484375 509.804688 C 369.261719 510.664062 370.039062 511.496094 370.816406 512.304688 C 333.496094 518.023438 302.414062 522.503906 291.15625 523.433594 C 288.902344 523.617188 287.28125 523.144531 286.199219 521.988281 C 283.511719 519.113281 284.53125 512.355469 285.429688 506.394531 C 285.734375 504.382812 286.019531 502.484375 286.167969 500.769531 C 286.613281 495.546875 286.011719 492.78125 284.375 492.554688 C 282.28125 492.261719 280.15625 496.640625 279.3125 501.039062 C 278.742188 504.003906 278.792969 509.769531 278.835938 514.859375 C 278.867188 518.046875 278.894531 521.058594 278.75 522.699219 C 278.695312 523.324219 278.402344 523.757812 277.828125 524.066406 C 272.746094 526.820312 250.925781 518.507812 231.066406 509.574219 C 231.648438 505.015625 233.25 500.808594 235.804688 497.25 C 240.613281 490.550781 245.382812 485.011719 250.09375 480.640625 Z M 229.976562 509.085938 C 219.472656 504.335938 209.617188 499.460938 203.207031 496.027344 C 197.082031 492.75 193.921875 485.691406 193.546875 474.453125 C 193.519531 473.59375 193.476562 472.792969 193.433594 472.011719 C 193.273438 468.953125 193.144531 466.535156 194.265625 465.640625 C 194.667969 465.328125 195.261719 465.167969 196.066406 465.167969 C 197.046875 465.167969 198.332031 465.402344 199.945312 465.871094 L 200.929688 466.160156 C 219.957031 471.707031 236.347656 476.53125 248.792969 480.253906 C 244.214844 484.582031 239.625 489.96875 234.875 496.585938 C 232.273438 500.207031 230.621094 504.472656 229.976562 509.085938 Z M 402.152344 531.453125 C 432.46875 537.257812 456.574219 546.042969 471.867188 556.863281 C 484.824219 566.03125 491.429688 576.707031 490.457031 586.917969 C 488.820312 604.195312 466.636719 616.734375 437.714844 616.734375 C 424.519531 616.734375 416.113281 614.515625 407.980469 612.371094 C 395.53125 609.085938 383.773438 605.980469 357.074219 612.316406 C 353.996094 613.046875 351.148438 613.734375 348.394531 614.402344 C 330.914062 618.621094 320.363281 621.171875 312.667969 619.355469 C 304.714844 617.480469 299.253906 610.597656 291.960938 598.542969 C 286.558594 589.617188 283.992188 583.96875 282.121094 579.839844 C 278.03125 570.835938 277.0625 568.699219 257.816406 555.53125 C 243.050781 545.425781 233.648438 532.644531 231.34375 519.539062 C 230.816406 516.535156 230.683594 513.589844 230.933594 510.765625 C 235.023438 512.601562 239.1875 514.410156 243.246094 516.089844 C 262.695312 524.140625 274.511719 527.160156 278.371094 525.070312 C 279.277344 524.582031 279.796875 523.796875 279.886719 522.796875 C 280.03125 521.101562 280.007812 518.203125 279.976562 514.847656 C 279.933594 509.8125 279.882812 504.109375 280.433594 501.253906 C 281.371094 496.363281 283.414062 493.574219 284.214844 493.683594 C 284.601562 493.738281 285.503906 495.097656 285.027344 500.667969 C 284.882812 502.347656 284.597656 504.226562 284.296875 506.222656 C 283.359375 512.4375 282.296875 519.488281 285.363281 522.765625 C 286.679688 524.175781 288.660156 524.785156 291.25 524.570312 C 302.601562 523.636719 334.078125 519.089844 371.792969 513.308594 C 381.886719 523.53125 391.855469 529.480469 402.152344 531.453125 Z M 568.242188 470.6875 C 566.988281 466.722656 566.9375 462.109375 566.972656 460.359375 C 567.019531 457.921875 567.171875 456.671875 567.300781 456.039062 C 567.988281 458.078125 568.851562 464.617188 568.242188 470.6875 Z M 568.242188 470.6875 " fill-opacity="1" fill-rule="nonzero"/></g></svg>